{
.appVersion = "983";
copyright = "Copyright 2016 Google Inc. All Rights Reserved.";
customParameters = (
{
name = unicodeRanges;
value = (
0,
1,
31,
45,
74,
91,
116
);
},
{
name = licenseURL;
value = "http://scripts.sil.org/OFL";
},
{
name = description;
value = "Designed by Monotype design team.";
},
{
name = trademark;
value = "Noto is a trademark of Google Inc.";
},
{
name = license;
value = "This Font Software is licensed under the SIL Open Font License, Version 1.1. This Font Software is distributed on an \"AS IS\" BASIS, WITHOUT WARRANTIES OR CONDITIONS OF ANY KIND, either express or implied. See the SIL Open Font License for the specific language, permissions and limitations governing your use of this Font Software.";
},
{
name = vendorID;
value = GOOG;
},
{
name = fsType;
value = (
);
},
{
name = glyphOrder;
value = (
.notdef,
null,
CR,
space,
backslash,
periodcentered,
ellipsis,
exclam,
question,
quotedbl,
quotesingle,
slash,
braceleft,
braceright,
bracketleft,
bracketright,
parenleft,
parenright,
emdash,
endash,
hyphen,
quotedblleft,
quotedblright,
quoteleft,
quoteright,
period,
divide,
equal,
minus,
multiply,
plus,
bar,
fraction,
percent,
zero_m,
one_m,
two_m,
three_m,
four_m,
five_m,
six_m,
seven_m,
eight_m,
nine_m,
zero_m.dnom,
one_m.dnom,
two_m.dnom,
three_m.dnom,
four_m.dnom,
five_m.dnom,
six_m.dnom,
seven_m.dnom,
eight_m.dnom,
nine_m.dnom,
zero_m.numr,
one_m.numr,
two_m.numr,
three_m.numr,
four_m.numr,
five_m.numr,
six_m.numr,
seven_m.numr,
eight_m.numr,
nine_m.numr,
onehalf_m,
onethird_m,
twothirds_m,
onequarter_m,
threequarters_m,
onefifth_m,
twofifths_m,
threefifths_m,
fourfifths_m,
onesixth_m,
fivesixths_m,
oneseventh_m,
twosevenths_m,
threesevenths_m,
foursevenths_m,
fivesevenths_m,
sixsevenths_m,
oneeighth_m,
threeeighths_m,
fiveeighths_m,
seveneighths_m,
oneninth_m,
twoninths_m,
fourninths_m,
fiveninths_m,
sevenninths_m,
eightninths_m,
onetenth_m,
zero_shn,
one_shn,
two_shn,
three_shn,
four_shn,
five_shn,
six_shn,
seven_shn,
eight_shn,

glyphs = (
{
glyphname = .notdef;
lastChange = "2017-02-22 17:31:34 +0000";
layers = (
{
color = -1;
layerId = "BE49CA0D-7169-41D2-A70B-CE6F74D40E44";
paths = (
{
closed = 1;
nodes = (
"505 0 LINE",
"505 714 LINE",
"94 714 LINE",
"94 0 LINE"
);
},
{
closed = 1;
nodes = (
"454 663 LINE",
"454 51 LINE",
"145 51 LINE",
"145 663 LINE"
);
}
);
width = 600;
},
{
color = -1;
layerId = "719AC85C-8AED-41E6-95C2-58F38387964A";
paths = (
{
closed = 1;
nodes = (
"505 0 LINE",
"505 714 LINE",
"94 714 LINE",
"94 0 LINE"
);
},
{
closed = 1;
nodes = (
"454 663 LINE",
"454 51 LINE",
"145 51 LINE",
"145 663 LINE"
);
}
);
width = 600;
},
{
color = -1;
layerId = "6DF5D8D3-1700-4463-A28F-E0E9C2C73C46";
paths = (
{
closed = 1;
nodes = (
"505 0 LINE",
"505 714 LINE",
"94 714 LINE",
"94 0 LINE"
);
},
{
closed = 1;
nodes = (
"454 663 LINE",
"454 51 LINE",
"145 51 LINE",
"145 663 LINE"
);
}
);
width = 600;
},
{
color = -1;
layerId = "75CF80E9-B2FC-4BD6-93D9-27AF395083D0";
paths = (
{
closed = 1;
nodes = (
"505 0 LINE",
"505 714 LINE",
"94 714 LINE",
"94 0 LINE"
);
},
{
closed = 1;
nodes = (
"454 663 LINE",
"454 51 LINE",
"145 51 LINE",
"145 663 LINE"
);
}
);
width = 600;
},
{
color = -1;
layerId = "949D5271-AFC5-4116-8DE3-A7795FBFC928";
paths = (
{
closed = 1;
nodes = (
"505 0 LINE",
"505 714 LINE",
"94 714 LINE",
"94 0 LINE"
);
},
{
closed = 1;
nodes = (
"454 663 LINE",
"454 51 LINE",
"145 51 LINE",
"145 663 LINE"
);
}
);
width = 600;
},
{
color = -1;
layerId = "89CE42BF-A6C4-4DEE-B312-858F60FB84E5";
paths = (
{
closed = 1;
nodes = (
"505 0 LINE",
"505 714 LINE",
"94 714 LINE",
"94 0 LINE"
);
},
{
closed = 1;
nodes = (
"454 663 LINE",
"454 51 LINE",
"145 51 LINE",
"145 663 LINE"
);
}
);
width = 600;
},
{
associatedMasterId = "6DF5D8D3-1700-4463-A28F-E0E9C2C73C46";
background = {
paths = (
{
closed = 1;
nodes = (
"94 714 LINE",
"505 714 LINE",
"505 0 LINE",
"94 0 LINE"
);
},
{
closed = 1;
nodes = (
"145 51 LINE",
"454 51 LINE",
"454 663 LINE",
"145 663 LINE"
);
}
);
};
layerId = "43EFE95F-505E-4640-B924-536B3B1F10FD";
name = "SemiBold Condensed";
paths = (
{
closed = 1;
nodes = (
"505 0 LINE",
"505 714 LINE",
"94 714 LINE",
"94 0 LINE"
);
},
{
closed = 1;
nodes = (
"454 663 LINE",
"454 51 LINE",
"145 51 LINE",
"145 663 LINE"
);
}
);
width = 600;
},
{
associatedMasterId = "6DF5D8D3-1700-4463-A28F-E0E9C2C73C46";
background = {
paths = (
{
closed = 1;
nodes = (
"94 714 LINE",
"505 714 LINE",
"505 0 LINE",
"94 0 LINE"
);
},
{
closed = 1;
nodes = (
"145 51 LINE",
"454 51 LINE",
"454 663 LINE",
"145 663 LINE"
);
}
);
};
layerId = "61E09DC1-80FB-4452-888D-CD4D7CB29D27";
name = "Bold Condensed";
paths = (
{
closed = 1;
nodes = (
"505 0 LINE",
"505 714 LINE",
"94 714 LINE",
"94 0 LINE"
);
},
{
closed = 1;
nodes = (
"454 663 LINE",
"454 51 LINE",
"145 51 LINE",
"145 663 LINE"
);
}
);
width = 600;
}
);
note = .notdef;
},
{
glyphname = quoteright;
lastChange = "2017-02-22 17:31:34 +0000";
layers = (
{
color = -1;
layerId = "6DF5D8D3-1700-4463-A28F-E0E9C2C73C46";
paths = (
{
closed = 1;
nodes = (
"269 771 LINE",
"247 695 OFFCURVE",
"200 631 OFFCURVE",
"127 572 CURVE",
"142 560 LINE",
"210 612 OFFCURVE",
"300 715 OFFCURVE",
"300 841 CURVE"
);
},
{
closed = 1;
nodes = (
"262 732 OFFCURVE",
"300 779 OFFCURVE",
"300 841 CURVE SMOOTH",
"300 903 OFFCURVE",
"262 950 OFFCURVE",
"188 950 CURVE SMOOTH",
"114 950 OFFCURVE",
"76 903 OFFCURVE",
"76 841 CURVE SMOOTH",
"76 779 OFFCURVE",
"114 732 OFFCURVE",
"188 732 CURVE SMOOTH"
);
},
{
closed = 1;
nodes = (
"125 758 OFFCURVE",
"96 794 OFFCURVE",
"96 841 CURVE SMOOTH",
"96 888 OFFCURVE",
"125 924 OFFCURVE",
"188 924 CURVE SMOOTH",
"251 924 OFFCURVE",
"280 888 OFFCURVE",
"280 841 CURVE SMOOTH",
"280 794 OFFCURVE",
"251 758 OFFCURVE",
"188 758 CURVE SMOOTH"
);
}
);
width = 376;
},
{
color = -1;
layerId = "BE49CA0D-7169-41D2-A70B-CE6F74D40E44";
paths = (
{
closed = 1;
nodes = (
"185 722 LINE",
"166 680 OFFCURVE",
"137 635 OFFCURVE",
"86 576 CURVE",
"144 536 LINE",
"223 594 OFFCURVE",
"329 713 OFFCURVE",
"329 846 CURVE"
);
},
{
closed = 1;
nodes = (
"279 716 OFFCURVE",
"329 769 OFFCURVE",
"329 846 CURVE SMOOTH",
"329 925 OFFCURVE",
"279 978 OFFCURVE",
"195 978 CURVE SMOOTH",
"111 978 OFFCURVE",
"61 925 OFFCURVE",
"61 846 CURVE SMOOTH",
"61 769 OFFCURVE",
"111 716 OFFCURVE",
"195 716 CURVE SMOOTH"
);
},
{
closed = 1;
nodes = (
"140 794 OFFCURVE",
"116 816 OFFCURVE",
"116 846 CURVE SMOOTH",
"116 877 OFFCURVE",
"140 900 OFFCURVE",
"195 900 CURVE SMOOTH",
"250 900 OFFCURVE",
"274 877 OFFCURVE",
"274 846 CURVE SMOOTH",
"274 816 OFFCURVE",
"250 794 OFFCURVE",
"195 794 CURVE SMOOTH"
);
}
);
width = 390;
},
{
color = -1;
layerId = "719AC85C-8AED-41E6-95C2-58F38387964A";
paths = (
{
closed = 1;
nodes = (
"181 748 LINE",
"164 697 OFFCURVE",
"137 651 OFFCURVE",
"91 590 CURVE",
"149 546 LINE",
"224 603 OFFCURVE",
"326 730 OFFCURVE",
"326 866 CURVE"
);
},
{
closed = 1;
nodes = (
"274 736 OFFCURVE",
"326 787 OFFCURVE",
"326 866 CURVE SMOOTH",
"326 947 OFFCURVE",
"274 998 OFFCURVE",
"192 998 CURVE SMOOTH",
"110 998 OFFCURVE",
"58 947 OFFCURVE",
"58 866 CURVE SMOOTH",
"58 787 OFFCURVE",
"110 736 OFFCURVE",
"192 736 CURVE SMOOTH"
);
},
{
closed = 1;
nodes = (
"140 822 OFFCURVE",
"118 840 OFFCURVE",
"118 866 CURVE SMOOTH",
"118 893 OFFCURVE",
"140 912 OFFCURVE",
"192 912 CURVE SMOOTH",
"244 912 OFFCURVE",
"266 893 OFFCURVE",
"266 866 CURVE SMOOTH",
"266 840 OFFCURVE",
"244 822 OFFCURVE",
"192 822 CURVE SMOOTH"
);
}
);
width = 384;
},
{
color = -1;
layerId = "75CF80E9-B2FC-4BD6-93D9-27AF395083D0";
paths = (
{
closed = 1;
nodes = (
"209 770 LINE",
"192 694 OFFCURVE",
"154 630 OFFCURVE",
"87 571 CURVE",
"100 557 LINE",
"163 609 OFFCURVE",
"240 713 OFFCURVE",
"240 840 CURVE"
);
},
{
closed = 1;
nodes = (
"209 731 OFFCURVE",
"240 778 OFFCURVE",
"240 840 CURVE SMOOTH",
"240 902 OFFCURVE",
"209 949 OFFCURVE",
"150 949 CURVE SMOOTH",
"91 949 OFFCURVE",
"60 902 OFFCURVE",
"60 840 CURVE SMOOTH",
"60 778 OFFCURVE",
"91 731 OFFCURVE",
"150 731 CURVE SMOOTH"
);
},
{
closed = 1;
nodes = (
"102 757 OFFCURVE",
"78 793 OFFCURVE",
"78 840 CURVE SMOOTH",
"78 887 OFFCURVE",
"102 923 OFFCURVE",
"150 923 CURVE SMOOTH",
"198 923 OFFCURVE",
"222 887 OFFCURVE",
"222 840 CURVE SMOOTH",
"222 793 OFFCURVE",
"198 757 OFFCURVE",
"150 757 CURVE SMOOTH"
);
}
);
width = 300;
},
{
color = -1;
layerId = "949D5271-AFC5-4116-8DE3-A7795FBFC928";
paths = (
{
closed = 1;
nodes = (
"146 721 LINE",
"129 678 OFFCURVE",
"103 631 OFFCURVE",
"57 570 CURVE",
"115 535 LINE",
"177 593 OFFCURVE",
"260 712 OFFCURVE",
"260 845 CURVE"
);
},
{
closed = 1;
nodes = (
"219 715 OFFCURVE",
"260 768 OFFCURVE",
"260 845 CURVE SMOOTH",
"260 924 OFFCURVE",
"219 977 OFFCURVE",
"150 977 CURVE SMOOTH",
"81 977 OFFCURVE",
"40 924 OFFCURVE",
"40 845 CURVE SMOOTH",
"40 768 OFFCURVE",
"81 715 OFFCURVE",
"150 715 CURVE SMOOTH"
);
},
{
closed = 1;
nodes = (
"108 793 OFFCURVE",
"90 815 OFFCURVE",
"90 845 CURVE SMOOTH",
"90 876 OFFCURVE",
"108 899 OFFCURVE",
"150 899 CURVE SMOOTH",
"192 899 OFFCURVE",
"210 876 OFFCURVE",
"210 845 CURVE SMOOTH",
"210 815 OFFCURVE",
"192 793 OFFCURVE",
"150 793 CURVE SMOOTH"
);
}
);
width = 300;
},
{
color = -1;
layerId = "89CE42BF-A6C4-4DEE-B312-858F60FB84E5";
paths = (
{
closed = 1;
nodes = (
"125 745 LINE",
"110 691 OFFCURVE",
"86 642 OFFCURVE",
"45 577 CURVE",
"103 543 LINE",
"165 600 OFFCURVE",
"250 727 OFFCURVE",
"250 863 CURVE"
);
},
{
closed = 1;
nodes = (
"207 733 OFFCURVE",
"250 784 OFFCURVE",
"250 863 CURVE SMOOTH",
"250 944 OFFCURVE",
"207 995 OFFCURVE",
"140 995 CURVE SMOOTH",
"73 995 OFFCURVE",
"30 944 OFFCURVE",
"30 863 CURVE SMOOTH",
"30 784 OFFCURVE",
"73 733 OFFCURVE",
"140 733 CURVE SMOOTH"
);
},
{
closed = 1;
nodes = (
"105 819 OFFCURVE",
"90 837 OFFCURVE",
"90 863 CURVE SMOOTH",
"90 890 OFFCURVE",
"105 909 OFFCURVE",
"140 909 CURVE SMOOTH",
"175 909 OFFCURVE",
"190 890 OFFCURVE",
"190 863 CURVE SMOOTH",
"190 837 OFFCURVE",
"175 819 OFFCURVE",
"140 819 CURVE SMOOTH"
);
}
);
width = 280;
}
);
leftKerningGroup = quoteright.mymr;
leftMetricsKey = visarga;
rightKerningGroup = quoteright.mymr;
rightMetricsKey = visarga;
unicode = 2019;
},
{
glyphname = two_m;
lastChange = "2017-02-22 17:31:34 +0000";
layers = (
{
color = -1;
layerId = "6DF5D8D3-1700-4463-A28F-E0E9C2C73C46";
paths = (
{
closed = 1;
nodes = (
"478 520 LINE",
"456 520 LINE",
"456 -215 LINE SMOOTH",
"456 -335 OFFCURVE",
"392 -402 OFFCURVE",
"268 -402 CURVE SMOOTH",
"144 -402 OFFCURVE",
"77 -335 OFFCURVE",
"77 -215 CURVE SMOOTH",
"77 -196 LINE",
"58 -196 LINE",
"57 -204 OFFCURVE",
"57 -211 OFFCURVE",
"57 -218 CURVE SMOOTH",
"57 -349 OFFCURVE",
"131 -430 OFFCURVE",
"268 -430 CURVE SMOOTH",
"405 -430 OFFCURVE",
"478 -349 OFFCURVE",
"478 -219 CURVE SMOOTH"
);
}
);
width = 554;
},
{
color = -1;
guideLines = (
{
position = "{287, -264}";
}
);
layerId = "BE49CA0D-7169-41D2-A70B-CE6F74D40E44";
paths = (
{
closed = 1;
nodes = (
"505 536 LINE",
"429 536 LINE",
"429 -140 LINE SMOOTH",
"429 -273 OFFCURVE",
"367 -314 OFFCURVE",
"270 -314 CURVE SMOOTH",
"173 -314 OFFCURVE",
"110 -273 OFFCURVE",
"110 -159 CURVE SMOOTH",
"110 -152 LINE",
"52 -152 LINE",
"50 -163 OFFCURVE",
"49 -185 OFFCURVE",
"49 -201 CURVE SMOOTH",
"49 -340 OFFCURVE",
"124 -442 OFFCURVE",
"277 -442 CURVE SMOOTH",
"430 -442 OFFCURVE",
"505 -342 OFFCURVE",
"505 -164 CURVE SMOOTH"
);
}
);
width = 565;
},
{
color = -1;
layerId = "719AC85C-8AED-41E6-95C2-58F38387964A";
paths = (
{
closed = 1;
nodes = (
"535 546 LINE",
"441 546 LINE",
"441 -119 LINE SMOOTH",
"441 -239 OFFCURVE",
"367 -261 OFFCURVE",
"282 -261 CURVE SMOOTH",
"197 -261 OFFCURVE",
"123 -239 OFFCURVE",
"123 -125 CURVE SMOOTH",
"123 -123 LINE",
"46 -123 LINE",
"43 -138 OFFCURVE",
"40 -167 OFFCURVE",
"40 -197 CURVE SMOOTH",
"40 -358 OFFCURVE",
"124 -452 OFFCURVE",
"288 -452 CURVE SMOOTH",
"452 -452 OFFCURVE",
"535 -358 OFFCURVE",
"535 -198 CURVE SMOOTH"
);
}
);
width = 585;
},
{
color = -1;
layerId = "75CF80E9-B2FC-4BD6-93D9-27AF395083D0";
paths = (
{
closed = 1;
nodes = (
"381 520 LINE",
"359 520 LINE",
"359 -230 LINE SMOOTH",
"359 -344 OFFCURVE",
"317 -401 OFFCURVE",
"233 -401 CURVE SMOOTH",
"147 -401 OFFCURVE",
"100 -344 OFFCURVE",
"100 -230 CURVE SMOOTH",
"100 -193 LINE",
"81 -193 LINE",
"80 -208 OFFCURVE",
"80 -224 OFFCURVE",
"80 -234 CURVE SMOOTH",
"80 -358 OFFCURVE",
"136 -429 OFFCURVE",
"232 -429 CURVE SMOOTH",
"330 -429 OFFCURVE",
"381 -358 OFFCURVE",
"381 -234 CURVE SMOOTH"
);
}
);
width = 455;
},
{
color = -1;
layerId = "949D5271-AFC5-4116-8DE3-A7795FBFC928";
paths = (
{
closed = 1;
nodes = (
"374 536 LINE",
"300 536 LINE",
"300 -156 LINE SMOOTH",
"300 -279 OFFCURVE",
"266 -317 OFFCURVE",
"207 -317 CURVE SMOOTH",
"149 -317 OFFCURVE",
"102 -285 OFFCURVE",
"102 -195 CURVE SMOOTH",
"102 -163 LINE",
"43 -163 LINE",
"42 -174 OFFCURVE",
"41 -193 OFFCURVE",
"41 -216 CURVE SMOOTH",
"41 -361 OFFCURVE",
"107 -441 OFFCURVE",
"208 -441 CURVE SMOOTH",
"324 -441 OFFCURVE",
"374 -346 OFFCURVE",
"374 -176 CURVE SMOOTH"
);
}
);
width = 432;
},
{
color = -1;
layerId = "89CE42BF-A6C4-4DEE-B312-858F60FB84E5";
paths = (
{
closed = 1;
nodes = (
"414 546 LINE",
"322 546 LINE",
"322 -147 LINE SMOOTH",
"322 -240 OFFCURVE",
"280 -269 OFFCURVE",
"218 -269 CURVE SMOOTH",
"167 -269 OFFCURVE",
"116 -249 OFFCURVE",
"116 -180 CURVE SMOOTH",
"116 -166 LINE",
"36 -166 LINE",
"34 -180 OFFCURVE",
"33 -194 OFFCURVE",
"33 -209 CURVE SMOOTH",
"33 -357 OFFCURVE",
"103 -449 OFFCURVE",
"228 -449 CURVE SMOOTH",
"354 -449 OFFCURVE",
"414 -358 OFFCURVE",
"414 -200 CURVE SMOOTH"
);
}
);
width = 462;
}
);
rightMetricsKey = jha;
unicode = 1042;
script = myanmar;
category = Number;
subCategory = "Decimal Digit";
},
{
glyphname = three_m;
lastChange = "2017-02-22 17:31:34 +0000";
layers = (
{
color = -1;
layerId = "6DF5D8D3-1700-4463-A28F-E0E9C2C73C46";
paths = (
{
closed = 1;
nodes = (
"339 -10 LINE SMOOTH",
"426 -10 OFFCURVE",
"492 21 OFFCURVE",
"534 76 CURVE SMOOTH",
"569 121 OFFCURVE",
"587 184 OFFCURVE",
"587 260 CURVE SMOOTH",
"587 336 OFFCURVE",
"569 399 OFFCURVE",
"534 444 CURVE SMOOTH",
"492 500 OFFCURVE",
"425 530 OFFCURVE",
"339 530 CURVE SMOOTH",
"319 530 LINE SMOOTH",
"196 530 OFFCURVE",
"105 465 OFFCURVE",
"80 354 CURVE",
"102 354 LINE",
"126 446 OFFCURVE",
"207 502 OFFCURVE",
"329 502 CURVE SMOOTH",
"485 502 OFFCURVE",
"567 411 OFFCURVE",
"567 268 CURVE SMOOTH",
"567 252 LINE SMOOTH",
"567 108 OFFCURVE",
"485 18 OFFCURVE",
"329 18 CURVE SMOOTH",
"207 18 OFFCURVE",
"126 73 OFFCURVE",
"102 166 CURVE",
"80 166 LINE",
"89 125 OFFCURVE",
"107 92 OFFCURVE",
"153 39 CURVE SMOOTH",
"556 -430 LINE",
"587 -418 LINE",
"203 13 LINE",
"237 -2 OFFCURVE",
"276 -10 OFFCURVE",
"319 -10 CURVE SMOOTH"
);
}
);
width = 658;
},
{
color = -1;
layerId = "BE49CA0D-7169-41D2-A70B-CE6F74D40E44";
paths = (
{
closed = 1;
nodes = (
"325 -10 LINE SMOOTH",
"414 -10 OFFCURVE",
"482 24 OFFCURVE",
"523 77 CURVE SMOOTH",
"560 124 OFFCURVE",
"575 185 OFFCURVE",
"575 268 CURVE SMOOTH",
"575 351 OFFCURVE",
"560 412 OFFCURVE",
"523 459 CURVE SMOOTH",
"482 512 OFFCURVE",
"414 546 OFFCURVE",
"325 546 CURVE SMOOTH",
"305 546 LINE SMOOTH",
"117 546 OFFCURVE",
"58 406 OFFCURVE",
"58 323 CURVE",
"124 323 LINE",
"132 381 OFFCURVE",
"201 418 OFFCURVE",
"315 418 CURVE SMOOTH",
"429 418 OFFCURVE",
"509 380 OFFCURVE",
"509 273 CURVE SMOOTH",
"509 263 LINE SMOOTH",
"509 156 OFFCURVE",
"429 118 OFFCURVE",
"315 118 CURVE SMOOTH",
"201 118 OFFCURVE",
"132 155 OFFCURVE",
"124 213 CURVE",
"58 213 LINE",
"60 165 OFFCURVE",
"73 123 OFFCURVE",
"118 56 CURVE SMOOTH",
"456 -442 LINE",
"575 -399 LINE",
"254 -6 LINE",
"269 -9 OFFCURVE",
"285 -10 OFFCURVE",
"302 -10 CURVE SMOOTH"
);
}
);
width = 630;
},
{
color = -1;
layerId = "719AC85C-8AED-41E6-95C2-58F38387964A";
paths = (
{
closed = 1;
nodes = (
"325 -10 LINE SMOOTH",
"414 -10 OFFCURVE",
"481 19 OFFCURVE",
"525 73 CURVE SMOOTH",
"563 122 OFFCURVE",
"583 189 OFFCURVE",
"583 273 CURVE SMOOTH",
"583 358 OFFCURVE",
"563 425 OFFCURVE",
"525 473 CURVE SMOOTH",
"481 527 OFFCURVE",
"414 556 OFFCURVE",
"325 556 CURVE SMOOTH",
"303 556 LINE SMOOTH",
"148 556 OFFCURVE",
"50 461 OFFCURVE",
"47 303 CURVE",
"131 303 LINE",
"145 345 OFFCURVE",
"210 365 OFFCURVE",
"314 365 CURVE SMOOTH",
"410 365 OFFCURVE",
"502 349 OFFCURVE",
"502 276 CURVE SMOOTH",
"502 270 LINE SMOOTH",
"502 197 OFFCURVE",
"410 181 OFFCURVE",
"314 181 CURVE SMOOTH",
"210 181 OFFCURVE",
"147 201 OFFCURVE",
"131 243 CURVE",
"47 243 LINE",
"48 184 OFFCURVE",
"62 134 OFFCURVE",
"113 50 CURVE SMOOTH",
"418 -452 LINE",
"583 -405 LINE",
"258 -7 LINE",
"272 -9 OFFCURVE",
"287 -10 OFFCURVE",
"303 -10 CURVE SMOOTH"
);
}
);
width = 628;
},
{
color = -1;
layerId = "75CF80E9-B2FC-4BD6-93D9-27AF395083D0";
paths = (
{
closed = 1;
nodes = (
"256 -8 LINE SMOOTH",
"315 -8 OFFCURVE",
"364 24 OFFCURVE",
"391 69 CURVE SMOOTH",
"418 114 OFFCURVE",
"429 181 OFFCURVE",
"429 260 CURVE SMOOTH",
"429 339 OFFCURVE",
"418 406 OFFCURVE",
"391 451 CURVE SMOOTH",
"364 496 OFFCURVE",
"315 528 OFFCURVE",
"256 528 CURVE SMOOTH",
"242 528 LINE SMOOTH",
"156 528 OFFCURVE",
"91 465 OFFCURVE",
"75 354 CURVE",
"96 354 LINE",
"110 449 OFFCURVE",
"164 500 OFFCURVE",
"249 500 CURVE SMOOTH",
"355 500 OFFCURVE",
"409 424 OFFCURVE",
"409 272 CURVE SMOOTH",
"409 248 LINE SMOOTH",
"409 96 OFFCURVE",
"355 20 OFFCURVE",
"249 20 CURVE SMOOTH",
"164 20 OFFCURVE",
"110 70 OFFCURVE",
"96 166 CURVE",
"75 166 LINE",
"81 125 OFFCURVE",
"93 90 OFFCURVE",
"124 38 CURVE SMOOTH",
"406 -430 LINE",
"429 -418 LINE",
"164 12 LINE",
"187 -1 OFFCURVE",
"214 -8 OFFCURVE",
"242 -8 CURVE SMOOTH"
);
}
);
width = 498;
},
{
color = -1;
layerId = "949D5271-AFC5-4116-8DE3-A7795FBFC928";
paths = (
{
closed = 1;
nodes = (
"252 -9 LINE SMOOTH",
"316 -9 OFFCURVE",
"367 22 OFFCURVE",
"398 74 CURVE SMOOTH",
"425 120 OFFCURVE",
"436 182 OFFCURVE",
"436 268 CURVE SMOOTH",
"436 354 OFFCURVE",
"425 416 OFFCURVE",
"398 462 CURVE SMOOTH",
"367 514 OFFCURVE",
"316 545 OFFCURVE",
"252 545 CURVE SMOOTH",
"236 545 LINE SMOOTH",
"98 545 OFFCURVE",
"55 408 OFFCURVE",
"55 323 CURVE",
"118 323 LINE",
"123 381 OFFCURVE",
"169 421 OFFCURVE",
"244 421 CURVE SMOOTH",
"320 421 OFFCURVE",
"374 369 OFFCURVE",
"374 277 CURVE SMOOTH",
"374 259 LINE SMOOTH",
"374 167 OFFCURVE",
"320 115 OFFCURVE",
"244 115 CURVE SMOOTH",
"169 115 OFFCURVE",
"123 155 OFFCURVE",
"118 213 CURVE",
"55 213 LINE",
"56 163 OFFCURVE",
"69 111 OFFCURVE",
"102 42 CURVE SMOOTH",
"333 -442 LINE",
"415 -399 LINE",
"191 -3 LINE",
"205 -7 OFFCURVE",
"220 -9 OFFCURVE",
"236 -9 CURVE SMOOTH"
);
}
);
width = 488;
},
{
color = -1;
layerId = "89CE42BF-A6C4-4DEE-B312-858F60FB84E5";
paths = (
{
closed = 1;
nodes = (
"252 -7 LINE SMOOTH",
"318 -7 OFFCURVE",
"374 23 OFFCURVE",
"406 81 CURVE SMOOTH",
"429 123 OFFCURVE",
"443 184 OFFCURVE",
"443 273 CURVE SMOOTH",
"443 362 OFFCURVE",
"429 423 OFFCURVE",
"406 465 CURVE SMOOTH",
"374 523 OFFCURVE",
"318 553 OFFCURVE",
"252 553 CURVE SMOOTH",
"234 553 LINE SMOOTH",
"120 553 OFFCURVE",
"47 464 OFFCURVE",
"44 303 CURVE",
"126 303 LINE",
"135 348 OFFCURVE",
"176 373 OFFCURVE",
"243 373 CURVE SMOOTH",
"308 373 OFFCURVE",
"365 344 OFFCURVE",
"365 277 CURVE SMOOTH",
"365 269 LINE SMOOTH",
"365 202 OFFCURVE",
"308 173 OFFCURVE",
"243 173 CURVE SMOOTH",
"176 173 OFFCURVE",
"135 198 OFFCURVE",
"126 243 CURVE",
"44 243 LINE",
"45 185 OFFCURVE",
"56 137 OFFCURVE",
"80 81 CURVE SMOOTH",
"312 -452 LINE",
"430 -405 LINE",
"194 -3 LINE",
"206 -6 OFFCURVE",
"220 -7 OFFCURVE",
"234 -7 CURVE SMOOTH"
);
}
);
width = 486;
}
);
leftMetricsKey = "=one_m";
widthMetricsKey = "=one_m";
unicode = 1043;
script = myanmar;
category = Number;
subCategory = "Decimal Digit";
},
{
glyphname = five_m;
lastChange = "2017-02-22 17:31:34 +0000";
layers = (
{
color = -1;
layerId = "6DF5D8D3-1700-4463-A28F-E0E9C2C73C46";
paths = (
{
closed = 1;
nodes = (
"373 -10 OFFCURVE",
"411 37 OFFCURVE",
"411 99 CURVE SMOOTH",
"411 161 OFFCURVE",
"373 208 OFFCURVE",
"299 208 CURVE SMOOTH",
"225 208 OFFCURVE",
"187 161 OFFCURVE",
"187 99 CURVE SMOOTH",
"187 37 OFFCURVE",
"225 -10 OFFCURVE",
"299 -10 CURVE SMOOTH"
);
},
{
closed = 1;
nodes = (
"68 -196 LINE",
"67 -201 OFFCURVE",
"67 -206 OFFCURVE",
"67 -210 CURVE SMOOTH",
"67 -266 OFFCURVE",
"83 -313 OFFCURVE",
"113 -349 CURVE SMOOTH",
"156 -400 OFFCURVE",
"226 -430 OFFCURVE",
"315 -430 CURVE SMOOTH",
"321 -430 LINE SMOOTH",
"419 -430 OFFCURVE",
"488 -398 OFFCURVE",
"531 -344 CURVE SMOOTH",
"565 -301 OFFCURVE",
"583 -242 OFFCURVE",
"583 -171 CURVE SMOOTH",
"583 263 LINE SMOOTH",
"583 342 OFFCURVE",
"566 399 OFFCURVE",
"531 444 CURVE SMOOTH",
"490 497 OFFCURVE",
"423 530 OFFCURVE",
"332 530 CURVE SMOOTH",
"318 530 LINE SMOOTH",
"227 530 OFFCURVE",
"161 496 OFFCURVE",
"120 445 CURVE SMOOTH",
"83 399 OFFCURVE",
"67 341 OFFCURVE",
"67 260 CURVE SMOOTH",
"67 179 OFFCURVE",
"83 119 OFFCURVE",
"122 70 CURVE SMOOTH",
"158 25 OFFCURVE",
"216 -10 OFFCURVE",
"299 -10 CURVE",
"373 -10 OFFCURVE",
"411 37 OFFCURVE",
"411 99 CURVE",
"411 37 OFFCURVE",
"362 14 OFFCURVE",
"295 14 CURVE SMOOTH",
"168 14 OFFCURVE",
"87 111 OFFCURVE",
"87 252 CURVE SMOOTH",
"87 268 LINE SMOOTH",
"87 411 OFFCURVE",
"169 502 OFFCURVE",
"325 502 CURVE SMOOTH",
"481 502 OFFCURVE",
"561 412 OFFCURVE",
"561 269 CURVE SMOOTH",
"561 -169 LINE SMOOTH",
"561 -318 OFFCURVE",
"481 -402 OFFCURVE",
"318 -402 CURVE SMOOTH",
"169 -402 OFFCURVE",
"88 -332 OFFCURVE",
"88 -209 CURVE SMOOTH",
"88 -196 LINE"
);
},
{
closed = 1;
nodes = (
"236 16 OFFCURVE",
"207 52 OFFCURVE",
"207 99 CURVE SMOOTH",
"207 146 OFFCURVE",
"236 182 OFFCURVE",
"299 182 CURVE SMOOTH",
"362 182 OFFCURVE",
"391 146 OFFCURVE",
"391 99 CURVE SMOOTH",
"391 52 OFFCURVE",
"362 16 OFFCURVE",
"299 16 CURVE SMOOTH"
);
}
);
width = 650;
},
{
color = -1;
layerId = "BE49CA0D-7169-41D2-A70B-CE6F74D40E44";
paths = (
{
closed = 1;
nodes = (
"365 22 OFFCURVE",
"415 75 OFFCURVE",
"415 152 CURVE SMOOTH",
"415 231 OFFCURVE",
"365 284 OFFCURVE",
"281 284 CURVE SMOOTH",
"197 284 OFFCURVE",
"147 231 OFFCURVE",
"147 152 CURVE SMOOTH",
"147 75 OFFCURVE",
"197 22 OFFCURVE",
"281 22 CURVE SMOOTH"
);
},
{
closed = 1;
nodes = (
"57 -151 LINE",
"55 -158 OFFCURVE",
"55 -165 OFFCURVE",
"55 -169 CURVE SMOOTH",
"55 -247 OFFCURVE",
"70 -308 OFFCURVE",
"107 -355 CURVE SMOOTH",
"148 -408 OFFCURVE",
"216 -442 OFFCURVE",
"305 -442 CURVE SMOOTH",
"325 -442 LINE SMOOTH",
"414 -442 OFFCURVE",
"482 -408 OFFCURVE",
"523 -355 CURVE SMOOTH",
"560 -308 OFFCURVE",
"575 -247 OFFCURVE",
"575 -164 CURVE SMOOTH",
"575 268 LINE SMOOTH",
"575 351 OFFCURVE",
"560 412 OFFCURVE",
"523 459 CURVE SMOOTH",
"482 512 OFFCURVE",
"414 546 OFFCURVE",
"325 546 CURVE SMOOTH",
"305 546 LINE SMOOTH",
"216 546 OFFCURVE",
"148 512 OFFCURVE",
"107 460 CURVE SMOOTH",
"70 412 OFFCURVE",
"55 349 OFFCURVE",
"55 270 CURVE SMOOTH",
"55 186 OFFCURVE",
"72 125 OFFCURVE",
"107 76 CURVE SMOOTH",
"146 22 OFFCURVE",
"203 -10 OFFCURVE",
"281 -10 CURVE SMOOTH",
"373 -10 OFFCURVE",
"415 48 OFFCURVE",
"415 152 CURVE",
"351 82 OFFCURVE",
"308 85 OFFCURVE",
"254 85 CURVE",
"147 85 OFFCURVE",
"121 143 OFFCURVE",
"121 233 CURVE SMOOTH",
"121 252 LINE SMOOTH",
"121 372 OFFCURVE",
"206 418 OFFCURVE",
"313 418 CURVE SMOOTH",
"424 418 OFFCURVE",
"501 369 OFFCURVE",
"501 244 CURVE SMOOTH",
"501 -144 LINE SMOOTH",
"501 -277 OFFCURVE",
"423 -314 OFFCURVE",
"311 -314 CURVE SMOOTH",
"199 -314 OFFCURVE",
"121 -276 OFFCURVE",
"121 -156 CURVE SMOOTH",
"121 -151 LINE"
);
},
{
closed = 1;
nodes = (
"226 100 OFFCURVE",
"202 122 OFFCURVE",
"202 152 CURVE SMOOTH",
"202 183 OFFCURVE",
"226 206 OFFCURVE",
"281 206 CURVE SMOOTH",
"336 206 OFFCURVE",
"360 183 OFFCURVE",
"360 152 CURVE SMOOTH",
"360 122 OFFCURVE",
"336 100 OFFCURVE",
"281 100 CURVE SMOOTH"
);
}
);
width = 635;
},
{
color = -1;
layerId = "719AC85C-8AED-41E6-95C2-58F38387964A";
paths = (
{
closed = 1;
nodes = (
"352 52 OFFCURVE",
"404 99 OFFCURVE",
"404 173 CURVE SMOOTH",
"404 260 OFFCURVE",
"352 314 OFFCURVE",
"270 314 CURVE SMOOTH",
"188 314 OFFCURVE",
"136 263 OFFCURVE",
"136 182 CURVE SMOOTH",
"136 103 OFFCURVE",
"188 52 OFFCURVE",
"270 52 CURVE SMOOTH"
);
},
{
closed = 1;
nodes = (
"48 -123 LINE",
"46 -134 OFFCURVE",
"45 -151 OFFCURVE",
"45 -169 CURVE SMOOTH",
"45 -254 OFFCURVE",
"65 -321 OFFCURVE",
"99 -364 CURVE SMOOTH",
"141 -417 OFFCURVE",
"212 -452 OFFCURVE",
"303 -452 CURVE SMOOTH",
"325 -452 LINE SMOOTH",
"416 -452 OFFCURVE",
"486 -417 OFFCURVE",
"529 -365 CURVE SMOOTH",
"569 -317 OFFCURVE",
"583 -254 OFFCURVE",
"583 -169 CURVE SMOOTH",
"583 273 LINE SMOOTH",
"583 358 OFFCURVE",
"567 420 OFFCURVE",
"529 468 CURVE SMOOTH",
"487 521 OFFCURVE",
"416 556 OFFCURVE",
"325 556 CURVE SMOOTH",
"303 556 LINE SMOOTH",
"212 556 OFFCURVE",
"142 521 OFFCURVE",
"99 468 CURVE SMOOTH",
"61 420 OFFCURVE",
"45 358 OFFCURVE",
"45 273 CURVE SMOOTH",
"45 188 OFFCURVE",
"61 126 OFFCURVE",
"102 73 CURVE SMOOTH",
"139 25 OFFCURVE",
"190 -10 OFFCURVE",
"267 -10 CURVE SMOOTH",
"369 -10 OFFCURVE",
"404 64 OFFCURVE",
"404 173 CURVE",
"379 133 OFFCURVE",
"352 114 OFFCURVE",
"271 114 CURVE SMOOTH",
"163 114 OFFCURVE",
"126 196 OFFCURVE",
"126 254 CURVE SMOOTH",
"126 260 LINE SMOOTH",
"126 351 OFFCURVE",
"217 365 OFFCURVE",
"309 365 CURVE SMOOTH",
"398 365 OFFCURVE",
"493 349 OFFCURVE",
"493 211 CURVE SMOOTH",
"493 -129 LINE SMOOTH",
"493 -245 OFFCURVE",
"403 -261 OFFCURVE",
"310 -261 CURVE SMOOTH",
"216 -261 OFFCURVE",
"126 -245 OFFCURVE",
"126 -126 CURVE SMOOTH",
"126 -123 LINE"
);
},
{
closed = 1;
nodes = (
"218 138 OFFCURVE",
"196 156 OFFCURVE",
"196 182 CURVE SMOOTH",
"196 209 OFFCURVE",
"218 228 OFFCURVE",
"270 228 CURVE SMOOTH",
"322 228 OFFCURVE",
"344 209 OFFCURVE",
"344 182 CURVE SMOOTH",
"344 156 OFFCURVE",
"322 138 OFFCURVE",
"270 138 CURVE SMOOTH"
);
}
);
width = 633;
},
{
color = -1;
layerId = "75CF80E9-B2FC-4BD6-93D9-27AF395083D0";
paths = (
{
closed = 1;
nodes = (
"282 -8 OFFCURVE",
"310 38 OFFCURVE",
"310 100 CURVE SMOOTH",
"310 161 OFFCURVE",
"282 208 OFFCURVE",
"230 208 CURVE SMOOTH",
"177 208 OFFCURVE",
"149 161 OFFCURVE",
"149 100 CURVE SMOOTH",
"149 38 OFFCURVE",
"177 -8 OFFCURVE",
"230 -8 CURVE SMOOTH"
);
},
{
closed = 1;
nodes = (
"72 -195 LINE",
"71 -200 OFFCURVE",
"71 -205 OFFCURVE",
"71 -209 CURVE SMOOTH",
"71 -265 OFFCURVE",
"82 -312 OFFCURVE",
"103 -348 CURVE SMOOTH",
"133 -400 OFFCURVE",
"182 -429 OFFCURVE",
"244 -429 CURVE SMOOTH",
"249 -429 LINE SMOOTH",
"316 -429 OFFCURVE",
"364 -397 OFFCURVE",
"394 -343 CURVE SMOOTH",
"418 -300 OFFCURVE",
"430 -241 OFFCURVE",
"430 -170 CURVE SMOOTH",
"430 261 LINE SMOOTH",
"430 339 OFFCURVE",
"418 406 OFFCURVE",
"391 451 CURVE SMOOTH",
"364 496 OFFCURVE",
"315 528 OFFCURVE",
"256 528 CURVE SMOOTH",
"242 528 LINE SMOOTH",
"183 528 OFFCURVE",
"134 496 OFFCURVE",
"107 451 CURVE SMOOTH",
"80 406 OFFCURVE",
"69 339 OFFCURVE",
"69 260 CURVE SMOOTH",
"69 183 OFFCURVE",
"80 121 OFFCURVE",
"107 72 CURVE SMOOTH",
"132 27 OFFCURVE",
"172 -8 OFFCURVE",
"230 -8 CURVE",
"283 -8 OFFCURVE",
"310 38 OFFCURVE",
"310 100 CURVE",
"303 38 OFFCURVE",
"269 16 OFFCURVE",
"224 16 CURVE SMOOTH",
"139 16 OFFCURVE",
"89 115 OFFCURVE",
"89 252 CURVE SMOOTH",
"89 272 LINE SMOOTH",
"89 424 OFFCURVE",
"143 500 OFFCURVE",
"249 500 CURVE SMOOTH",
"354 500 OFFCURVE",
"408 424 OFFCURVE",
"408 272 CURVE SMOOTH",
"408 -168 LINE SMOOTH",
"408 -317 OFFCURVE",
"353 -401 OFFCURVE",
"246 -401 CURVE SMOOTH",
"146 -401 OFFCURVE",
"90 -331 OFFCURVE",
"90 -208 CURVE SMOOTH",
"90 -195 LINE"
);
},
{
closed = 1;
nodes = (
"187 17 OFFCURVE",
"167 53 OFFCURVE",
"167 100 CURVE SMOOTH",
"167 147 OFFCURVE",
"187 183 OFFCURVE",
"230 183 CURVE SMOOTH",
"273 183 OFFCURVE",
"292 147 OFFCURVE",
"292 100 CURVE SMOOTH",
"292 53 OFFCURVE",
"273 17 OFFCURVE",
"230 17 CURVE SMOOTH"
);
}
);
width = 504;
},
{
color = -1;
layerId = "949D5271-AFC5-4116-8DE3-A7795FBFC928";
paths = (
{
closed = 1;
nodes = (
"276 24 OFFCURVE",
"301 76 OFFCURVE",
"301 152 CURVE SMOOTH",
"301 230 OFFCURVE",
"276 282 OFFCURVE",
"211 282 CURVE SMOOTH",
"146 282 OFFCURVE",
"121 230 OFFCURVE",
"121 152 CURVE SMOOTH",
"121 76 OFFCURVE",
"146 24 OFFCURVE",
"211 24 CURVE SMOOTH"
);
},
{
closed = 1;
nodes = (
"54 -150 LINE",
"53 -153 OFFCURVE",
"52 -160 OFFCURVE",
"52 -164 CURVE SMOOTH",
"52 -250 OFFCURVE",
"63 -312 OFFCURVE",
"90 -358 CURVE SMOOTH",
"121 -410 OFFCURVE",
"172 -441 OFFCURVE",
"236 -441 CURVE SMOOTH",
"252 -441 LINE SMOOTH",
"316 -441 OFFCURVE",
"367 -410 OFFCURVE",
"398 -358 CURVE SMOOTH",
"425 -312 OFFCURVE",
"436 -250 OFFCURVE",
"436 -164 CURVE SMOOTH",
"436 268 LINE SMOOTH",
"436 354 OFFCURVE",
"425 416 OFFCURVE",
"398 462 CURVE SMOOTH",
"367 514 OFFCURVE",
"316 545 OFFCURVE",
"252 545 CURVE SMOOTH",
"236 545 LINE SMOOTH",
"172 545 OFFCURVE",
"121 514 OFFCURVE",
"90 462 CURVE SMOOTH",
"63 416 OFFCURVE",
"52 354 OFFCURVE",
"52 268 CURVE SMOOTH",
"52 182 OFFCURVE",
"59 120 OFFCURVE",
"90 70 CURVE SMOOTH",
"121 19 OFFCURVE",
"160 -9 OFFCURVE",
"207 -9 CURVE SMOOTH",
"274 -9 OFFCURVE",
"301 49 OFFCURVE",
"301 152 CURVE",
"280 121 OFFCURVE",
"256 85 OFFCURVE",
"208 85 CURVE SMOOTH",
"152 85 OFFCURVE",
"114 142 OFFCURVE",
"114 233 CURVE SMOOTH",
"114 275 LINE SMOOTH",
"114 374 OFFCURVE",
"167 421 OFFCURVE",
"242 421 CURVE SMOOTH",
"320 421 OFFCURVE",
"364 365 OFFCURVE",
"364 266 CURVE SMOOTH",
"364 -162 LINE SMOOTH",
"364 -261 OFFCURVE",
"319 -317 OFFCURVE",
"243 -317 CURVE SMOOTH",
"164 -317 OFFCURVE",
"114 -261 OFFCURVE",
"114 -162 CURVE SMOOTH",
"114 -150 LINE"
);
},
{
closed = 1;
nodes = (
"177 100 OFFCURVE",
"163 122 OFFCURVE",
"163 152 CURVE SMOOTH",
"163 183 OFFCURVE",
"177 206 OFFCURVE",
"211 206 CURVE SMOOTH",
"245 206 OFFCURVE",
"259 183 OFFCURVE",
"259 152 CURVE SMOOTH",
"259 122 OFFCURVE",
"245 100 OFFCURVE",
"211 100 CURVE SMOOTH"
);
}
);
width = 494;
},
{
color = -1;
layerId = "89CE42BF-A6C4-4DEE-B312-858F60FB84E5";
paths = (
{
closed = 1;
nodes = (
"265 49 OFFCURVE",
"306 100 OFFCURVE",
"306 179 CURVE SMOOTH",
"306 260 OFFCURVE",
"265 311 OFFCURVE",
"204 311 CURVE SMOOTH",
"143 311 OFFCURVE",
"102 260 OFFCURVE",
"102 179 CURVE SMOOTH",
"102 100 OFFCURVE",
"143 49 OFFCURVE",
"204 49 CURVE SMOOTH"
);
},
{
closed = 1;
nodes = (
"48 -122 LINE",
"45 -134 OFFCURVE",
"43 -155 OFFCURVE",
"43 -169 CURVE SMOOTH",
"43 -258 OFFCURVE",
"57 -319 OFFCURVE",
"80 -361 CURVE SMOOTH",
"112 -419 OFFCURVE",
"168 -449 OFFCURVE",
"234 -449 CURVE SMOOTH",
"252 -449 LINE SMOOTH",
"318 -449 OFFCURVE",
"374 -419 OFFCURVE",
"406 -361 CURVE SMOOTH",
"429 -319 OFFCURVE",
"443 -258 OFFCURVE",
"443 -169 CURVE SMOOTH",
"443 273 LINE SMOOTH",
"443 362 OFFCURVE",
"429 423 OFFCURVE",
"406 465 CURVE SMOOTH",
"374 523 OFFCURVE",
"318 553 OFFCURVE",
"252 553 CURVE SMOOTH",
"234 553 LINE SMOOTH",
"168 553 OFFCURVE",
"112 523 OFFCURVE",
"80 465 CURVE SMOOTH",
"57 423 OFFCURVE",
"43 362 OFFCURVE",
"43 273 CURVE SMOOTH",
"43 188 OFFCURVE",
"55 126 OFFCURVE",
"85 73 CURVE SMOOTH",
"112 25 OFFCURVE",
"150 -7 OFFCURVE",
"201 -7 CURVE SMOOTH",
"280 -7 OFFCURVE",
"306 54 OFFCURVE",
"306 179 CURVE",
"278 125 OFFCURVE",
"243 111 OFFCURVE",
"202 111 CURVE SMOOTH",
"140 111 OFFCURVE",
"117 194 OFFCURVE",
"117 257 CURVE SMOOTH",
"117 271 LINE SMOOTH",
"117 346 OFFCURVE",
"172 373 OFFCURVE",
"240 373 CURVE SMOOTH",
"307 373 OFFCURVE",
"359 337 OFFCURVE",
"359 251 CURVE SMOOTH",
"359 -147 LINE SMOOTH",
"359 -232 OFFCURVE",
"309 -269 OFFCURVE",
"239 -269 CURVE SMOOTH",
"175 -269 OFFCURVE",
"121 -232 OFFCURVE",
"121 -147 CURVE SMOOTH",
"121 -123 LINE"
);
},
{
closed = 1;
nodes = (
"171 134 OFFCURVE",
"156 152 OFFCURVE",
"156 179 CURVE SMOOTH",
"156 207 OFFCURVE",
"171 226 OFFCURVE",
"204 226 CURVE SMOOTH",
"237 226 OFFCURVE",
"252 207 OFFCURVE",
"252 179 CURVE SMOOTH",
"252 152 OFFCURVE",
"237 134 OFFCURVE",
"204 134 CURVE SMOOTH"
);
}
);
width = 491;
},
{
associatedMasterId = "719AC85C-8AED-41E6-95C2-58F38387964A";
layerId = "36301E47-4CC7-4929-8972-43BCE88BEF70";
name = "Bold Sep 23 15, 12:45";
paths = (
{
closed = 1;
nodes = (
"45 -269 LINE",
"45 -354 OFFCURVE",
"61 -416 OFFCURVE",
"99 -464 CURVE SMOOTH",
"142 -517 OFFCURVE",
"212 -552 OFFCURVE",
"303 -552 CURVE SMOOTH",
"325 -552 LINE SMOOTH",
"416 -552 OFFCURVE",
"486 -517 OFFCURVE",
"529 -465 CURVE SMOOTH",
"568 -416 OFFCURVE",
"583 -354 OFFCURVE",
"583 -269 CURVE SMOOTH",
"583 273 LINE SMOOTH",
"583 358 OFFCURVE",
"567 420 OFFCURVE",
"529 468 CURVE SMOOTH",
"487 521 OFFCURVE",
"416 556 OFFCURVE",
"325 556 CURVE SMOOTH",
"303 556 LINE SMOOTH",
"212 556 OFFCURVE",
"142 521 OFFCURVE",
"99 468 CURVE SMOOTH",
"61 420 OFFCURVE",
"45 358 OFFCURVE",
"45 273 CURVE SMOOTH",
"45 188 OFFCURVE",
"61 126 OFFCURVE",
"102 73 CURVE SMOOTH",
"139 25 OFFCURVE",
"193 -10 OFFCURVE",
"270 -10 CURVE SMOOTH",
"358 -10 OFFCURVE",
"433 36 OFFCURVE",
"433 175 CURVE SMOOTH",
"433 267 OFFCURVE",
"401 309 OFFCURVE",
"274 309 CURVE SMOOTH",
"176 309 OFFCURVE",
"128 284 OFFCURVE",
"128 171 CURVE SMOOTH",
"128 146 LINE",
"180 146 LINE",
"180 191 LINE SMOOTH",
"180 225 OFFCURVE",
"206 241 OFFCURVE",
"247 241 CURVE SMOOTH",
"302 241 LINE SMOOTH",
"348 241 OFFCURVE",
"377 234 OFFCURVE",
"377 212 CURVE SMOOTH",
"377 190 OFFCURVE",
"348 182 OFFCURVE",
"302 182 CURVE SMOOTH",
"247 182 LINE SMOOTH",
"143 182 OFFCURVE",
"126 218 OFFCURVE",
"126 261 CURVE SMOOTH",
"126 265 LINE SMOOTH",
"126 353 OFFCURVE",
"217 365 OFFCURVE",
"314 365 CURVE SMOOTH",
"409 365 OFFCURVE",
"502 349 OFFCURVE",
"502 238 CURVE SMOOTH",
"502 -272 LINE SMOOTH",
"502 -345 OFFCURVE",
"410 -361 OFFCURVE",
"314 -361 CURVE SMOOTH",
"218 -361 OFFCURVE",
"126 -345 OFFCURVE",
"126 -272 CURVE SMOOTH",
"126 -269 LINE"
);
}
);
width = 633;
},
{
associatedMasterId = "BE49CA0D-7169-41D2-A70B-CE6F74D40E44";
background = {
paths = (
{
closed = 0;
nodes = (
"575 268 LINE",
"575 351 OFFCURVE",
"560 412 OFFCURVE",
"523 459 CURVE SMOOTH",
"482 512 OFFCURVE",
"414 546 OFFCURVE",
"325 546 CURVE SMOOTH",
"305 546 LINE SMOOTH",
"216 546 OFFCURVE",
"148 512 OFFCURVE",
"107 460 CURVE SMOOTH",
"70 412 OFFCURVE",
"55 349 OFFCURVE",
"55 270 CURVE SMOOTH",
"55 186 OFFCURVE",
"72 125 OFFCURVE",
"107 76 CURVE SMOOTH",
"146 22 OFFCURVE",
"204 -10 OFFCURVE",
"281 -10 CURVE SMOOTH",
"362 -10 OFFCURVE",
"427 24 OFFCURVE",
"427 138 CURVE SMOOTH",
"427 231 OFFCURVE",
"379 273 OFFCURVE",
"260 273 CURVE SMOOTH",
"159 273 OFFCURVE",
"114 253 OFFCURVE",
"109 165 CURVE",
"107 147 LINE",
"150 132 LINE",
"150 150 LINE SMOOTH",
"150 196 OFFCURVE",
"182 205 OFFCURVE",
"240 205 CURVE SMOOTH",
"274 205 LINE SMOOTH",
"332 205 OFFCURVE",
"369 193 OFFCURVE",
"369 163 CURVE SMOOTH",
"369 131 OFFCURVE",
"339 118 OFFCURVE",
"289 118 CURVE SMOOTH",
"254 118 LINE SMOOTH",
"145 118 OFFCURVE",
"121 159 OFFCURVE",
"121 249 CURVE SMOOTH",
"121 273 LINE SMOOTH",
"121 380 OFFCURVE",
"200 418 OFFCURVE",
"314 418 CURVE SMOOTH",
"428 418 OFFCURVE",
"509 380 OFFCURVE",
"509 273 CURVE"
);
},
{
closed = 1;
nodes = (
"575 536 LINE",
"499 536 LINE",
"499 -288 LINE SMOOTH",
"499 -381 OFFCURVE",
"439 -421 OFFCURVE",
"335 -421 CURVE SMOOTH",
"235 -421 OFFCURVE",
"164 -387 OFFCURVE",
"164 -288 CURVE SMOOTH",
"164 -282 LINE",
"104 -282 LINE",
"104 -287 OFFCURVE",
"103 -294 OFFCURVE",
"103 -304 CURVE SMOOTH",
"103 -455 OFFCURVE",
"185 -542 OFFCURVE",
"337 -542 CURVE SMOOTH",
"491 -542 OFFCURVE",
"575 -452 OFFCURVE",
"575 -313 CURVE SMOOTH"
);
}
);
};
layerId = "CAC4A2E8-B5CC-4FCE-9ABD-185BA66FCFB1";
name = "Regular Sep 23 15, 12:45";
paths = (
{
closed = 1;
nodes = (
"55 -264 LINE",
"55 -347 OFFCURVE",
"70 -408 OFFCURVE",
"107 -455 CURVE SMOOTH",
"148 -508 OFFCURVE",
"216 -542 OFFCURVE",
"305 -542 CURVE SMOOTH",
"325 -542 LINE SMOOTH",
"414 -542 OFFCURVE",
"482 -508 OFFCURVE",
"523 -455 CURVE SMOOTH",
"560 -408 OFFCURVE",
"575 -347 OFFCURVE",
"575 -264 CURVE SMOOTH",
"575 268 LINE SMOOTH",
"575 351 OFFCURVE",
"560 412 OFFCURVE",
"523 459 CURVE SMOOTH",
"482 512 OFFCURVE",
"414 546 OFFCURVE",
"325 546 CURVE SMOOTH",
"305 546 LINE SMOOTH",
"216 546 OFFCURVE",
"148 512 OFFCURVE",
"107 460 CURVE SMOOTH",
"70 412 OFFCURVE",
"55 349 OFFCURVE",
"55 270 CURVE SMOOTH",
"55 186 OFFCURVE",
"72 125 OFFCURVE",
"107 76 CURVE SMOOTH",
"146 22 OFFCURVE",
"204 -10 OFFCURVE",
"281 -10 CURVE SMOOTH",
"362 -10 OFFCURVE",
"427 24 OFFCURVE",
"427 138 CURVE SMOOTH",
"427 231 OFFCURVE",
"379 273 OFFCURVE",
"260 273 CURVE SMOOTH",
"159 273 OFFCURVE",
"114 253 OFFCURVE",
"109 165 CURVE",
"107 147 LINE",
"150 132 LINE",
"150 150 LINE SMOOTH",
"150 196 OFFCURVE",
"182 205 OFFCURVE",
"240 205 CURVE SMOOTH",
"274 205 LINE SMOOTH",
"332 205 OFFCURVE",
"369 193 OFFCURVE",
"369 163 CURVE SMOOTH",
"369 131 OFFCURVE",
"339 118 OFFCURVE",
"289 118 CURVE SMOOTH",
"254 118 LINE SMOOTH",
"145 118 OFFCURVE",
"121 159 OFFCURVE",
"121 249 CURVE SMOOTH",
"121 273 LINE SMOOTH",
"121 380 OFFCURVE",
"200 418 OFFCURVE",
"314 418 CURVE SMOOTH",
"428 418 OFFCURVE",
"509 380 OFFCURVE",
"509 273 CURVE SMOOTH",
"509 -269 LINE SMOOTH",
"509 -376 OFFCURVE",
"429 -414 OFFCURVE",
"315 -414 CURVE SMOOTH",
"201 -414 OFFCURVE",
"121 -376 OFFCURVE",
"121 -269 CURVE SMOOTH",
"121 -264 LINE"
);
}
);
width = 635;
},
{
associatedMasterId = "6DF5D8D3-1700-4463-A28F-E0E9C2C73C46";
background = {
paths = (
{
closed = 1;
nodes = (
"587 342 OFFCURVE",
"570 399 OFFCURVE",
"535 444 CURVE SMOOTH",
"494 497 OFFCURVE",
"427 530 OFFCURVE",
"336 530 CURVE SMOOTH",
"322 530 LINE SMOOTH",
"231 530 OFFCURVE",
"165 496 OFFCURVE",
"124 445 CURVE SMOOTH",
"87 399 OFFCURVE",
"71 341 OFFCURVE",
"71 260 CURVE SMOOTH",
"71 179 OFFCURVE",
"87 119 OFFCURVE",
"126 70 CURVE SMOOTH",
"162 25 OFFCURVE",
"220 -10 OFFCURVE",
"303 -10 CURVE SMOOTH",
"364 -10 OFFCURVE",
"427 9 OFFCURVE",
"427 93 CURVE SMOOTH",
"427 170 OFFCURVE",
"374 195 OFFCURVE",
"273 195 CURVE SMOOTH",
"157 195 OFFCURVE",
"113 162 OFFCURVE",
"113 102 CURVE SMOOTH",
"113 97 LINE",
"131 84 LINE",
"131 88 LINE SMOOTH",
"131 146 OFFCURVE",
"168 167 OFFCURVE",
"247 167 CURVE SMOOTH",
"302 167 LINE SMOOTH",
"372 167 OFFCURVE",
"407 146 OFFCURVE",
"407 92 CURVE SMOOTH",
"407 40 OFFCURVE",
"375 18 OFFCURVE",
"305 18 CURVE SMOOTH",
"299 18 LINE SMOOTH",
"169 18 OFFCURVE",
"91 111 OFFCURVE",
"91 252 CURVE SMOOTH",
"91 268 LINE SMOOTH",
"91 411 OFFCURVE",
"173 502 OFFCURVE",
"329 502 CURVE SMOOTH",
"485 502 OFFCURVE",
"567 412 OFFCURVE",
"567 269 CURVE SMOOTH",
"567 -309 LINE SMOOTH",
"567 -429 OFFCURVE",
"505 -496 OFFCURVE",
"381 -496 CURVE SMOOTH",
"255 -496 OFFCURVE",
"188 -429 OFFCURVE",
"188 -309 CURVE SMOOTH",
"188 -288 LINE",
"169 -288 LINE",
"167 -299 OFFCURVE",
"168 -307 OFFCURVE",
"168 -313 CURVE SMOOTH",
"168 -443 OFFCURVE",
"246 -524 OFFCURVE",
"380 -524 CURVE SMOOTH",
"517 -524 OFFCURVE",
"589 -443 OFFCURVE",
"589 -313 CURVE SMOOTH",
"587 263 LINE SMOOTH"
);
}
);
};
layerId = "9E2D34AD-7406-4260-A0E9-B3FEE18800BD";
name = "Light Sep 23 15, 12:45";
paths = (
{
closed = 1;
nodes = (
"71 -254 LINE",
"71 -335 OFFCURVE",
"87 -393 OFFCURVE",
"124 -438 CURVE SMOOTH",
"165 -490 OFFCURVE",
"231 -524 OFFCURVE",
"319 -524 CURVE SMOOTH",
"339 -524 LINE SMOOTH",
"427 -524 OFFCURVE",
"493 -490 OFFCURVE",
"534 -438 CURVE SMOOTH",
"570 -393 OFFCURVE",
"587 -335 OFFCURVE",
"587 -254 CURVE SMOOTH",
"587 263 LINE SMOOTH",
"587 342 OFFCURVE",
"570 399 OFFCURVE",
"535 444 CURVE SMOOTH",
"494 497 OFFCURVE",
"427 530 OFFCURVE",
"336 530 CURVE SMOOTH",
"322 530 LINE SMOOTH",
"231 530 OFFCURVE",
"165 496 OFFCURVE",
"124 445 CURVE SMOOTH",
"87 399 OFFCURVE",
"71 341 OFFCURVE",
"71 260 CURVE SMOOTH",
"71 179 OFFCURVE",
"87 119 OFFCURVE",
"126 70 CURVE SMOOTH",
"162 25 OFFCURVE",
"220 -10 OFFCURVE",
"303 -10 CURVE SMOOTH",
"364 -10 OFFCURVE",
"427 9 OFFCURVE",
"427 93 CURVE SMOOTH",
"427 170 OFFCURVE",
"374 195 OFFCURVE",
"273 195 CURVE SMOOTH",
"157 195 OFFCURVE",
"113 162 OFFCURVE",
"113 102 CURVE SMOOTH",
"113 97 LINE",
"131 84 LINE",
"131 88 LINE SMOOTH",
"131 146 OFFCURVE",
"168 167 OFFCURVE",
"247 167 CURVE SMOOTH",
"302 167 LINE SMOOTH",
"372 167 OFFCURVE",
"407 146 OFFCURVE",
"407 92 CURVE SMOOTH",
"407 40 OFFCURVE",
"375 18 OFFCURVE",
"305 18 CURVE SMOOTH",
"299 18 LINE SMOOTH",
"169 18 OFFCURVE",
"91 111 OFFCURVE",
"91 252 CURVE SMOOTH",
"91 268 LINE SMOOTH",
"91 411 OFFCURVE",
"173 502 OFFCURVE",
"329 502 CURVE SMOOTH",
"485 502 OFFCURVE",
"567 412 OFFCURVE",
"567 269 CURVE SMOOTH",
"567 -262 LINE SMOOTH",
"567 -406 OFFCURVE",
"485 -496 OFFCURVE",
"329 -496 CURVE SMOOTH",
"173 -496 OFFCURVE",
"91 -406 OFFCURVE",
"91 -262 CURVE SMOOTH",
"91 -254 LINE"
);
}
);
width = 663;
}
);
unicode = 1045;
script = myanmar;
category = Number;
subCategory = "Decimal Digit";
},
{
glyphname = seven_m;
lastChange = "2017-02-22 17:31:34 +0000";
layers = (
{
color = -1;
layerId = "6DF5D8D3-1700-4463-A28F-E0E9C2C73C46";
paths = (
{
closed = 1;
nodes = (
"464 -251 LINE",
"464 -273 LINE SMOOTH",
"464 -357 OFFCURVE",
"415 -402 OFFCURVE",
"326 -402 CURVE SMOOTH",
"227 -402 OFFCURVE",
"190 -350 OFFCURVE",
"190 -295 CURVE SMOOTH",
"190 -223 OFFCURVE",
"244 -184 OFFCURVE",
"343 -106 CURVE SMOOTH",
"475 -3 OFFCURVE",
"587 98 OFFCURVE",
"587 260 CURVE SMOOTH",
"587 335 OFFCURVE",
"572 398 OFFCURVE",
"530 449 CURVE SMOOTH",
"492 495 OFFCURVE",
"429 530 OFFCURVE",
"339 530 CURVE SMOOTH",
"319 530 LINE SMOOTH",
"230 530 OFFCURVE",
"166 496 OFFCURVE",
"128 449 CURVE SMOOTH",
"88 399 OFFCURVE",
"71 341 OFFCURVE",
"71 260 CURVE SMOOTH",
"71 178 OFFCURVE",
"88 121 OFFCURVE",
"129 70 CURVE SMOOTH",
"161 30 OFFCURVE",
"207 -1 OFFCURVE",
"273 -10 CURVE",
"273 19 LINE",
"153 37 OFFCURVE",
"91 129 OFFCURVE",
"91 252 CURVE SMOOTH",
"91 268 LINE SMOOTH",
"91 412 OFFCURVE",
"173 502 OFFCURVE",
"329 502 CURVE SMOOTH",
"485 502 OFFCURVE",
"567 412 OFFCURVE",
"567 268 CURVE SMOOTH",
"567 252 LINE SMOOTH",
"567 112 OFFCURVE",
"460 14 OFFCURVE",
"335 -84 CURVE SMOOTH",
"230 -166 OFFCURVE",
"168 -214 OFFCURVE",
"168 -295 CURVE SMOOTH",
"168 -375 OFFCURVE",
"224 -430 OFFCURVE",
"326 -430 CURVE SMOOTH",
"426 -430 OFFCURVE",
"486 -369 OFFCURVE",
"486 -273 CURVE SMOOTH",
"486 -267 OFFCURVE",
"486 -262 OFFCURVE",
"483 -251 CURVE"
);
}
);
width = 658;
},
{
color = -1;
layerId = "BE49CA0D-7169-41D2-A70B-CE6F74D40E44";
paths = (
{
closed = 1;
nodes = (
"461 -222 LINE",
"461 -229 LINE SMOOTH",
"461 -300 OFFCURVE",
"411 -326 OFFCURVE",
"343 -326 CURVE SMOOTH",
"266 -326 OFFCURVE",
"228 -300 OFFCURVE",
"228 -246 CURVE SMOOTH",
"228 -196 OFFCURVE",
"266 -155 OFFCURVE",
"356 -79 CURVE SMOOTH",
"485 29 OFFCURVE",
"575 118 OFFCURVE",
"575 270 CURVE SMOOTH",
"575 347 OFFCURVE",
"561 413 OFFCURVE",
"519 464 CURVE SMOOTH",
"480 512 OFFCURVE",
"417 546 OFFCURVE",
"325 546 CURVE SMOOTH",
"305 546 LINE SMOOTH",
"213 546 OFFCURVE",
"150 512 OFFCURVE",
"111 464 CURVE SMOOTH",
"69 413 OFFCURVE",
"55 347 OFFCURVE",
"55 269 CURVE SMOOTH",
"55 190 OFFCURVE",
"69 124 OFFCURVE",
"111 70 CURVE SMOOTH",
"148 22 OFFCURVE",
"199 -6 OFFCURVE",
"272 -10 CURVE",
"272 118 LINE",
"185 126 OFFCURVE",
"121 160 OFFCURVE",
"121 263 CURVE SMOOTH",
"121 273 LINE SMOOTH",
"121 380 OFFCURVE",
"201 418 OFFCURVE",
"315 418 CURVE SMOOTH",
"423 418 OFFCURVE",
"497 377 OFFCURVE",
"497 256 CURVE SMOOTH",
"497 246 LINE SMOOTH",
"497 145 OFFCURVE",
"431 78 OFFCURVE",
"320 -21 CURVE SMOOTH",
"203 -126 OFFCURVE",
"152 -183 OFFCURVE",
"152 -276 CURVE SMOOTH",
"152 -376 OFFCURVE",
"214 -442 OFFCURVE",
"342 -442 CURVE SMOOTH",
"465 -442 OFFCURVE",
"526 -370 OFFCURVE",
"526 -263 CURVE SMOOTH",
"526 -247 OFFCURVE",
"523 -231 OFFCURVE",
"519 -222 CURVE"
);
}
);
width = 630;
},
{
color = -1;
layerId = "719AC85C-8AED-41E6-95C2-58F38387964A";
paths = (
{
closed = 1;
nodes = (
"454 -209 LINE",
"454 -213 LINE SMOOTH",
"454 -268 OFFCURVE",
"404 -285 OFFCURVE",
"358 -285 CURVE SMOOTH",
"300 -285 OFFCURVE",
"262 -271 OFFCURVE",
"262 -230 CURVE SMOOTH",
"262 -198 OFFCURVE",
"294 -165 OFFCURVE",
"360 -104 CURVE SMOOTH",
"478 3 OFFCURVE",
"583 108 OFFCURVE",
"583 274 CURVE SMOOTH",
"583 343 OFFCURVE",
"571 418 OFFCURVE",
"525 473 CURVE SMOOTH",
"483 523 OFFCURVE",
"415 556 OFFCURVE",
"325 556 CURVE SMOOTH",
"303 556 LINE SMOOTH",
"213 556 OFFCURVE",
"145 523 OFFCURVE",
"103 473 CURVE SMOOTH",
"57 418 OFFCURVE",
"45 343 OFFCURVE",
"45 274 CURVE SMOOTH",
"45 199 OFFCURVE",
"59 127 OFFCURVE",
"104 73 CURVE SMOOTH",
"147 21 OFFCURVE",
"212 -7 OFFCURVE",
"277 -10 CURVE",
"277 182 LINE",
"199 185 OFFCURVE",
"126 206 OFFCURVE",
"126 270 CURVE SMOOTH",
"126 276 LINE SMOOTH",
"126 349 OFFCURVE",
"218 365 OFFCURVE",
"314 365 CURVE SMOOTH",
"402 365 OFFCURVE",
"486 336 OFFCURVE",
"486 239 CURVE SMOOTH",
"486 233 LINE SMOOTH",
"486 137 OFFCURVE",
"418 63 OFFCURVE",
"322 -26 CURVE SMOOTH",
"218 -125 OFFCURVE",
"156 -189 OFFCURVE",
"156 -282 CURVE SMOOTH",
"156 -390 OFFCURVE",
"230 -452 OFFCURVE",
"348 -452 CURVE SMOOTH",
"466 -452 OFFCURVE",
"533 -375 OFFCURVE",
"533 -250 CURVE SMOOTH",
"533 -236 OFFCURVE",
"532 -221 OFFCURVE",
"530 -209 CURVE"
);
}
);
width = 628;
},
{
color = -1;
layerId = "75CF80E9-B2FC-4BD6-93D9-27AF395083D0";
paths = (
{
closed = 1;
nodes = (
"345 -250 LINE",
"345 -272 LINE SMOOTH",
"345 -356 OFFCURVE",
"315 -401 OFFCURVE",
"253 -401 CURVE SMOOTH",
"187 -401 OFFCURVE",
"159 -356 OFFCURVE",
"159 -304 CURVE SMOOTH",
"159 -234 OFFCURVE",
"195 -187 OFFCURVE",
"261 -107 CURVE SMOOTH",
"351 3 OFFCURVE",
"429 98 OFFCURVE",
"429 260 CURVE SMOOTH",
"429 339 OFFCURVE",
"418 406 OFFCURVE",
"391 451 CURVE SMOOTH",
"364 496 OFFCURVE",
"315 528 OFFCURVE",
"256 528 CURVE SMOOTH",
"242 528 LINE SMOOTH",
"183 528 OFFCURVE",
"134 496 OFFCURVE",
"107 451 CURVE SMOOTH",
"80 406 OFFCURVE",
"69 339 OFFCURVE",
"69 260 CURVE SMOOTH",
"69 181 OFFCURVE",
"80 114 OFFCURVE",
"107 69 CURVE SMOOTH",
"131 29 OFFCURVE",
"165 -1 OFFCURVE",
"209 -8 CURVE",
"209 20 LINE",
"129 37 OFFCURVE",
"89 115 OFFCURVE",
"89 248 CURVE SMOOTH",
"89 272 LINE SMOOTH",
"89 424 OFFCURVE",
"143 500 OFFCURVE",
"249 500 CURVE SMOOTH",
"355 500 OFFCURVE",
"409 424 OFFCURVE",
"409 272 CURVE SMOOTH",
"409 252 LINE SMOOTH",
"409 112 OFFCURVE",
"337 20 OFFCURVE",
"253 -82 CURVE SMOOTH",
"181 -171 OFFCURVE",
"137 -224 OFFCURVE",
"137 -304 CURVE SMOOTH",
"137 -383 OFFCURVE",
"180 -429 OFFCURVE",
"254 -429 CURVE SMOOTH",
"328 -429 OFFCURVE",
"365 -368 OFFCURVE",
"365 -272 CURVE SMOOTH",
"365 -262 OFFCURVE",
"364 -255 OFFCURVE",
"363 -250 CURVE"
);
}
);
width = 498;
},
{
color = -1;
layerId = "949D5271-AFC5-4116-8DE3-A7795FBFC928";
paths = (
{
closed = 1;
nodes = (
"337 -228 LINE",
"337 -239 LINE SMOOTH",
"337 -304 OFFCURVE",
"310 -327 OFFCURVE",
"278 -327 CURVE SMOOTH",
"241 -327 OFFCURVE",
"217 -303 OFFCURVE",
"217 -248 CURVE SMOOTH",
"217 -197 OFFCURVE",
"240 -157 OFFCURVE",
"283 -83 CURVE SMOOTH",
"354 31 OFFCURVE",
"436 115 OFFCURVE",
"436 270 CURVE SMOOTH",
"436 354 OFFCURVE",
"425 416 OFFCURVE",
"398 462 CURVE SMOOTH",
"367 514 OFFCURVE",
"316 545 OFFCURVE",
"252 545 CURVE SMOOTH",
"236 545 LINE SMOOTH",
"172 545 OFFCURVE",
"121 514 OFFCURVE",
"90 462 CURVE SMOOTH",
"63 416 OFFCURVE",
"52 354 OFFCURVE",
"52 268 CURVE SMOOTH",
"52 182 OFFCURVE",
"63 120 OFFCURVE",
"90 74 CURVE SMOOTH",
"119 25 OFFCURVE",
"156 -4 OFFCURVE",
"207 -9 CURVE",
"207 117 LINE",
"151 128 OFFCURVE",
"114 179 OFFCURVE",
"114 259 CURVE SMOOTH",
"114 277 LINE SMOOTH",
"114 369 OFFCURVE",
"167 421 OFFCURVE",
"242 421 CURVE SMOOTH",
"316 421 OFFCURVE",
"367 369 OFFCURVE",
"367 277 CURVE SMOOTH",
"367 259 LINE SMOOTH",
"367 150 OFFCURVE",
"319 84 OFFCURVE",
"253 -20 CURVE SMOOTH",
"187 -128 OFFCURVE",
"144 -189 OFFCURVE",
"144 -285 CURVE SMOOTH",
"144 -383 OFFCURVE",
"190 -441 OFFCURVE",
"272 -441 CURVE SMOOTH",
"357 -441 OFFCURVE",
"400 -375 OFFCURVE",
"400 -258 CURVE SMOOTH",
"400 -243 OFFCURVE",
"399 -233 OFFCURVE",
"398 -228 CURVE"
);
}
);
width = 488;
},
{
color = -1;
layerId = "89CE42BF-A6C4-4DEE-B312-858F60FB84E5";
paths = (
{
closed = 1;
nodes = (
"348 -218 LINE",
"348 -225 LINE SMOOTH",
"348 -284 OFFCURVE",
"319 -297 OFFCURVE",
"296 -297 CURVE SMOOTH",
"262 -297 OFFCURVE",
"237 -280 OFFCURVE",
"237 -235 CURVE SMOOTH",
"237 -196 OFFCURVE",
"254 -163 OFFCURVE",
"298 -98 CURVE SMOOTH",
"371 10 OFFCURVE",
"443 108 OFFCURVE",
"443 274 CURVE SMOOTH",
"443 362 OFFCURVE",
"429 423 OFFCURVE",
"406 465 CURVE SMOOTH",
"374 523 OFFCURVE",
"318 553 OFFCURVE",
"252 553 CURVE SMOOTH",
"234 553 LINE SMOOTH",
"168 553 OFFCURVE",
"112 523 OFFCURVE",
"80 465 CURVE SMOOTH",
"57 423 OFFCURVE",
"43 362 OFFCURVE",
"43 273 CURVE SMOOTH",
"43 184 OFFCURVE",
"57 123 OFFCURVE",
"80 81 CURVE SMOOTH",
"113 20 OFFCURVE",
"163 -4 OFFCURVE",
"209 -7 CURVE",
"209 177 LINE",
"167 182 OFFCURVE",
"121 209 OFFCURVE",
"121 269 CURVE SMOOTH",
"121 277 LINE SMOOTH",
"121 344 OFFCURVE",
"178 373 OFFCURVE",
"243 373 CURVE SMOOTH",
"305 373 OFFCURVE",
"357 344 OFFCURVE",
"357 264 CURVE SMOOTH",
"357 257 LINE SMOOTH",
"357 148 OFFCURVE",
"315 70 OFFCURVE",
"251 -23 CURVE SMOOTH",
"180 -126 OFFCURVE",
"133 -193 OFFCURVE",
"133 -289 CURVE SMOOTH",
"133 -383 OFFCURVE",
"191 -449 OFFCURVE",
"283 -449 CURVE SMOOTH",
"377 -449 OFFCURVE",
"425 -377 OFFCURVE",
"425 -258 CURVE SMOOTH",
"425 -244 OFFCURVE",
"424 -230 OFFCURVE",
"421 -218 CURVE"
);
}
);
width = 486;
}
);
leftMetricsKey = wa;
rightMetricsKey = wa;
unicode = 1047;
script = myanmar;
category = Number;
subCategory = "Decimal Digit";
},
{
glyphname = nine_m;
lastChange = "2017-02-22 17:31:34 +0000";
layers = (
{
color = -1;
guideLines = (
{
angle = 56.4303;
position = "{261, 151}";
}
);
layerId = "6DF5D8D3-1700-4463-A28F-E0E9C2C73C46";
paths = (
{
closed = 1;
nodes = (
"370 191 LINE",
"529 212 OFFCURVE",
"592 249 OFFCURVE",
"592 349 CURVE SMOOTH",
"592 446 OFFCURVE",
"509 530 OFFCURVE",
"351 530 CURVE SMOOTH",
"337 530 LINE SMOOTH",
"242 530 OFFCURVE",
"169 497 OFFCURVE",
"128 444 CURVE SMOOTH",
"93 399 OFFCURVE",
"76 342 OFFCURVE",
"76 263 CURVE SMOOTH",
"76 -171 LINE SMOOTH",
"76 -242 OFFCURVE",
"94 -301 OFFCURVE",
"128 -344 CURVE SMOOTH",
"170 -397 OFFCURVE",
"239 -430 OFFCURVE",
"341 -430 CURVE SMOOTH",
"343 -430 LINE SMOOTH",
"433 -430 OFFCURVE",
"504 -401 OFFCURVE",
"546 -350 CURVE SMOOTH",
"576 -314 OFFCURVE",
"592 -266 OFFCURVE",
"592 -210 CURVE SMOOTH",
"592 -206 OFFCURVE",
"592 -201 OFFCURVE",
"591 -196 CURVE",
"571 -196 LINE",
"571 -209 LINE SMOOTH",
"571 -332 OFFCURVE",
"490 -402 OFFCURVE",
"341 -402 CURVE SMOOTH",
"178 -402 OFFCURVE",
"98 -318 OFFCURVE",
"98 -169 CURVE SMOOTH",
"98 269 LINE SMOOTH",
"98 412 OFFCURVE",
"185 502 OFFCURVE",
"344 502 CURVE SMOOTH",
"496 502 OFFCURVE",
"572 435 OFFCURVE",
"572 352 CURVE SMOOTH",
"572 271 OFFCURVE",
"520 231 OFFCURVE",
"397 217 CURVE SMOOTH",
"290 205 OFFCURVE",
"225 190 OFFCURVE",
"225 99 CURVE SMOOTH",
"225 37 OFFCURVE",
"263 -10 OFFCURVE",
"337 -10 CURVE SMOOTH",
"411 -10 OFFCURVE",
"449 37 OFFCURVE",
"449 99 CURVE SMOOTH",
"449 161 OFFCURVE",
"411 206 OFFCURVE",
"337 206 CURVE"
);
},
{
closed = 1;
nodes = (
"274 16 OFFCURVE",
"245 52 OFFCURVE",
"245 99 CURVE SMOOTH",
"245 146 OFFCURVE",
"274 182 OFFCURVE",
"337 182 CURVE SMOOTH",
"400 182 OFFCURVE",
"429 146 OFFCURVE",
"429 99 CURVE SMOOTH",
"429 52 OFFCURVE",
"400 16 OFFCURVE",
"337 16 CURVE SMOOTH"
);
}
);
width = 658;
},
{
color = -1;
guideLines = (
{
angle = 56.4303;
position = "{249, 146}";
},
{
angle = 56.4303;
position = "{209, 199}";
}
);
layerId = "BE49CA0D-7169-41D2-A70B-CE6F74D40E44";
paths = (
{
closed = 1;
nodes = (
"428 181 LINE",
"497 192 OFFCURVE",
"580 223 OFFCURVE",
"580 331 CURVE SMOOTH",
"580 458 OFFCURVE",
"505 546 OFFCURVE",
"334 546 CURVE SMOOTH",
"314 546 LINE SMOOTH",
"221 546 OFFCURVE",
"153 512 OFFCURVE",
"112 459 CURVE SMOOTH",
"75 412 OFFCURVE",
"60 351 OFFCURVE",
"60 268 CURVE SMOOTH",
"60 -164 LINE SMOOTH",
"60 -247 OFFCURVE",
"75 -308 OFFCURVE",
"112 -355 CURVE SMOOTH",
"153 -408 OFFCURVE",
"221 -442 OFFCURVE",
"310 -442 CURVE SMOOTH",
"330 -442 LINE SMOOTH",
"419 -442 OFFCURVE",
"487 -408 OFFCURVE",
"528 -355 CURVE SMOOTH",
"565 -308 OFFCURVE",
"580 -247 OFFCURVE",
"580 -169 CURVE SMOOTH",
"580 -165 OFFCURVE",
"580 -158 OFFCURVE",
"578 -151 CURVE",
"514 -151 LINE",
"514 -156 LINE SMOOTH",
"514 -276 OFFCURVE",
"436 -314 OFFCURVE",
"324 -314 CURVE SMOOTH",
"212 -314 OFFCURVE",
"134 -276 OFFCURVE",
"134 -140 CURVE SMOOTH",
"134 252 LINE SMOOTH",
"134 371 OFFCURVE",
"207 418 OFFCURVE",
"339 418 CURVE SMOOTH",
"445 418 OFFCURVE",
"514 386 OFFCURVE",
"514 333 CURVE SMOOTH",
"514 292 OFFCURVE",
"476 286 OFFCURVE",
"393 283 CURVE SMOOTH",
"251 278 OFFCURVE",
"191 219 OFFCURVE",
"191 120 CURVE SMOOTH",
"191 43 OFFCURVE",
"241 -10 OFFCURVE",
"325 -10 CURVE SMOOTH",
"409 -10 OFFCURVE",
"459 43 OFFCURVE",
"459 120 CURVE SMOOTH",
"459 199 OFFCURVE",
"409 252 OFFCURVE",
"325 252 CURVE"
);
},
{
closed = 1;
nodes = (
"270 68 OFFCURVE",
"246 90 OFFCURVE",
"246 120 CURVE SMOOTH",
"246 151 OFFCURVE",
"270 174 OFFCURVE",
"325 174 CURVE SMOOTH",
"380 174 OFFCURVE",
"404 151 OFFCURVE",
"404 120 CURVE SMOOTH",
"404 90 OFFCURVE",
"380 68 OFFCURVE",
"325 68 CURVE SMOOTH"
);
}
);
width = 630;
},
{
color = -1;
guideLines = (
{
angle = 56.4303;
position = "{206, 198}";
},
{
angle = 56.4303;
position = "{252, 143}";
}
);
layerId = "719AC85C-8AED-41E6-95C2-58F38387964A";
paths = (
{
closed = 1;
nodes = (
"432 167 LINE",
"522 173 OFFCURVE",
"588 220 OFFCURVE",
"588 322 CURVE SMOOTH",
"588 452 OFFCURVE",
"499 556 OFFCURVE",
"330 556 CURVE SMOOTH",
"308 556 LINE SMOOTH",
"217 556 OFFCURVE",
"146 521 OFFCURVE",
"104 468 CURVE SMOOTH",
"66 420 OFFCURVE",
"50 358 OFFCURVE",
"50 273 CURVE SMOOTH",
"50 -169 LINE SMOOTH",
"50 -254 OFFCURVE",
"65 -316 OFFCURVE",
"104 -365 CURVE SMOOTH",
"146 -418 OFFCURVE",
"217 -452 OFFCURVE",
"308 -452 CURVE SMOOTH",
"330 -452 LINE SMOOTH",
"421 -452 OFFCURVE",
"491 -417 OFFCURVE",
"534 -364 CURVE SMOOTH",
"568 -321 OFFCURVE",
"588 -254 OFFCURVE",
"588 -169 CURVE SMOOTH",
"588 -151 OFFCURVE",
"587 -134 OFFCURVE",
"585 -123 CURVE",
"507 -123 LINE",
"507 -126 LINE SMOOTH",
"507 -245 OFFCURVE",
"417 -261 OFFCURVE",
"323 -261 CURVE SMOOTH",
"230 -261 OFFCURVE",
"140 -245 OFFCURVE",
"140 -129 CURVE SMOOTH",
"140 214 LINE SMOOTH",
"140 349 OFFCURVE",
"231 365 OFFCURVE",
"333 365 CURVE SMOOTH",
"467 365 OFFCURVE",
"507 348 OFFCURVE",
"507 321 CURVE SMOOTH",
"507 293 OFFCURVE",
"469 292 OFFCURVE",
"382 286 CURVE SMOOTH",
"258 277 OFFCURVE",
"195 232 OFFCURVE",
"195 124 CURVE SMOOTH",
"195 43 OFFCURVE",
"247 -10 OFFCURVE",
"329 -10 CURVE SMOOTH",
"411 -10 OFFCURVE",
"463 41 OFFCURVE",
"463 120 CURVE SMOOTH",
"463 201 OFFCURVE",
"411 252 OFFCURVE",
"329 252 CURVE"
);
},
{
closed = 1;
nodes = (
"277 76 OFFCURVE",
"255 94 OFFCURVE",
"255 120 CURVE SMOOTH",
"255 147 OFFCURVE",
"277 166 OFFCURVE",
"329 166 CURVE SMOOTH",
"381 166 OFFCURVE",
"403 147 OFFCURVE",
"403 120 CURVE SMOOTH",
"403 94 OFFCURVE",
"381 76 OFFCURVE",
"329 76 CURVE SMOOTH"
);
}
);
width = 628;
},
{
color = -1;
layerId = "75CF80E9-B2FC-4BD6-93D9-27AF395083D0";
paths = (
{
closed = 1;
nodes = (
"286 192 LINE",
"383 212 OFFCURVE",
"433 267 OFFCURVE",
"433 361 CURVE SMOOTH",
"433 456 OFFCURVE",
"377 528 OFFCURVE",
"280 528 CURVE SMOOTH",
"270 528 LINE SMOOTH",
"191 528 OFFCURVE",
"139 495 OFFCURVE",
"110 442 CURVE SMOOTH",
"86 398 OFFCURVE",
"74 341 OFFCURVE",
"74 262 CURVE SMOOTH",
"74 -170 LINE SMOOTH",
"74 -241 OFFCURVE",
"86 -300 OFFCURVE",
"110 -343 CURVE SMOOTH",
"140 -396 OFFCURVE",
"187 -429 OFFCURVE",
"257 -429 CURVE SMOOTH",
"260 -429 LINE SMOOTH",
"322 -429 OFFCURVE",
"371 -400 OFFCURVE",
"401 -349 CURVE SMOOTH",
"422 -313 OFFCURVE",
"433 -265 OFFCURVE",
"433 -209 CURVE SMOOTH",
"433 -205 OFFCURVE",
"433 -200 OFFCURVE",
"432 -195 CURVE",
"414 -195 LINE",
"414 -208 LINE SMOOTH",
"414 -331 OFFCURVE",
"358 -401 OFFCURVE",
"258 -401 CURVE SMOOTH",
"151 -401 OFFCURVE",
"96 -317 OFFCURVE",
"96 -168 CURVE SMOOTH",
"96 268 LINE SMOOTH",
"96 411 OFFCURVE",
"152 500 OFFCURVE",
"276 500 CURVE SMOOTH",
"365 500 OFFCURVE",
"413 444 OFFCURVE",
"413 361 CURVE SMOOTH",
"413 290 OFFCURVE",
"381 231 OFFCURVE",
"277 211 CURVE SMOOTH",
"219 200 OFFCURVE",
"179 181 OFFCURVE",
"179 100 CURVE SMOOTH",
"179 38 OFFCURVE",
"206 -8 OFFCURVE",
"260 -8 CURVE SMOOTH",
"313 -8 OFFCURVE",
"340 38 OFFCURVE",
"340 100 CURVE SMOOTH",
"340 161 OFFCURVE",
"307 206 OFFCURVE",
"256 206 CURVE"
);
},
{
closed = 1;
nodes = (
"216 17 OFFCURVE",
"197 53 OFFCURVE",
"197 100 CURVE SMOOTH",
"197 147 OFFCURVE",
"216 183 OFFCURVE",
"260 183 CURVE SMOOTH",
"304 183 OFFCURVE",
"322 147 OFFCURVE",
"322 100 CURVE SMOOTH",
"322 53 OFFCURVE",
"304 17 OFFCURVE",
"260 17 CURVE SMOOTH"
);
}
);
width = 497;
},
{
color = -1;
layerId = "949D5271-AFC5-4116-8DE3-A7795FBFC928";
paths = (
{
closed = 1;
nodes = (
"332 181 LINE",
"407 192 OFFCURVE",
"443 253 OFFCURVE",
"443 345 CURVE SMOOTH",
"443 460 OFFCURVE",
"393 545 OFFCURVE",
"265 545 CURVE SMOOTH",
"248 545 LINE SMOOTH",
"178 545 OFFCURVE",
"127 514 OFFCURVE",
"96 462 CURVE SMOOTH",
"69 416 OFFCURVE",
"58 354 OFFCURVE",
"58 268 CURVE SMOOTH",
"58 -164 LINE SMOOTH",
"58 -250 OFFCURVE",
"69 -312 OFFCURVE",
"96 -358 CURVE SMOOTH",
"127 -410 OFFCURVE",
"178 -441 OFFCURVE",
"242 -441 CURVE SMOOTH",
"258 -441 LINE SMOOTH",
"322 -441 OFFCURVE",
"373 -410 OFFCURVE",
"404 -358 CURVE SMOOTH",
"431 -312 OFFCURVE",
"442 -250 OFFCURVE",
"442 -164 CURVE SMOOTH",
"442 -160 OFFCURVE",
"441 -153 OFFCURVE",
"440 -150 CURVE",
"380 -150 LINE",
"380 -162 LINE SMOOTH",
"380 -261 OFFCURVE",
"332 -317 OFFCURVE",
"256 -317 CURVE SMOOTH",
"178 -317 OFFCURVE",
"130 -261 OFFCURVE",
"130 -162 CURVE SMOOTH",
"130 265 LINE SMOOTH",
"130 372 OFFCURVE",
"182 421 OFFCURVE",
"272 421 CURVE SMOOTH",
"348 421 OFFCURVE",
"377 388 OFFCURVE",
"377 345 CURVE SMOOTH",
"377 295 OFFCURVE",
"345 275 OFFCURVE",
"285 266 CURVE SMOOTH",
"208 254 OFFCURVE",
"169 218 OFFCURVE",
"169 119 CURVE SMOOTH",
"169 43 OFFCURVE",
"194 -9 OFFCURVE",
"259 -9 CURVE SMOOTH",
"324 -9 OFFCURVE",
"349 43 OFFCURVE",
"349 119 CURVE SMOOTH",
"349 197 OFFCURVE",
"324 249 OFFCURVE",
"259 249 CURVE"
);
},
{
closed = 1;
nodes = (
"225 67 OFFCURVE",
"211 89 OFFCURVE",
"211 119 CURVE SMOOTH",
"211 150 OFFCURVE",
"225 173 OFFCURVE",
"259 173 CURVE SMOOTH",
"293 173 OFFCURVE",
"307 150 OFFCURVE",
"307 119 CURVE SMOOTH",
"307 89 OFFCURVE",
"293 67 OFFCURVE",
"259 67 CURVE SMOOTH"
);
}
);
width = 490;
},
{
color = -1;
layerId = "89CE42BF-A6C4-4DEE-B312-858F60FB84E5";
paths = (
{
closed = 1;
nodes = (
"334 168 LINE",
"402 188 OFFCURVE",
"443 238 OFFCURVE",
"443 345 CURVE SMOOTH",
"443 455 OFFCURVE",
"393 553 OFFCURVE",
"256 553 CURVE SMOOTH",
"244 553 LINE SMOOTH",
"173 553 OFFCURVE",
"117 523 OFFCURVE",
"85 465 CURVE SMOOTH",
"62 423 OFFCURVE",
"48 362 OFFCURVE",
"48 273 CURVE SMOOTH",
"48 -169 LINE SMOOTH",
"48 -258 OFFCURVE",
"62 -319 OFFCURVE",
"85 -361 CURVE SMOOTH",
"117 -419 OFFCURVE",
"173 -449 OFFCURVE",
"239 -449 CURVE SMOOTH",
"257 -449 LINE SMOOTH",
"323 -449 OFFCURVE",
"379 -419 OFFCURVE",
"411 -361 CURVE SMOOTH",
"434 -319 OFFCURVE",
"448 -258 OFFCURVE",
"448 -169 CURVE SMOOTH",
"448 -155 OFFCURVE",
"446 -134 OFFCURVE",
"443 -122 CURVE",
"370 -123 LINE",
"370 -147 LINE SMOOTH",
"370 -232 OFFCURVE",
"318 -269 OFFCURVE",
"258 -269 CURVE SMOOTH",
"184 -269 OFFCURVE",
"132 -232 OFFCURVE",
"132 -147 CURVE SMOOTH",
"132 243 LINE SMOOTH",
"132 338 OFFCURVE",
"186 373 OFFCURVE",
"270 373 CURVE SMOOTH",
"335 373 OFFCURVE",
"365 353 OFFCURVE",
"365 325 CURVE SMOOTH",
"365 297 OFFCURVE",
"338 285 OFFCURVE",
"276 278 CURVE SMOOTH",
"202 270 OFFCURVE",
"154 234 OFFCURVE",
"154 123 CURVE SMOOTH",
"154 44 OFFCURVE",
"194 -7 OFFCURVE",
"256 -7 CURVE SMOOTH",
"318 -7 OFFCURVE",
"358 44 OFFCURVE",
"358 123 CURVE SMOOTH",
"358 204 OFFCURVE",
"317 255 OFFCURVE",
"256 255 CURVE"
);
},
{
closed = 1;
nodes = (
"223 78 OFFCURVE",
"208 96 OFFCURVE",
"208 123 CURVE SMOOTH",
"208 151 OFFCURVE",
"223 170 OFFCURVE",
"256 170 CURVE SMOOTH",
"289 170 OFFCURVE",
"304 151 OFFCURVE",
"304 123 CURVE SMOOTH",
"304 96 OFFCURVE",
"289 78 OFFCURVE",
"256 78 CURVE SMOOTH"
);
}
);
width = 481;
}
);
leftMetricsKey = "=medial_ra";
unicode = 1049;
script = myanmar;
category = Number;
subCategory = "Decimal Digit";
},
{
glyphname = zero_shn;
lastChange = "2017-02-22 17:31:34 +0000";
layers = (
{
color = -1;
layerId = "6DF5D8D3-1700-4463-A28F-E0E9C2C73C46";
paths = (
{
closed = 1;
nodes = (
"592 339 OFFCURVE",
"575 398 OFFCURVE",
"539 444 CURVE SMOOTH",
"498 496 OFFCURVE",
"432 530 OFFCURVE",
"344 530 CURVE SMOOTH",
"324 530 LINE SMOOTH",
"236 530 OFFCURVE",
"170 496 OFFCURVE",
"129 445 CURVE SMOOTH",
"92 398 OFFCURVE",
"76 339 OFFCURVE",
"76 257 CURVE SMOOTH",
"76 -157 LINE SMOOTH",
"76 -239 OFFCURVE",
"92 -298 OFFCURVE",
"129 -344 CURVE SMOOTH",
"170 -396 OFFCURVE",
"236 -430 OFFCURVE",
"324 -430 CURVE SMOOTH",
"344 -430 LINE SMOOTH",
"432 -430 OFFCURVE",
"498 -396 OFFCURVE",
"539 -344 CURVE SMOOTH",
"575 -298 OFFCURVE",
"592 -239 OFFCURVE",
"592 -157 CURVE SMOOTH",
"592 257 LINE SMOOTH"
);
},
{
closed = 1;
nodes = (
"572 -152 LINE SMOOTH",
"572 -311 OFFCURVE",
"490 -402 OFFCURVE",
"334 -402 CURVE SMOOTH",
"178 -402 OFFCURVE",
"96 -311 OFFCURVE",
"96 -152 CURVE SMOOTH",
"96 252 LINE SMOOTH",
"96 410 OFFCURVE",
"178 502 OFFCURVE",
"334 502 CURVE SMOOTH",
"490 502 OFFCURVE",
"572 410 OFFCURVE",
"572 252 CURVE SMOOTH"
);
}
);
width = 668;
},
{
color = -1;
layerId = "BE49CA0D-7169-41D2-A70B-CE6F74D40E44";
paths = (
{
closed = 1;
nodes = (
"580 351 OFFCURVE",
"565 412 OFFCURVE",
"528 459 CURVE SMOOTH",
"487 512 OFFCURVE",
"419 546 OFFCURVE",
"330 546 CURVE SMOOTH",
"310 546 LINE SMOOTH",
"221 546 OFFCURVE",
"153 512 OFFCURVE",
"112 459 CURVE SMOOTH",
"75 412 OFFCURVE",
"60 351 OFFCURVE",
"60 268 CURVE SMOOTH",
"60 -164 LINE SMOOTH",
"60 -247 OFFCURVE",
"75 -308 OFFCURVE",
"112 -355 CURVE SMOOTH",
"153 -408 OFFCURVE",
"221 -442 OFFCURVE",
"310 -442 CURVE SMOOTH",
"330 -442 LINE SMOOTH",
"419 -442 OFFCURVE",
"487 -408 OFFCURVE",
"528 -355 CURVE SMOOTH",
"565 -308 OFFCURVE",
"580 -247 OFFCURVE",
"580 -164 CURVE SMOOTH",
"580 268 LINE SMOOTH"
);
},
{
closed = 1;
nodes = (
"514 -139 LINE SMOOTH",
"514 -262 OFFCURVE",
"434 -314 OFFCURVE",
"320 -314 CURVE SMOOTH",
"206 -314 OFFCURVE",
"126 -262 OFFCURVE",
"126 -139 CURVE SMOOTH",
"126 243 LINE SMOOTH",
"126 366 OFFCURVE",
"206 418 OFFCURVE",
"320 418 CURVE SMOOTH",
"434 418 OFFCURVE",
"514 366 OFFCURVE",
"514 243 CURVE SMOOTH"
);
}
);
width = 640;
},
{
color = -1;
layerId = "719AC85C-8AED-41E6-95C2-58F38387964A";
paths = (
{
closed = 1;
nodes = (
"588 358 OFFCURVE",
"573 420 OFFCURVE",
"534 469 CURVE SMOOTH",
"491 521 OFFCURVE",
"421 556 OFFCURVE",
"330 556 CURVE SMOOTH",
"308 556 LINE SMOOTH",
"217 556 OFFCURVE",
"147 521 OFFCURVE",
"104 469 CURVE SMOOTH",
"65 420 OFFCURVE",
"50 358 OFFCURVE",
"50 273 CURVE SMOOTH",
"50 -169 LINE SMOOTH",
"50 -254 OFFCURVE",
"65 -316 OFFCURVE",
"104 -365 CURVE SMOOTH",
"147 -417 OFFCURVE",
"217 -452 OFFCURVE",
"308 -452 CURVE SMOOTH",
"330 -452 LINE SMOOTH",
"421 -452 OFFCURVE",
"491 -417 OFFCURVE",
"534 -365 CURVE SMOOTH",
"573 -316 OFFCURVE",
"588 -254 OFFCURVE",
"588 -169 CURVE SMOOTH",
"588 273 LINE SMOOTH"
);
},
{
closed = 1;
nodes = (
"498 -114 LINE SMOOTH",
"498 -238 OFFCURVE",
"410 -261 OFFCURVE",
"319 -261 CURVE SMOOTH",
"228 -261 OFFCURVE",
"140 -238 OFFCURVE",
"140 -114 CURVE SMOOTH",
"140 218 LINE SMOOTH",
"140 342 OFFCURVE",
"228 365 OFFCURVE",
"319 365 CURVE SMOOTH",
"410 365 OFFCURVE",
"498 342 OFFCURVE",
"498 218 CURVE SMOOTH"
);
}
);
width = 638;
},
{
color = -1;
layerId = "75CF80E9-B2FC-4BD6-93D9-27AF395083D0";
paths = (
{
closed = 1;
nodes = (
"434 348 OFFCURVE",
"423 407 OFFCURVE",
"398 448 CURVE SMOOTH",
"369 497 OFFCURVE",
"321 528 OFFCURVE",
"258 528 CURVE SMOOTH",
"250 528 LINE SMOOTH",
"187 528 OFFCURVE",
"139 497 OFFCURVE",
"110 448 CURVE SMOOTH",
"85 407 OFFCURVE",
"74 348 OFFCURVE",
"74 277 CURVE SMOOTH",
"74 -178 LINE SMOOTH",
"74 -249 OFFCURVE",
"85 -308 OFFCURVE",
"110 -349 CURVE SMOOTH",
"139 -398 OFFCURVE",
"187 -429 OFFCURVE",
"250 -429 CURVE SMOOTH",
"258 -429 LINE SMOOTH",
"321 -429 OFFCURVE",
"369 -398 OFFCURVE",
"398 -349 CURVE SMOOTH",
"423 -308 OFFCURVE",
"434 -249 OFFCURVE",
"434 -178 CURVE SMOOTH",
"434 277 LINE SMOOTH"
);
},
{
closed = 1;
nodes = (
"413 -183 LINE SMOOTH",
"413 -326 OFFCURVE",
"358 -401 OFFCURVE",
"254 -401 CURVE SMOOTH",
"150 -401 OFFCURVE",
"95 -326 OFFCURVE",
"95 -183 CURVE SMOOTH",
"95 282 LINE SMOOTH",
"95 425 OFFCURVE",
"150 500 OFFCURVE",
"254 500 CURVE SMOOTH",
"358 500 OFFCURVE",
"413 425 OFFCURVE",
"413 282 CURVE SMOOTH"
);
}
);
width = 508;
},
{
color = -1;
layerId = "949D5271-AFC5-4116-8DE3-A7795FBFC928";
paths = (
{
closed = 1;
nodes = (
"442 354 OFFCURVE",
"431 416 OFFCURVE",
"404 462 CURVE SMOOTH",
"373 514 OFFCURVE",
"322 545 OFFCURVE",
"258 545 CURVE SMOOTH",
"242 545 LINE SMOOTH",
"178 545 OFFCURVE",
"127 514 OFFCURVE",
"96 462 CURVE SMOOTH",
"69 416 OFFCURVE",
"58 354 OFFCURVE",
"58 268 CURVE SMOOTH",
"58 -164 LINE SMOOTH",
"58 -250 OFFCURVE",
"69 -312 OFFCURVE",
"96 -358 CURVE SMOOTH",
"127 -410 OFFCURVE",
"178 -441 OFFCURVE",
"242 -441 CURVE SMOOTH",
"258 -441 LINE SMOOTH",
"322 -441 OFFCURVE",
"373 -410 OFFCURVE",
"404 -358 CURVE SMOOTH",
"431 -312 OFFCURVE",
"442 -250 OFFCURVE",
"442 -164 CURVE SMOOTH",
"442 268 LINE SMOOTH"
);
},
{
closed = 1;
nodes = (
"375 -167 LINE SMOOTH",
"375 -268 OFFCURVE",
"323 -318 OFFCURVE",
"250 -318 CURVE SMOOTH",
"177 -318 OFFCURVE",
"125 -268 OFFCURVE",
"125 -167 CURVE SMOOTH",
"125 271 LINE SMOOTH",
"125 372 OFFCURVE",
"177 422 OFFCURVE",
"250 422 CURVE SMOOTH",
"323 422 OFFCURVE",
"375 372 OFFCURVE",
"375 271 CURVE SMOOTH"
);
}
);
width = 500;
},
{
color = -1;
layerId = "89CE42BF-A6C4-4DEE-B312-858F60FB84E5";
paths = (
{
closed = 1;
nodes = (
"448 361 OFFCURVE",
"434 423 OFFCURVE",
"411 465 CURVE SMOOTH",
"379 523 OFFCURVE",
"323 553 OFFCURVE",
"257 553 CURVE SMOOTH",
"239 553 LINE SMOOTH",
"173 553 OFFCURVE",
"117 523 OFFCURVE",
"85 465 CURVE SMOOTH",
"62 423 OFFCURVE",
"48 361 OFFCURVE",
"48 275 CURVE SMOOTH",
"48 -171 LINE SMOOTH",
"48 -257 OFFCURVE",
"62 -319 OFFCURVE",
"85 -361 CURVE SMOOTH",
"117 -419 OFFCURVE",
"173 -449 OFFCURVE",
"239 -449 CURVE SMOOTH",
"257 -449 LINE SMOOTH",
"323 -449 OFFCURVE",
"379 -419 OFFCURVE",
"411 -361 CURVE SMOOTH",
"434 -319 OFFCURVE",
"448 -257 OFFCURVE",
"448 -171 CURVE SMOOTH",
"448 275 LINE SMOOTH"
);
},
{
closed = 1;
nodes = (
"368 -137 LINE SMOOTH",
"368 -237 OFFCURVE",
"311 -269 OFFCURVE",
"248 -269 CURVE SMOOTH",
"185 -269 OFFCURVE",
"128 -237 OFFCURVE",
"128 -137 CURVE SMOOTH",
"128 241 LINE SMOOTH",
"128 341 OFFCURVE",
"185 373 OFFCURVE",
"248 373 CURVE SMOOTH",
"311 373 OFFCURVE",
"368 341 OFFCURVE",
"368 241 CURVE SMOOTH"
);
}
);
width = 496;
}
);
leftMetricsKey = e_mon;
rightMetricsKey = "=|e_mon";
unicode = 1090;
script = myanmar;
category = Number;
subCategory = "Decimal Digit";
},
{
glyphname = one_shn;
lastChange = "2017-02-22 17:31:34 +0000";
layers = (
{
color = -1;
layerId = "6DF5D8D3-1700-4463-A28F-E0E9C2C73C46";
paths = (
{
closed = 1;
nodes = (
"221 520 LINE",
"70 425 LINE",
"70 395 LINE",
"215 486 LINE",
"215 -249 LINE SMOOTH",
"215 -396 OFFCURVE",
"260 -430 OFFCURVE",
"317 -430 CURVE SMOOTH",
"322 -430 OFFCURVE",
"332 -430 OFFCURVE",
"342 -429 CURVE",
"342 -402 LINE",
"322 -402 LINE SMOOTH",
"272 -402 OFFCURVE",
"237 -385 OFFCURVE",
"237 -243 CURVE SMOOTH",
"237 520 LINE"
);
}
);
width = 399;
},
{
color = -1;
guideLines = (
{
angle = 32.1612;
position = "{231, 536}";
}
);
layerId = "BE49CA0D-7169-41D2-A70B-CE6F74D40E44";
paths = (
{
closed = 1;
nodes = (
"228 536 LINE",
"70 437 LINE",
"70 301 LINE",
"215 392 LINE",
"215 -231 LINE SMOOTH",
"215 -384 OFFCURVE",
"270 -442 OFFCURVE",
"386 -442 CURVE SMOOTH",
"392 -442 OFFCURVE",
"396 -442 OFFCURVE",
"402 -441 CURVE",
"402 -313 LINE",
"397 -313 LINE SMOOTH",
"315 -313 OFFCURVE",
"291 -281 OFFCURVE",
"291 -199 CURVE SMOOTH",
"291 536 LINE"
);
}
);
width = 449;
},
{
color = -1;
guideLines = (
{
angle = 195.9;
position = "{225, 533}";
},
{
position = "{420, -452}";
}
);
layerId = "719AC85C-8AED-41E6-95C2-58F38387964A";
paths = (
{
closed = 1;
nodes = (
"234 546 LINE",
"70 443 LINE",
"70 276 LINE",
"217 368 LINE",
"217 -246 LINE SMOOTH",
"217 -386 OFFCURVE",
"266 -452 OFFCURVE",
"420 -452 CURVE SMOOTH",
"425 -452 OFFCURVE",
"431 -452 OFFCURVE",
"436 -451 CURVE",
"436 -260 LINE",
"420 -260 LINE SMOOTH",
"345 -260 OFFCURVE",
"311 -238 OFFCURVE",
"311 -174 CURVE SMOOTH",
"311 546 LINE"
);
}
);
width = 473;
},
{
color = -1;
layerId = "75CF80E9-B2FC-4BD6-93D9-27AF395083D0";
paths = (
{
closed = 1;
nodes = (
"156 520 LINE",
"50 425 LINE",
"50 395 LINE",
"151 486 LINE",
"151 -248 LINE SMOOTH",
"151 -395 OFFCURVE",
"196 -429 OFFCURVE",
"253 -429 CURVE SMOOTH",
"258 -429 OFFCURVE",
"268 -429 OFFCURVE",
"278 -428 CURVE",
"278 -401 LINE",
"258 -401 LINE SMOOTH",
"208 -401 OFFCURVE",
"173 -384 OFFCURVE",
"173 -242 CURVE SMOOTH",
"173 520 LINE"
);
}
);
width = 306;
},
{
color = -1;
layerId = "949D5271-AFC5-4116-8DE3-A7795FBFC928";
paths = (
{
closed = 1;
nodes = (
"161 536 LINE",
"43 437 LINE",
"43 301 LINE",
"146 392 LINE",
"146 -233 LINE SMOOTH",
"146 -389 OFFCURVE",
"190 -441 OFFCURVE",
"281 -441 CURVE SMOOTH",
"291 -441 OFFCURVE",
"296 -440 OFFCURVE",
"300 -439 CURVE",
"301 -312 LINE",
"297 -312 LINE SMOOTH",
"238 -312 OFFCURVE",
"220 -286 OFFCURVE",
"220 -201 CURVE",
"220 536 LINE"
);
}
);
width = 333;
},
{
color = -1;
layerId = "89CE42BF-A6C4-4DEE-B312-858F60FB84E5";
paths = (
{
closed = 1;
nodes = (
"158 546 LINE",
"35 443 LINE",
"35 276 LINE",
"142 368 LINE",
"142 -246 LINE SMOOTH",
"142 -389 OFFCURVE",
"182 -449 OFFCURVE",
"309 -449 CURVE SMOOTH",
"319 -449 OFFCURVE",
"328 -448 OFFCURVE",
"332 -447 CURVE",
"332 -257 LINE",
"316 -257 LINE SMOOTH",
"260 -257 OFFCURVE",
"234 -241 OFFCURVE",
"234 -174 CURVE SMOOTH",
"234 546 LINE"
);
}
);
width = 352;
}
);
rightKerningGroup = one_shn;
unicode = 1091;
script = myanmar;
category = Number;
subCategory = "Decimal Digit";
},
{
glyphname = two_shn;
lastChange = "2017-02-22 17:31:34 +0000";
layers = (
{
color = -1;
guideLines = (
{
angle = 90;
position = "{92, -224}";
},
{
angle = 49.4716;
position = "{185, -345}";
}
);
layerId = "6DF5D8D3-1700-4463-A28F-E0E9C2C73C46";
paths = (
{
closed = 1;
nodes = (
"101 530 LINE",
"95 515 OFFCURVE",
"92 497 OFFCURVE",
"92 482 CURVE SMOOTH",
"92 429 OFFCURVE",
"127 402 OFFCURVE",
"174 402 CURVE SMOOTH",
"265 402 OFFCURVE",
"305 502 OFFCURVE",
"408 502 CURVE SMOOTH",
"513 502 OFFCURVE",
"564 429 OFFCURVE",
"564 321 CURVE SMOOTH",
"564 5 OFFCURVE",
"89 5 OFFCURVE",
"89 -295 CURVE SMOOTH",
"89 -343 OFFCURVE",
"104 -391 OFFCURVE",
"123 -420 CURVE",
"146 -420 LINE",
"147 -417 LINE",
"121 -380 OFFCURVE",
"111 -329 OFFCURVE",
"111 -293 CURVE SMOOTH",
"111 -13 OFFCURVE",
"586 -12 OFFCURVE",
"586 323 CURVE SMOOTH",
"586 444 OFFCURVE",
"523 530 OFFCURVE",
"410 530 CURVE SMOOTH",
"294 530 OFFCURVE",
"262 427 OFFCURVE",
"177 427 CURVE SMOOTH",
"137 427 OFFCURVE",
"114 450 OFFCURVE",
"114 484 CURVE SMOOTH",
"114 502 OFFCURVE",
"118 515 OFFCURVE",
"124 530 CURVE"
);
}
);
width = 657;
},
{
color = -1;
guideLines = (
{
angle = 90;
position = "{50, -388}";
},
{
position = "{420, -451}";
}
);
layerId = "BE49CA0D-7169-41D2-A70B-CE6F74D40E44";
paths = (
{
closed = 1;
nodes = (
"74 546 LINE",
"66 532 OFFCURVE",
"57 506 OFFCURVE",
"57 478 CURVE SMOOTH",
"57 424 OFFCURVE",
"93 370 OFFCURVE",
"178 370 CURVE SMOOTH",
"262 370 OFFCURVE",
"303 423 OFFCURVE",
"384 423 CURVE SMOOTH",
"477 423 OFFCURVE",
"502 353 OFFCURVE",
"502 288 CURVE SMOOTH",
"502 25 OFFCURVE",
"66 19 OFFCURVE",
"66 -290 CURVE SMOOTH",
"66 -356 OFFCURVE",
"86 -404 OFFCURVE",
"109 -432 CURVE",
"227 -432 LINE",
"230 -421 LINE",
"201 -384 OFFCURVE",
"182 -336 OFFCURVE",
"182 -275 CURVE SMOOTH",
"182 -9 OFFCURVE",
"593 -6 OFFCURVE",
"593 309 CURVE SMOOTH",
"593 434 OFFCURVE",
"523 546 OFFCURVE",
"382 546 CURVE SMOOTH",
"275 546 OFFCURVE",
"237 478 OFFCURVE",
"179 478 CURVE SMOOTH",
"151 478 OFFCURVE",
"133 495 OFFCURVE",
"133 529 CURVE SMOOTH",
"133 535 OFFCURVE",
"133 540 OFFCURVE",
"134 546 CURVE"
);
}
);
width = 648;
},
{
color = -1;
guideLines = (
{
angle = 90;
position = "{45, -10}";
},
{
angle = 52.2166;
position = "{412, 81}";
},
{
position = "{409, -271}";
},
{
position = "{420, -452}";
}
);
layerId = "719AC85C-8AED-41E6-95C2-58F38387964A";
paths = (
{
closed = 1;
nodes = (
"72 556 LINE",
"54 533 OFFCURVE",
"46 498 OFFCURVE",
"46 470 CURVE SMOOTH",
"46 386 OFFCURVE",
"104 340 OFFCURVE",
"176 340 CURVE SMOOTH",
"258 340 OFFCURVE",
"309 388 OFFCURVE",
"386 388 CURVE SMOOTH",
"458 388 OFFCURVE",
"503 338 OFFCURVE",
"503 260 CURVE SMOOTH",
"503 -5 OFFCURVE",
"44 0 OFFCURVE",
"44 -311 CURVE SMOOTH",
"44 -367 OFFCURVE",
"60 -414 OFFCURVE",
"80 -442 CURVE",
"255 -442 LINE",
"259 -427 LINE",
"233 -399 OFFCURVE",
"218 -355 OFFCURVE",
"218 -313 CURVE SMOOTH",
"218 -66 OFFCURVE",
"609 -31 OFFCURVE",
"609 309 CURVE SMOOTH",
"609 434 OFFCURVE",
"552 556 OFFCURVE",
"402 556 CURVE SMOOTH",
"301 556 OFFCURVE",
"250 492 OFFCURVE",
"193 492 CURVE SMOOTH",
"158 492 OFFCURVE",
"144 513 OFFCURVE",
"144 543 CURVE SMOOTH",
"144 547 OFFCURVE",
"144 551 OFFCURVE",
"145 556 CURVE"
);
}
);
width = 654;
},
{
color = -1;
layerId = "75CF80E9-B2FC-4BD6-93D9-27AF395083D0";
paths = (
{
closed = 1;
nodes = (
"68 528 LINE",
"62 513 OFFCURVE",
"60 497 OFFCURVE",
"60 482 CURVE SMOOTH",
"60 427 OFFCURVE",
"85 400 OFFCURVE",
"122 400 CURVE SMOOTH",
"194 400 OFFCURVE",
"203 500 OFFCURVE",
"285 500 CURVE SMOOTH",
"355 500 OFFCURVE",
"386 427 OFFCURVE",
"386 327 CURVE SMOOTH",
"386 2 OFFCURVE",
"59 2 OFFCURVE",
"59 -290 CURVE SMOOTH",
"59 -344 OFFCURVE",
"70 -391 OFFCURVE",
"84 -420 CURVE",
"108 -420 LINE",
"109 -417 LINE",
"91 -380 OFFCURVE",
"81 -338 OFFCURVE",
"81 -290 CURVE SMOOTH",
"81 -15 OFFCURVE",
"408 -11 OFFCURVE",
"408 325 CURVE SMOOTH",
"408 441 OFFCURVE",
"369 528 OFFCURVE",
"286 528 CURVE SMOOTH",
"195 528 OFFCURVE",
"187 425 OFFCURVE",
"126 425 CURVE SMOOTH",
"98 425 OFFCURVE",
"81 446 OFFCURVE",
"81 485 CURVE SMOOTH",
"81 499 OFFCURVE",
"83 513 OFFCURVE",
"88 528 CURVE"
);
}
);
width = 477;
},
{
color = -1;
layerId = "949D5271-AFC5-4116-8DE3-A7795FBFC928";
paths = (
{
closed = 1;
nodes = (
"46 546 LINE",
"36 533 OFFCURVE",
"26 503 OFFCURVE",
"26 472 CURVE SMOOTH",
"26 417 OFFCURVE",
"58 370 OFFCURVE",
"118 370 CURVE SMOOTH",
"182 370 OFFCURVE",
"208 423 OFFCURVE",
"270 423 CURVE SMOOTH",
"337 423 OFFCURVE",
"357 362 OFFCURVE",
"357 296 CURVE SMOOTH",
"357 22 OFFCURVE",
"18 8 OFFCURVE",
"18 -309 CURVE SMOOTH",
"18 -361 OFFCURVE",
"27 -406 OFFCURVE",
"41 -432 CURVE",
"168 -432 LINE",
"172 -421 LINE",
"155 -384 OFFCURVE",
"146 -341 OFFCURVE",
"146 -286 CURVE SMOOTH",
"146 5 OFFCURVE",
"433 8 OFFCURVE",
"433 327 CURVE SMOOTH",
"433 438 OFFCURVE",
"401 546 OFFCURVE",
"301 546 CURVE SMOOTH",
"222 546 OFFCURVE",
"196 478 OFFCURVE",
"144 478 CURVE SMOOTH",
"118 478 OFFCURVE",
"107 496 OFFCURVE",
"107 528 CURVE SMOOTH",
"107 536 OFFCURVE",
"108 542 OFFCURVE",
"109 546 CURVE"
);
}
);
width = 485;
},
{
color = -1;
layerId = "89CE42BF-A6C4-4DEE-B312-858F60FB84E5";
paths = (
{
closed = 1;
nodes = (
"44 556 LINE",
"29 533 OFFCURVE",
"21 500 OFFCURVE",
"21 466 CURVE SMOOTH",
"21 388 OFFCURVE",
"64 340 OFFCURVE",
"126 340 CURVE SMOOTH",
"189 340 OFFCURVE",
"217 388 OFFCURVE",
"274 388 CURVE SMOOTH",
"326 388 OFFCURVE",
"354 338 OFFCURVE",
"354 255 CURVE SMOOTH",
"354 -19 OFFCURVE",
"20 -41 OFFCURVE",
"20 -329 CURVE SMOOTH",
"20 -384 OFFCURVE",
"32 -426 OFFCURVE",
"47 -452 CURVE",
"196 -452 LINE",
"200 -437 LINE",
"185 -409 OFFCURVE",
"174 -367 OFFCURVE",
"174 -316 CURVE SMOOTH",
"174 -77 OFFCURVE",
"451 -20 OFFCURVE",
"451 305 CURVE SMOOTH",
"451 435 OFFCURVE",
"410 556 OFFCURVE",
"298 556 CURVE SMOOTH",
"216 556 OFFCURVE",
"185 492 OFFCURVE",
"146 492 CURVE SMOOTH",
"124 492 OFFCURVE",
"118 511 OFFCURVE",
"118 532 CURVE SMOOTH",
"118 540 OFFCURVE",
"119 549 OFFCURVE",
"121 556 CURVE"
);
}
);
width = 494;
}
);
rightMetricsKey = wa;
unicode = 1092;
script = myanmar;
category = Number;
subCategory = "Decimal Digit";
},
{
glyphname = three_shn;
lastChange = "2017-02-22 17:31:34 +0000";
layers = (
{
color = -1;
layerId = "6DF5D8D3-1700-4463-A28F-E0E9C2C73C46";
paths = (
{
closed = 1;
nodes = (
"180 520 LINE",
"180 492 LINE",
"360 492 LINE",
"58 -420 LINE",
"82 -420 LINE",
"388 515 LINE",
"387 520 LINE"
);
},
{
closed = 1;
nodes = (
"220 31 LINE",
"289 31 LINE SMOOTH",
"382 31 OFFCURVE",
"399 -1 OFFCURVE",
"428 -110 CURVE SMOOTH",
"460 -230 OFFCURVE",
"471 -296 OFFCURVE",
"491 -420 CURVE",
"517 -420 LINE",
"500 -311 OFFCURVE",
"473 -191 OFFCURVE",
"449 -105 CURVE SMOOTH",
"416 12 OFFCURVE",
"393 59 OFFCURVE",
"293 59 CURVE SMOOTH",
"229 59 LINE"
);
}
);
width = 582;
},
{
color = -1;
guideLines = (
{
angle = 72.1331;
position = "{95, -432}";
}
);
layerId = "BE49CA0D-7169-41D2-A70B-CE6F74D40E44";
paths = (
{
closed = 1;
nodes = (
"154 536 LINE",
"154 413 LINE",
"303 413 LINE",
"23 -432 LINE",
"103 -432 LINE",
"418 525 LINE",
"415 536 LINE"
);
},
{
closed = 1;
nodes = (
"188 -28 LINE",
"280 -28 LINE SMOOTH",
"362 -28 OFFCURVE",
"396 -37 OFFCURVE",
"425 -149 CURVE SMOOTH",
"448 -238 OFFCURVE",
"458 -333 OFFCURVE",
"470 -432 CURVE",
"564 -432 LINE",
"535 -311 OFFCURVE",
"518 -233 OFFCURVE",
"481 -110 CURVE SMOOTH",
"439 29 OFFCURVE",
"411 100 OFFCURVE",
"312 100 CURVE SMOOTH",
"227 100 LINE"
);
}
);
width = 590;
},
{
color = -1;
guideLines = (
{
angle = 243.063;
position = "{376, -14}";
}
);
layerId = "719AC85C-8AED-41E6-95C2-58F38387964A";
paths = (
{
closed = 1;
nodes = (
"132 546 LINE",
"132 365 LINE",
"290 365 LINE",
"22 -442 LINE",
"112 -442 LINE",
"432 530 LINE",
"428 546 LINE"
);
},
{
closed = 1;
nodes = (
"198 -66 LINE",
"301 -66 LINE SMOOTH",
"386 -66 OFFCURVE",
"411 -82 OFFCURVE",
"432 -160 CURVE SMOOTH",
"455 -244 OFFCURVE",
"467 -360 OFFCURVE",
"474 -442 CURVE",
"584 -442 LINE",
"561 -336 OFFCURVE",
"535 -214 OFFCURVE",
"504 -100 CURVE SMOOTH",
"466 40 OFFCURVE",
"435 115 OFFCURVE",
"339 115 CURVE SMOOTH",
"257 115 LINE"
);
}
);
width = 606;
},
{
color = -1;
layerId = "75CF80E9-B2FC-4BD6-93D9-27AF395083D0";
paths = (
{
closed = 1;
nodes = (
"109 520 LINE",
"109 492 LINE",
"243 492 LINE",
"39 -421 LINE",
"59 -421 LINE",
"269 515 LINE",
"268 520 LINE"
);
},
{
closed = 1;
nodes = (
"149 30 LINE",
"195 30 LINE SMOOTH",
"262 30 OFFCURVE",
"278 -2 OFFCURVE",
"297 -111 CURVE SMOOTH",
"319 -231 OFFCURVE",
"327 -297 OFFCURVE",
"340 -421 CURVE",
"362 -421 LINE",
"349 -312 OFFCURVE",
"335 -192 OFFCURVE",
"317 -106 CURVE SMOOTH",
"291 14 OFFCURVE",
"274 58 OFFCURVE",
"201 58 CURVE SMOOTH",
"158 58 LINE"
);
}
);
width = 406;
},
{
color = -1;
layerId = "949D5271-AFC5-4116-8DE3-A7795FBFC928";
paths = (
{
closed = 1;
nodes = (
"79 536 LINE",
"79 413 LINE",
"211 413 LINE",
"20 -432 LINE",
"93 -432 LINE",
"309 525 LINE",
"306 536 LINE"
);
},
{
closed = 1;
nodes = (
"144 -24 LINE",
"216 -24 LINE SMOOTH",
"281 -24 OFFCURVE",
"295 -50 OFFCURVE",
"309 -155 CURVE SMOOTH",
"321 -245 OFFCURVE",
"328 -333 OFFCURVE",
"333 -432 CURVE",
"418 -432 LINE",
"403 -311 OFFCURVE",
"386 -233 OFFCURVE",
"363 -110 CURVE SMOOTH",
"338 27 OFFCURVE",
"317 100 OFFCURVE",
"245 100 CURVE SMOOTH",
"197 100 LINE"
);
}
);
width = 444;
},
{
color = -1;
guideLines = (
{
angle = 77.3028;
position = "{4, -442}";
}
);
layerId = "89CE42BF-A6C4-4DEE-B312-858F60FB84E5";
paths = (
{
closed = 1;
nodes = (
"72 546 LINE",
"72 365 LINE",
"189 365 LINE",
"7 -442 LINE",
"92 -442 LINE",
"311 530 LINE",
"307 546 LINE"
);
},
{
closed = 1;
nodes = (
"136 -65 LINE",
"216 -65 LINE SMOOTH",
"280 -65 OFFCURVE",
"301 -83 OFFCURVE",
"313 -163 CURVE SMOOTH",
"326 -244 OFFCURVE",
"332 -360 OFFCURVE",
"336 -442 CURVE",
"445 -442 LINE",
"427 -336 OFFCURVE",
"408 -214 OFFCURVE",
"384 -100 CURVE SMOOTH",
"352 50 OFFCURVE",
"329 115 OFFCURVE",
"256 115 CURVE SMOOTH",
"196 115 LINE"
);
}
);
width = 455;
}
);
unicode = 1093;
script = myanmar;
category = Number;
subCategory = "Decimal Digit";
},
{
glyphname = four_shn;
lastChange = "2017-02-22 17:31:34 +0000";
layers = (
{
color = -1;
layerId = "6DF5D8D3-1700-4463-A28F-E0E9C2C73C46";
paths = (
{
closed = 1;
nodes = (
"180 520 LINE",
"180 492 LINE",
"350 492 LINE",
"147 -329 LINE SMOOTH",
"130 -397 OFFCURVE",
"100 -402 OFFCURVE",
"62 -402 CURVE SMOOTH",
"57 -402 OFFCURVE",
"53 -402 OFFCURVE",
"46 -400 CURVE",
"39 -426 LINE",
"47 -429 OFFCURVE",
"56 -430 OFFCURVE",
"65 -430 CURVE SMOOTH",
"114 -430 OFFCURVE",
"149 -414 OFFCURVE",
"167 -339 CURVE SMOOTH",
"374 502 LINE",
"369 502 LINE",
"576 -339 LINE SMOOTH",
"594 -414 OFFCURVE",
"629 -430 OFFCURVE",
"678 -430 CURVE SMOOTH",
"687 -430 OFFCURVE",
"696 -429 OFFCURVE",
"704 -426 CURVE",
"697 -400 LINE",
"690 -402 OFFCURVE",
"686 -402 OFFCURVE",
"681 -402 CURVE SMOOTH",
"643 -402 OFFCURVE",
"613 -397 OFFCURVE",
"596 -329 CURVE SMOOTH",
"387 520 LINE"
);
}
);
width = 729;
},
{
color = -1;
layerId = "BE49CA0D-7169-41D2-A70B-CE6F74D40E44";
paths = (
{
closed = 1;
nodes = (
"172 536 LINE",
"172 413 LINE",
"317 413 LINE",
"158 -231 LINE SMOOTH",
"142 -296 OFFCURVE",
"123 -314 OFFCURVE",
"85 -314 CURVE SMOOTH",
"75 -314 OFFCURVE",
"66 -313 OFFCURVE",
"56 -310 CURVE",
"24 -435 LINE",
"42 -440 OFFCURVE",
"58 -442 OFFCURVE",
"85 -442 CURVE SMOOTH",
"151 -442 OFFCURVE",
"190 -403 OFFCURVE",
"207 -334 CURVE SMOOTH",
"409 495 LINE",
"371 495 LINE",
"573 -334 LINE SMOOTH",
"590 -403 OFFCURVE",
"629 -442 OFFCURVE",
"695 -442 CURVE SMOOTH",
"722 -442 OFFCURVE",
"738 -440 OFFCURVE",
"756 -435 CURVE",
"724 -310 LINE",
"714 -313 OFFCURVE",
"705 -314 OFFCURVE",
"695 -314 CURVE SMOOTH",
"657 -314 OFFCURVE",
"638 -296 OFFCURVE",
"622 -231 CURVE SMOOTH",
"433 536 LINE"
);
}
);
width = 757;
},
{
color = -1;
layerId = "719AC85C-8AED-41E6-95C2-58F38387964A";
paths = (
{
closed = 1;
nodes = (
"156 546 LINE",
"156 365 LINE",
"322 365 LINE",
"187 -177 LINE SMOOTH",
"171 -242 OFFCURVE",
"148 -260 OFFCURVE",
"102 -260 CURVE SMOOTH",
"93 -260 OFFCURVE",
"82 -259 OFFCURVE",
"71 -256 CURVE",
"23 -445 LINE",
"45 -450 OFFCURVE",
"68 -452 OFFCURVE",
"90 -452 CURVE SMOOTH",
"175 -452 OFFCURVE",
"216 -420 OFFCURVE",
"237 -334 CURVE SMOOTH",
"443 505 LINE",
"375 505 LINE",
"581 -334 LINE SMOOTH",
"602 -420 OFFCURVE",
"643 -452 OFFCURVE",
"728 -452 CURVE SMOOTH",
"750 -452 OFFCURVE",
"773 -450 OFFCURVE",
"795 -445 CURVE",
"747 -256 LINE",
"736 -259 OFFCURVE",
"725 -260 OFFCURVE",
"716 -260 CURVE SMOOTH",
"670 -260 OFFCURVE",
"647 -242 OFFCURVE",
"631 -177 CURVE SMOOTH",
"452 546 LINE"
);
}
);
width = 798;
},
{
color = -1;
guideLines = (
{
angle = 80.615;
position = "{236, 492}";
},
{
angle = 99.385;
position = "{271, 523}";
}
);
layerId = "75CF80E9-B2FC-4BD6-93D9-27AF395083D0";
paths = (
{
closed = 1;
nodes = (
"112 520 LINE",
"112 492 LINE",
"236 492 LINE",
"100 -329 LINE SMOOTH",
"89 -397 OFFCURVE",
"69 -402 OFFCURVE",
"36 -402 CURVE SMOOTH",
"32 -402 OFFCURVE",
"29 -402 OFFCURVE",
"24 -400 CURVE",
"16 -426 LINE",
"23 -429 OFFCURVE",
"30 -430 OFFCURVE",
"38 -430 CURVE SMOOTH",
"80 -430 OFFCURVE",
"107 -414 OFFCURVE",
"119 -339 CURVE SMOOTH",
"258 502 LINE",
"253 502 LINE",
"392 -339 LINE SMOOTH",
"404 -414 OFFCURVE",
"432 -430 OFFCURVE",
"474 -430 CURVE SMOOTH",
"482 -430 OFFCURVE",
"490 -429 OFFCURVE",
"496 -426 CURVE",
"489 -400 LINE",
"484 -402 OFFCURVE",
"480 -402 OFFCURVE",
"476 -402 CURVE SMOOTH",
"444 -402 OFFCURVE",
"423 -397 OFFCURVE",
"412 -329 CURVE SMOOTH",
"271 520 LINE"
);
}
);
width = 508;
},
{
color = -1;
guideLines = (
{
angle = 180;
position = "{165, 413}";
}
);
layerId = "949D5271-AFC5-4116-8DE3-A7795FBFC928";
paths = (
{
closed = 1;
nodes = (
"105 536 LINE",
"105 413 LINE",
"227 413 LINE",
"121 -230 LINE SMOOTH",
"110 -295 OFFCURVE",
"90 -313 OFFCURVE",
"54 -313 CURVE SMOOTH",
"48 -313 OFFCURVE",
"39 -312 OFFCURVE",
"31 -309 CURVE",
"6 -434 LINE",
"25 -439 OFFCURVE",
"47 -441 OFFCURVE",
"60 -441 CURVE SMOOTH",
"130 -441 OFFCURVE",
"162 -403 OFFCURVE",
"173 -333 CURVE SMOOTH",
"304 495 LINE",
"278 495 LINE",
"410 -333 LINE SMOOTH",
"421 -403 OFFCURVE",
"453 -441 OFFCURVE",
"523 -441 CURVE SMOOTH",
"536 -441 OFFCURVE",
"558 -439 OFFCURVE",
"577 -434 CURVE",
"552 -309 LINE",
"544 -312 OFFCURVE",
"535 -313 OFFCURVE",
"529 -313 CURVE SMOOTH",
"493 -313 OFFCURVE",
"474 -295 OFFCURVE",
"463 -230 CURVE SMOOTH",
"337 536 LINE"
);
}
);
width = 583;
},
{
color = -1;
guideLines = (
{
angle = 180;
position = "{174, 365}";
},
{
angle = 80.8269;
position = "{237, 365}";
}
);
layerId = "89CE42BF-A6C4-4DEE-B312-858F60FB84E5";
paths = (
{
closed = 1;
nodes = (
"115 546 LINE",
"115 365 LINE",
"237 365 LINE",
"144 -174 LINE SMOOTH",
"133 -239 OFFCURVE",
"117 -257 OFFCURVE",
"81 -257 CURVE SMOOTH",
"70 -257 OFFCURVE",
"52 -256 OFFCURVE",
"39 -253 CURVE",
"6 -442 LINE",
"30 -447 OFFCURVE",
"55 -449 OFFCURVE",
"79 -449 CURVE SMOOTH",
"153 -449 OFFCURVE",
"186 -417 OFFCURVE",
"200 -331 CURVE SMOOTH",
"335 505 LINE",
"291 505 LINE",
"426 -331 LINE SMOOTH",
"440 -417 OFFCURVE",
"473 -449 OFFCURVE",
"547 -449 CURVE SMOOTH",
"571 -449 OFFCURVE",
"596 -447 OFFCURVE",
"620 -442 CURVE",
"587 -253 LINE",
"574 -256 OFFCURVE",
"556 -257 OFFCURVE",
"545 -257 CURVE SMOOTH",
"509 -257 OFFCURVE",
"493 -239 OFFCURVE",
"481 -174 CURVE SMOOTH",
"355 546 LINE"
);
}
);
width = 618;
}
);
rightKerningGroup = one_shn;
unicode = 1094;
script = myanmar;
category = Number;
subCategory = "Decimal Digit";
},
{
glyphname = six_shn;
lastChange = "2017-02-22 17:31:34 +0000";
layers = (
{
color = -1;
layerId = "6DF5D8D3-1700-4463-A28F-E0E9C2C73C46";
paths = (
{
closed = 1;
nodes = (
"352 28 LINE SMOOTH",
"174 28 OFFCURVE",
"91 112 OFFCURVE",
"91 252 CURVE SMOOTH",
"91 268 LINE SMOOTH",
"91 411 OFFCURVE",
"171 502 OFFCURVE",
"326 502 CURVE SMOOTH",
"474 502 OFFCURVE",
"551 406 OFFCURVE",
"551 255 CURVE SMOOTH",
"551 250 LINE SMOOTH",
"551 86 OFFCURVE",
"478 -193 OFFCURVE",
"402 -420 CURVE",
"427 -420 LINE",
"501 -202 OFFCURVE",
"571 83 OFFCURVE",
"571 247 CURVE SMOOTH",
"571 422 OFFCURVE",
"487 530 OFFCURVE",
"336 530 CURVE SMOOTH",
"316 530 LINE SMOOTH",
"228 530 OFFCURVE",
"165 496 OFFCURVE",
"124 445 CURVE SMOOTH",
"87 399 OFFCURVE",
"71 341 OFFCURVE",
"71 260 CURVE SMOOTH",
"71 97 OFFCURVE",
"161 0 OFFCURVE",
"350 0 CURVE SMOOTH",
"637 0 LINE",
"637 28 LINE"
);
}
);
width = 655;
},
{
color = -1;
guideLines = (
{
position = "{309, -432}";
}
);
layerId = "BE49CA0D-7169-41D2-A70B-CE6F74D40E44";
paths = (
{
closed = 1;
nodes = (
"315 112 LINE SMOOTH",
"196 112 OFFCURVE",
"121 155 OFFCURVE",
"121 263 CURVE SMOOTH",
"121 273 LINE SMOOTH",
"121 380 OFFCURVE",
"201 418 OFFCURVE",
"313 418 CURVE SMOOTH",
"423 418 OFFCURVE",
"490 380 OFFCURVE",
"490 261 CURVE SMOOTH",
"490 251 LINE SMOOTH",
"490 52 OFFCURVE",
"400 -201 OFFCURVE",
"309 -432 CURVE",
"446 -432 LINE",
"503 -210 OFFCURVE",
"556 86 OFFCURVE",
"556 253 CURVE SMOOTH",
"556 442 OFFCURVE",
"489 546 OFFCURVE",
"324 546 CURVE SMOOTH",
"305 546 LINE SMOOTH",
"216 546 OFFCURVE",
"148 512 OFFCURVE",
"107 459 CURVE SMOOTH",
"70 411 OFFCURVE",
"55 349 OFFCURVE",
"55 265 CURVE SMOOTH",
"55 90 OFFCURVE",
"140 -11 OFFCURVE",
"305 -11 CURVE SMOOTH",
"643 -11 LINE",
"643 112 LINE"
);
}
);
width = 687;
},
{
color = -1;
layerId = "719AC85C-8AED-41E6-95C2-58F38387964A";
paths = (
{
closed = 1;
nodes = (
"310 171 LINE SMOOTH",
"218 171 OFFCURVE",
"126 188 OFFCURVE",
"126 265 CURVE SMOOTH",
"126 271 LINE SMOOTH",
"126 348 OFFCURVE",
"218 365 OFFCURVE",
"314 365 CURVE SMOOTH",
"410 365 OFFCURVE",
"502 348 OFFCURVE",
"502 237 CURVE SMOOTH",
"502 231 LINE SMOOTH",
"502 59 OFFCURVE",
"403 -202 OFFCURVE",
"303 -442 CURVE",
"471 -442 LINE",
"529 -211 OFFCURVE",
"583 99 OFFCURVE",
"583 273 CURVE SMOOTH",
"583 451 OFFCURVE",
"499 556 OFFCURVE",
"331 556 CURVE SMOOTH",
"303 556 LINE SMOOTH",
"212 556 OFFCURVE",
"142 521 OFFCURVE",
"99 469 CURVE SMOOTH",
"59 421 OFFCURVE",
"45 358 OFFCURVE",
"45 273 CURVE SMOOTH",
"45 90 OFFCURVE",
"136 -10 OFFCURVE",
"311 -10 CURVE SMOOTH",
"665 -10 LINE",
"665 171 LINE"
);
}
);
width = 708;
},
{
color = -1;
layerId = "75CF80E9-B2FC-4BD6-93D9-27AF395083D0";
paths = (
{
closed = 1;
nodes = (
"249 28 LINE SMOOTH",
"143 28 OFFCURVE",
"89 101 OFFCURVE",
"89 248 CURVE SMOOTH",
"89 272 LINE SMOOTH",
"89 424 OFFCURVE",
"143 500 OFFCURVE",
"249 500 CURVE SMOOTH",
"348 500 OFFCURVE",
"398 424 OFFCURVE",
"398 272 CURVE SMOOTH",
"398 250 LINE SMOOTH",
"398 72 OFFCURVE",
"347 -193 OFFCURVE",
"293 -420 CURVE",
"318 -420 LINE",
"369 -198 OFFCURVE",
"418 79 OFFCURVE",
"418 260 CURVE SMOOTH",
"418 409 OFFCURVE",
"377 528 OFFCURVE",
"256 528 CURVE SMOOTH",
"242 528 LINE SMOOTH",
"183 528 OFFCURVE",
"134 496 OFFCURVE",
"107 451 CURVE SMOOTH",
"80 406 OFFCURVE",
"69 339 OFFCURVE",
"69 260 CURVE SMOOTH",
"69 115 OFFCURVE",
"113 0 OFFCURVE",
"242 0 CURVE SMOOTH",
"465 0 LINE",
"465 28 LINE"
);
}
);
width = 483;
},
{
color = -1;
layerId = "949D5271-AFC5-4116-8DE3-A7795FBFC928";
paths = (
{
closed = 1;
nodes = (
"244 114 LINE SMOOTH",
"168 114 OFFCURVE",
"114 167 OFFCURVE",
"114 259 CURVE SMOOTH",
"114 277 LINE SMOOTH",
"114 369 OFFCURVE",
"168 421 OFFCURVE",
"244 421 CURVE SMOOTH",
"320 421 OFFCURVE",
"374 368 OFFCURVE",
"374 275 CURVE SMOOTH",
"374 257 LINE SMOOTH",
"374 48 OFFCURVE",
"299 -202 OFFCURVE",
"222 -432 CURVE",
"357 -432 LINE",
"398 -206 OFFCURVE",
"436 92 OFFCURVE",
"436 266 CURVE SMOOTH",
"436 425 OFFCURVE",
"389 545 OFFCURVE",
"252 545 CURVE SMOOTH",
"236 545 LINE SMOOTH",
"172 545 OFFCURVE",
"121 514 OFFCURVE",
"90 462 CURVE SMOOTH",
"63 416 OFFCURVE",
"52 354 OFFCURVE",
"52 268 CURVE SMOOTH",
"52 110 OFFCURVE",
"99 -9 OFFCURVE",
"236 -9 CURVE SMOOTH",
"502 -9 LINE",
"502 114 LINE"
);
}
);
width = 546;
},
{
color = -1;
layerId = "89CE42BF-A6C4-4DEE-B312-858F60FB84E5";
paths = (
{
closed = 1;
nodes = (
"243 162 LINE SMOOTH",
"178 162 OFFCURVE",
"121 193 OFFCURVE",
"121 263 CURVE SMOOTH",
"121 272 LINE SMOOTH",
"121 342 OFFCURVE",
"178 373 OFFCURVE",
"243 373 CURVE SMOOTH",
"292 373 OFFCURVE",
"365 355 OFFCURVE",
"365 235 CURVE SMOOTH",
"365 229 LINE SMOOTH",
"365 49 OFFCURVE",
"287 -202 OFFCURVE",
"209 -442 CURVE",
"371 -442 LINE",
"409 -211 OFFCURVE",
"443 89 OFFCURVE",
"443 273 CURVE SMOOTH",
"443 434 OFFCURVE",
"394 553 OFFCURVE",
"252 553 CURVE SMOOTH",
"234 553 LINE SMOOTH",
"168 553 OFFCURVE",
"112 523 OFFCURVE",
"80 465 CURVE SMOOTH",
"57 423 OFFCURVE",
"43 362 OFFCURVE",
"43 273 CURVE SMOOTH",
"43 112 OFFCURVE",
"92 -7 OFFCURVE",
"234 -7 CURVE SMOOTH",
"507 -7 LINE",
"507 162 LINE"
);
}
);
width = 552;
}
);
leftMetricsKey = wa;
unicode = 1096;
script = myanmar;
category = Number;
subCategory = "Decimal Digit";
},
{
glyphname = seven_shn;
lastChange = "2017-02-22 17:31:34 +0000";
layers = (
{
color = -1;
guideLines = (
{
angle = 57.8507;
position = "{342, 6}";
},
{
angle = 57.8099;
position = "{314, 4}";
}
);
layerId = "6DF5D8D3-1700-4463-A28F-E0E9C2C73C46";
paths = (
{
closed = 1;
nodes = (
"573 482 OFFCURVE",
"498 530 OFFCURVE",
"348 530 CURVE SMOOTH",
"311 530 LINE SMOOTH",
"136 530 OFFCURVE",
"72 474 OFFCURVE",
"72 369 CURVE SMOOTH",
"72 366 OFFCURVE",
"72 363 OFFCURVE",
"72 360 CURVE",
"92 360 LINE",
"92 453 OFFCURVE",
"141 502 OFFCURVE",
"332 502 CURVE SMOOTH",
"457 502 OFFCURVE",
"535 482 OFFCURVE",
"575 423 CURVE",
"62 -396 LINE",
"107 -421 OFFCURVE",
"183 -430 OFFCURVE",
"262 -430 CURVE SMOOTH",
"448 -430 OFFCURVE",
"509 -380 OFFCURVE",
"509 -272 CURVE SMOOTH",
"509 -267 OFFCURVE",
"509 -263 OFFCURVE",
"509 -260 CURVE",
"489 -260 LINE",
"489 -357 OFFCURVE",
"433 -402 OFFCURVE",
"264 -402 CURVE SMOOTH",
"207 -402 OFFCURVE",
"140 -397 OFFCURVE",
"99 -381 CURVE",
"602 425 LINE"
);
}
);
width = 659;
},
{
color = -1;
layerId = "BE49CA0D-7169-41D2-A70B-CE6F74D40E44";
paths = (
{
closed = 1;
nodes = (
"575 496 OFFCURVE",
"493 546 OFFCURVE",
"333 546 CURVE SMOOTH",
"294 546 LINE SMOOTH",
"104 546 OFFCURVE",
"36 485 OFFCURVE",
"36 368 CURVE SMOOTH",
"36 354 OFFCURVE",
"38 335 OFFCURVE",
"42 320 CURVE",
"105 320 LINE",
"105 399 OFFCURVE",
"162 418 OFFCURVE",
"281 418 CURVE SMOOTH",
"405 418 OFFCURVE",
"463 397 OFFCURVE",
"485 368 CURVE",
"24 -405 LINE",
"73 -432 OFFCURVE",
"154 -442 OFFCURVE",
"241 -442 CURVE SMOOTH",
"440 -442 OFFCURVE",
"505 -388 OFFCURVE",
"505 -268 CURVE SMOOTH",
"505 -253 OFFCURVE",
"504 -235 OFFCURVE",
"500 -220 CURVE",
"438 -220 LINE",
"438 -300 OFFCURVE",
"381 -316 OFFCURVE",
"260 -316 CURVE SMOOTH",
"217 -316 OFFCURVE",
"189 -314 OFFCURVE",
"163 -309 CURVE",
"606 432 LINE"
);
}
);
width = 623;
},
{
color = -1;
layerId = "719AC85C-8AED-41E6-95C2-58F38387964A";
paths = (
{
closed = 1;
nodes = (
"617 515 OFFCURVE",
"532 556 OFFCURVE",
"362 556 CURVE SMOOTH",
"333 556 LINE SMOOTH",
"145 556 OFFCURVE",
"52 490 OFFCURVE",
"52 364 CURVE SMOOTH",
"52 329 OFFCURVE",
"56 294 OFFCURVE",
"62 271 CURVE",
"130 271 LINE",
"130 338 OFFCURVE",
"185 365 OFFCURVE",
"312 365 CURVE SMOOTH",
"413 365 OFFCURVE",
"464 349 OFFCURVE",
"490 334 CURVE",
"45 -412 LINE",
"101 -443 OFFCURVE",
"178 -452 OFFCURVE",
"292 -452 CURVE SMOOTH",
"484 -452 OFFCURVE",
"553 -390 OFFCURVE",
"553 -274 CURVE SMOOTH",
"553 -245 OFFCURVE",
"549 -213 OFFCURVE",
"544 -192 CURVE",
"482 -192 LINE",
"482 -253 OFFCURVE",
"432 -278 OFFCURVE",
"316 -278 CURVE SMOOTH",
"274 -278 OFFCURVE",
"242 -275 OFFCURVE",
"216 -270 CURVE",
"655 441 LINE"
);
}
);
width = 666;
},
{
color = -1;
guideLines = (
{
angle = 66.7506;
position = "{244, 15}";
}
);
layerId = "75CF80E9-B2FC-4BD6-93D9-27AF395083D0";
paths = (
{
closed = 1;
nodes = (
"405 500 OFFCURVE",
"346 530 OFFCURVE",
"260 530 CURVE SMOOTH",
"232 530 LINE SMOOTH",
"99 530 OFFCURVE",
"50 475 OFFCURVE",
"50 373 CURVE SMOOTH",
"50 371 OFFCURVE",
"50 369 OFFCURVE",
"50 367 CURVE",
"70 367 LINE",
"70 460 OFFCURVE",
"115 502 OFFCURVE",
"243 502 CURVE SMOOTH",
"324 502 OFFCURVE",
"375 485 OFFCURVE",
"408 452 CURVE",
"43 -395 LINE",
"75 -420 OFFCURVE",
"132 -429 OFFCURVE",
"186 -429 CURVE SMOOTH",
"316 -429 OFFCURVE",
"358 -378 OFFCURVE",
"358 -275 CURVE SMOOTH",
"358 -271 OFFCURVE",
"358 -268 OFFCURVE",
"358 -264 CURVE",
"338 -264 LINE",
"338 -359 OFFCURVE",
"300 -401 OFFCURVE",
"182 -401 CURVE SMOOTH",
"145 -401 OFFCURVE",
"101 -397 OFFCURVE",
"73 -383 CURVE",
"435 459 LINE"
);
}
);
width = 459;
},
{
color = -1;
layerId = "949D5271-AFC5-4116-8DE3-A7795FBFC928";
paths = (
{
closed = 1;
nodes = (
"422 516 OFFCURVE",
"354 545 OFFCURVE",
"265 545 CURVE SMOOTH",
"233 545 LINE SMOOTH",
"86 545 OFFCURVE",
"32 484 OFFCURVE",
"32 370 CURVE SMOOTH",
"32 355 OFFCURVE",
"33 338 OFFCURVE",
"37 323 CURVE",
"92 323 LINE",
"92 401 OFFCURVE",
"133 421 OFFCURVE",
"218 421 CURVE SMOOTH",
"284 421 OFFCURVE",
"328 409 OFFCURVE",
"351 391 CURVE",
"51 -404 LINE",
"83 -430 OFFCURVE",
"155 -442 OFFCURVE",
"216 -442 CURVE SMOOTH",
"347 -442 OFFCURVE",
"393 -386 OFFCURVE",
"393 -272 CURVE SMOOTH",
"393 -255 OFFCURVE",
"392 -239 OFFCURVE",
"389 -224 CURVE",
"343 -224 LINE",
"343 -304 OFFCURVE",
"305 -320 OFFCURVE",
"224 -320 CURVE SMOOTH",
"195 -320 OFFCURVE",
"177 -318 OFFCURVE",
"159 -313 CURVE",
"456 473 LINE"
);
}
);
width = 472;
},
{
color = -1;
guideLines = (
{
angle = 67.5773;
position = "{171, -269}";
}
);
layerId = "89CE42BF-A6C4-4DEE-B312-858F60FB84E5";
paths = (
{
closed = 1;
nodes = (
"444 525 OFFCURVE",
"377 553 OFFCURVE",
"275 553 CURVE SMOOTH",
"253 553 LINE SMOOTH",
"108 553 OFFCURVE",
"39 488 OFFCURVE",
"39 361 CURVE SMOOTH",
"39 335 OFFCURVE",
"42 300 OFFCURVE",
"47 279 CURVE",
"105 279 LINE",
"105 346 OFFCURVE",
"144 373 OFFCURVE",
"235 373 CURVE SMOOTH",
"293 373 OFFCURVE",
"328 362 OFFCURVE",
"348 349 CURVE",
"34 -408 LINE",
"77 -442 OFFCURVE",
"151 -449 OFFCURVE",
"205 -449 CURVE SMOOTH",
"358 -449 OFFCURVE",
"409 -392 OFFCURVE",
"409 -271 CURVE SMOOTH",
"409 -242 OFFCURVE",
"406 -214 OFFCURVE",
"402 -193 CURVE",
"344 -193 LINE",
"344 -254 OFFCURVE",
"311 -275 OFFCURVE",
"237 -275 CURVE SMOOTH",
"209 -275 OFFCURVE",
"187 -272 OFFCURVE",
"171 -267 CURVE",
"479 473 LINE"
);
}
);
width = 489;
}
);
unicode = 1097;
script = myanmar;
category = Number;
subCategory = "Decimal Digit";
},
{
glyphname = eight_shn;
lastChange = "2017-02-22 17:31:34 +0000";
layers = (
{
color = -1;
guideLines = (
{
angle = 120.5;
position = "{424, -85}";
}
);
layerId = "6DF5D8D3-1700-4463-A28F-E0E9C2C73C46";
paths = (
{
closed = 1;
nodes = (
"80 73 OFFCURVE",
"526 60 OFFCURVE",
"526 -204 CURVE SMOOTH",
"526 -302 OFFCURVE",
"467 -402 OFFCURVE",
"313 -402 CURVE SMOOTH",
"305 -402 LINE SMOOTH",
"151 -402 OFFCURVE",
"92 -302 OFFCURVE",
"92 -204 CURVE SMOOTH",
"92 60 OFFCURVE",
"538 73 OFFCURVE",
"538 379 CURVE SMOOTH",
"538 441 OFFCURVE",
"519 489 OFFCURVE",
"494 520 CURVE",
"472 520 LINE",
"471 517 LINE",
"496 486 OFFCURVE",
"517 443 OFFCURVE",
"517 381 CURVE SMOOTH",
"517 87 OFFCURVE",
"71 72 OFFCURVE",
"71 -205 CURVE SMOOTH",
"71 -321 OFFCURVE",
"144 -430 OFFCURVE",
"305 -430 CURVE SMOOTH",
"313 -430 LINE SMOOTH",
"474 -430 OFFCURVE",
"547 -321 OFFCURVE",
"547 -205 CURVE SMOOTH",
"547 72 OFFCURVE",
"101 87 OFFCURVE",
"101 381 CURVE SMOOTH",
"101 443 OFFCURVE",
"122 486 OFFCURVE",
"147 517 CURVE",
"146 520 LINE",
"124 520 LINE",
"99 489 OFFCURVE",
"80 441 OFFCURVE",
"80 379 CURVE SMOOTH"
);
}
);
width = 618;
},
{
color = -1;
guideLines = (
{
angle = 118.153;
position = "{295, 233}";
},
{
angle = 94.9427;
position = "{200, 206}";
},
{
angle = 199.867;
position = "{502, 541}";
}
);
layerId = "BE49CA0D-7169-41D2-A70B-CE6F74D40E44";
paths = (
{
closed = 1;
nodes = (
"62 69 OFFCURVE",
"514 51 OFFCURVE",
"514 -171 CURVE SMOOTH",
"514 -249 OFFCURVE",
"460 -318 OFFCURVE",
"342 -318 CURVE SMOOTH",
"308 -318 LINE SMOOTH",
"190 -318 OFFCURVE",
"137 -249 OFFCURVE",
"137 -171 CURVE SMOOTH",
"137 51 OFFCURVE",
"588 69 OFFCURVE",
"588 394 CURVE SMOOTH",
"588 460 OFFCURVE",
"568 508 OFFCURVE",
"545 536 CURVE",
"431 536 LINE",
"428 525 LINE",
"457 486 OFFCURVE",
"477 434 OFFCURVE",
"477 370 CURVE SMOOTH",
"477 83 OFFCURVE",
"55 99 OFFCURVE",
"55 -199 CURVE SMOOTH",
"55 -328 OFFCURVE",
"131 -442 OFFCURVE",
"296 -442 CURVE SMOOTH",
"355 -442 LINE SMOOTH",
"519 -442 OFFCURVE",
"595 -328 OFFCURVE",
"595 -199 CURVE SMOOTH",
"595 99 OFFCURVE",
"173 83 OFFCURVE",
"173 370 CURVE SMOOTH",
"173 434 OFFCURVE",
"193 486 OFFCURVE",
"222 525 CURVE",
"219 536 LINE",
"105 536 LINE",
"82 508 OFFCURVE",
"62 460 OFFCURVE",
"62 394 CURVE SMOOTH"
);
}
);
width = 650;
},
{
color = -1;
layerId = "719AC85C-8AED-41E6-95C2-58F38387964A";
paths = (
{
closed = 1;
nodes = (
"49 89 OFFCURVE",
"499 54 OFFCURVE",
"499 -149 CURVE SMOOTH",
"499 -209 OFFCURVE",
"451 -260 OFFCURVE",
"347 -260 CURVE SMOOTH",
"315 -260 LINE SMOOTH",
"211 -260 OFFCURVE",
"164 -209 OFFCURVE",
"164 -149 CURVE SMOOTH",
"164 54 OFFCURVE",
"613 89 OFFCURVE",
"613 404 CURVE SMOOTH",
"613 467 OFFCURVE",
"599 514 OFFCURVE",
"581 546 CURVE",
"422 546 LINE",
"418 534 LINE",
"447 495 OFFCURVE",
"467 444 OFFCURVE",
"467 378 CURVE SMOOTH",
"467 105 OFFCURVE",
"45 100 OFFCURVE",
"45 -214 CURVE SMOOTH",
"45 -335 OFFCURVE",
"129 -452 OFFCURVE",
"295 -452 CURVE SMOOTH",
"368 -452 LINE SMOOTH",
"533 -452 OFFCURVE",
"617 -335 OFFCURVE",
"617 -214 CURVE SMOOTH",
"617 100 OFFCURVE",
"195 105 OFFCURVE",
"195 378 CURVE SMOOTH",
"195 444 OFFCURVE",
"215 495 OFFCURVE",
"244 534 CURVE",
"240 546 LINE",
"81 546 LINE",
"63 514 OFFCURVE",
"49 467 OFFCURVE",
"49 404 CURVE SMOOTH"
);
}
);
width = 662;
},
{
color = -1;
layerId = "75CF80E9-B2FC-4BD6-93D9-27AF395083D0";
paths = (
{
closed = 1;
nodes = (
"74 75 OFFCURVE",
"384 56 OFFCURVE",
"384 -211 CURVE SMOOTH",
"384 -305 OFFCURVE",
"344 -401 OFFCURVE",
"239 -401 CURVE SMOOTH",
"235 -401 LINE SMOOTH",
"130 -401 OFFCURVE",
"90 -305 OFFCURVE",
"90 -211 CURVE SMOOTH",
"90 56 OFFCURVE",
"400 75 OFFCURVE",
"400 379 CURVE SMOOTH",
"400 441 OFFCURVE",
"386 489 OFFCURVE",
"369 520 CURVE",
"346 520 LINE",
"345 517 LINE",
"363 486 OFFCURVE",
"379 443 OFFCURVE",
"379 381 CURVE SMOOTH",
"379 87 OFFCURVE",
"69 66 OFFCURVE",
"69 -212 CURVE SMOOTH",
"69 -324 OFFCURVE",
"119 -429 OFFCURVE",
"231 -429 CURVE SMOOTH",
"243 -429 LINE SMOOTH",
"355 -429 OFFCURVE",
"405 -324 OFFCURVE",
"405 -212 CURVE SMOOTH",
"405 66 OFFCURVE",
"95 87 OFFCURVE",
"95 381 CURVE SMOOTH",
"95 443 OFFCURVE",
"111 486 OFFCURVE",
"129 517 CURVE",
"128 520 LINE",
"105 520 LINE",
"88 489 OFFCURVE",
"74 441 OFFCURVE",
"74 379 CURVE SMOOTH"
);
}
);
width = 474;
},
{
color = -1;
layerId = "949D5271-AFC5-4116-8DE3-A7795FBFC928";
paths = (
{
closed = 1;
nodes = (
"55 84 OFFCURVE",
"368 54 OFFCURVE",
"368 -174 CURVE SMOOTH",
"368 -254 OFFCURVE",
"336 -317 OFFCURVE",
"254 -317 CURVE SMOOTH",
"242 -317 LINE SMOOTH",
"160 -317 OFFCURVE",
"129 -254 OFFCURVE",
"129 -174 CURVE SMOOTH",
"129 54 OFFCURVE",
"441 84 OFFCURVE",
"441 399 CURVE SMOOTH",
"441 461 OFFCURVE",
"430 508 OFFCURVE",
"417 536 CURVE",
"313 536 LINE",
"310 525 LINE",
"330 486 OFFCURVE",
"345 435 OFFCURVE",
"345 369 CURVE SMOOTH",
"345 74 OFFCURVE",
"52 88 OFFCURVE",
"52 -203 CURVE SMOOTH",
"52 -330 OFFCURVE",
"111 -441 OFFCURVE",
"236 -441 CURVE SMOOTH",
"260 -441 LINE SMOOTH",
"385 -441 OFFCURVE",
"444 -330 OFFCURVE",
"444 -203 CURVE SMOOTH",
"444 88 OFFCURVE",
"151 74 OFFCURVE",
"151 369 CURVE SMOOTH",
"151 435 OFFCURVE",
"165 486 OFFCURVE",
"185 525 CURVE",
"183 536 LINE",
"79 536 LINE",
"65 508 OFFCURVE",
"55 461 OFFCURVE",
"55 399 CURVE SMOOTH"
);
}
);
width = 496;
},
{
color = -1;
layerId = "89CE42BF-A6C4-4DEE-B312-858F60FB84E5";
paths = (
{
closed = 1;
nodes = (
"45 107 OFFCURVE",
"374 56 OFFCURVE",
"374 -150 CURVE SMOOTH",
"374 -215 OFFCURVE",
"340 -269 OFFCURVE",
"268 -269 CURVE SMOOTH",
"246 -269 LINE SMOOTH",
"175 -269 OFFCURVE",
"142 -215 OFFCURVE",
"142 -150 CURVE SMOOTH",
"142 56 OFFCURVE",
"469 107 OFFCURVE",
"469 404 CURVE SMOOTH",
"469 467 OFFCURVE",
"459 514 OFFCURVE",
"447 546 CURVE",
"312 546 LINE",
"308 534 LINE",
"329 495 OFFCURVE",
"344 444 OFFCURVE",
"344 380 CURVE SMOOTH",
"344 92 OFFCURVE",
"43 96 OFFCURVE",
"43 -211 CURVE SMOOTH",
"43 -333 OFFCURVE",
"100 -449 OFFCURVE",
"229 -449 CURVE SMOOTH",
"285 -449 LINE SMOOTH",
"414 -449 OFFCURVE",
"470 -333 OFFCURVE",
"470 -211 CURVE SMOOTH",
"470 96 OFFCURVE",
"171 92 OFFCURVE",
"171 380 CURVE SMOOTH",
"171 444 OFFCURVE",
"185 495 OFFCURVE",
"206 534 CURVE",
"202 546 LINE",
"66 546 LINE",
"54 514 OFFCURVE",
"45 467 OFFCURVE",
"45 404 CURVE SMOOTH"
);
}
);
width = 513;
}
);
leftMetricsKey = wa;
rightMetricsKey = wa;
unicode = 1098;
script = myanmar;
category = Number;
subCategory = "Decimal Digit";
},
{
glyphname = one_tlg;
lastChange = "2017-02-22 17:31:34 +0000";
layers = (
{
color = -1;
layerId = "6DF5D8D3-1700-4463-A28F-E0E9C2C73C46";
paths = (
{
closed = 1;
nodes = (
"388 18 LINE SMOOTH",
"348 18 OFFCURVE",
"308 31 OFFCURVE",
"308 79 CURVE SMOOTH",
"308 123 OFFCURVE",
"339 154 OFFCURVE",
"389 202 CURVE SMOOTH",
"450 260 OFFCURVE",
"506 317 OFFCURVE",
"506 414 CURVE SMOOTH",
"506 523 OFFCURVE",
"430 585 OFFCURVE",
"311 585 CURVE SMOOTH",
"307 585 LINE SMOOTH",
"189 585 OFFCURVE",
"105 523 OFFCURVE",
"105 404 CURVE SMOOTH",
"105 314 OFFCURVE",
"153 240 OFFCURVE",
"247 240 CURVE SMOOTH",
"315 240 OFFCURVE",
"348 278 OFFCURVE",
"348 329 CURVE SMOOTH",
"348 380 OFFCURVE",
"315 418 OFFCURVE",
"251 418 CURVE SMOOTH",
"187 418 OFFCURVE",
"154 380 OFFCURVE",
"154 329 CURVE SMOOTH",
"154 303 OFFCURVE",
"158 294 OFFCURVE",
"174 277 CURVE",
"174 281 LINE",
"139 316 OFFCURVE",
"125 350 OFFCURVE",
"125 398 CURVE SMOOTH",
"125 401 LINE SMOOTH",
"125 509 OFFCURVE",
"197 557 OFFCURVE",
"309 557 CURVE SMOOTH",
"420 557 OFFCURVE",
"486 511 OFFCURVE",
"486 416 CURVE SMOOTH",
"486 414 LINE SMOOTH",
"486 330 OFFCURVE",
"435 277 OFFCURVE",
"377 221 CURVE SMOOTH",
"324 169 OFFCURVE",
"288 131 OFFCURVE",
"288 75 CURVE SMOOTH",
"288 24 OFFCURVE",
"319 -11 OFFCURVE",
"386 -11 CURVE SMOOTH",
"395 -11 OFFCURVE",
"397 -11 OFFCURVE",
"400 -11 CURVE",
"400 18 LINE"
);
},
{
closed = 1;
nodes = (
"198 266 OFFCURVE",
"174 293 OFFCURVE",
"174 329 CURVE SMOOTH",
"174 365 OFFCURVE",
"198 392 OFFCURVE",
"251 392 CURVE SMOOTH",
"304 392 OFFCURVE",
"328 365 OFFCURVE",
"328 329 CURVE SMOOTH",
"328 293 OFFCURVE",
"304 266 OFFCURVE",
"251 266 CURVE SMOOTH"
);
},
{
closed = 1;
nodes = (
"525 663 OFFCURVE",
"540 699 OFFCURVE",
"540 749 CURVE SMOOTH",
"540 865 OFFCURVE",
"462 950 OFFCURVE",
"305 950 CURVE SMOOTH",
"304 950 LINE SMOOTH",
"143 950 OFFCURVE",
"68 860 OFFCURVE",
"68 760 CURVE SMOOTH",
"68 686 OFFCURVE",
"108 635 OFFCURVE",
"179 635 CURVE SMOOTH",
"242 635 OFFCURVE",
"277 673 OFFCURVE",
"277 724 CURVE SMOOTH",
"277 775 OFFCURVE",
"244 813 OFFCURVE",
"180 813 CURVE SMOOTH",
"117 813 OFFCURVE",
"85 775 OFFCURVE",
"85 724 CURVE SMOOTH",
"85 702 OFFCURVE",
"91 684 OFFCURVE",
"103 668 CURVE",
"89 707 LINE",
"89 757 LINE",
"89 842 OFFCURVE",
"152 922 OFFCURVE",
"306 922 CURVE SMOOTH",
"452 922 OFFCURVE",
"519 851 OFFCURVE",
"519 749 CURVE SMOOTH",
"519 700 OFFCURVE",
"503 663 OFFCURVE",
"488 643 CURVE",
"510 643 LINE"
);
},
{
closed = 1;
nodes = (
"127 661 OFFCURVE",
"103 688 OFFCURVE",
"103 724 CURVE SMOOTH",
"103 760 OFFCURVE",
"127 787 OFFCURVE",
"180 787 CURVE SMOOTH",
"233 787 OFFCURVE",
"257 760 OFFCURVE",
"257 724 CURVE SMOOTH",
"257 688 OFFCURVE",
"233 661 OFFCURVE",
"180 661 CURVE SMOOTH"
);
}
);
width = 611;
},
{
color = -1;
guideLines = (
{
position = "{5, 484}";
}
);
layerId = "BE49CA0D-7169-41D2-A70B-CE6F74D40E44";
paths = (
{
closed = 1;
nodes = (
"403 118 LINE SMOOTH",
"373 118 OFFCURVE",
"356 125 OFFCURVE",
"356 141 CURVE SMOOTH",
"356 152 OFFCURVE",
"367 164 OFFCURVE",
"408 192 CURVE SMOOTH",
"491 250 OFFCURVE",
"553 308 OFFCURVE",
"553 415 CURVE SMOOTH",
"553 541 OFFCURVE",
"465 606 OFFCURVE",
"326 606 CURVE SMOOTH",
"320 606 LINE SMOOTH",
"181 606 OFFCURVE",
"92 534 OFFCURVE",
"92 401 CURVE SMOOTH",
"92 284 OFFCURVE",
"160 220 OFFCURVE",
"260 220 CURVE SMOOTH",
"329 220 OFFCURVE",
"371 263 OFFCURVE",
"371 323 CURVE SMOOTH",
"371 385 OFFCURVE",
"332 427 OFFCURVE",
"266 427 CURVE SMOOTH",
"201 427 OFFCURVE",
"162 385 OFFCURVE",
"162 323 CURVE SMOOTH",
"162 297 OFFCURVE",
"169 274 OFFCURVE",
"183 258 CURVE",
"181 316 LINE",
"166 332 OFFCURVE",
"160 356 OFFCURVE",
"160 385 CURVE SMOOTH",
"160 395 LINE SMOOTH",
"160 468 OFFCURVE",
"226 495 OFFCURVE",
"313 495 CURVE SMOOTH",
"401 495 OFFCURVE",
"465 467 OFFCURVE",
"465 396 CURVE SMOOTH",
"465 389 LINE SMOOTH",
"465 334 OFFCURVE",
"432 298 OFFCURVE",
"375 247 CURVE SMOOTH",
"293 174 OFFCURVE",
"264 138 OFFCURVE",
"264 86 CURVE SMOOTH",
"264 23 OFFCURVE",
"307 -10 OFFCURVE",
"391 -10 CURVE SMOOTH",
"402 -10 OFFCURVE",
"418 -9 OFFCURVE",
"427 -7 CURVE",
"427 118 LINE"
);
},
{
closed = 1;
nodes = (
"223 282 OFFCURVE",
"205 299 OFFCURVE",
"205 323 CURVE SMOOTH",
"205 347 OFFCURVE",
"223 366 OFFCURVE",
"266 366 CURVE SMOOTH",
"309 366 OFFCURVE",
"327 347 OFFCURVE",
"327 323 CURVE SMOOTH",
"327 299 OFFCURVE",
"309 282 OFFCURVE",
"266 282 CURVE SMOOTH"
);
},
{
closed = 1;
nodes = (
"558 677 OFFCURVE",
"578 713 OFFCURVE",
"578 772 CURVE SMOOTH",
"578 903 OFFCURVE",
"482 978 OFFCURVE",
"322 978 CURVE SMOOTH",
"317 978 LINE SMOOTH",
"156 978 OFFCURVE",
"55 899 OFFCURVE",
"55 772 CURVE SMOOTH",
"55 687 OFFCURVE",
"101 635 OFFCURVE",
"177 635 CURVE SMOOTH",
"246 635 OFFCURVE",
"286 678 OFFCURVE",
"286 739 CURVE SMOOTH",
"286 803 OFFCURVE",
"246 845 OFFCURVE",
"179 845 CURVE SMOOTH",
"119 845 OFFCURVE",
"74 811 OFFCURVE",
"74 745 CURVE SMOOTH",
"74 722 OFFCURVE",
"80 699 OFFCURVE",
"94 683 CURVE",
"94 758 LINE",
"123 792 LINE",
"128 819 OFFCURVE",
"182 852 OFFCURVE",
"310 852 CURVE SMOOTH",
"423 852 OFFCURVE",
"508 827 OFFCURVE",
"508 738 CURVE SMOOTH",
"508 709 OFFCURVE",
"499 687 OFFCURVE",
"480 664 CURVE",
"538 664 LINE"
);
},
{
closed = 1;
nodes = (
"135 698 OFFCURVE",
"116 715 OFFCURVE",
"116 739 CURVE SMOOTH",
"116 764 OFFCURVE",
"135 783 OFFCURVE",
"179 783 CURVE SMOOTH",
"223 783 OFFCURVE",
"242 764 OFFCURVE",
"242 739 CURVE SMOOTH",
"242 715 OFFCURVE",
"223 698 OFFCURVE",
"179 698 CURVE SMOOTH"
);
}
);
width = 637;
},
{
color = -1;
layerId = "719AC85C-8AED-41E6-95C2-58F38387964A";
paths = (
{
closed = 1;
nodes = (
"404 131 LINE SMOOTH",
"385 131 OFFCURVE",
"375 135 OFFCURVE",
"375 144 CURVE SMOOTH",
"375 155 OFFCURVE",
"382 168 OFFCURVE",
"423 201 CURVE SMOOTH",
"499 262 OFFCURVE",
"557 318 OFFCURVE",
"557 427 CURVE SMOOTH",
"557 558 OFFCURVE",
"460 625 OFFCURVE",
"325 625 CURVE SMOOTH",
"319 625 LINE SMOOTH",
"176 625 OFFCURVE",
"76 550 OFFCURVE",
"76 412 CURVE SMOOTH",
"76 291 OFFCURVE",
"150 225 OFFCURVE",
"258 225 CURVE SMOOTH",
"334 225 OFFCURVE",
"381 269 OFFCURVE",
"381 330 CURVE SMOOTH",
"381 395 OFFCURVE",
"339 440 OFFCURVE",
"269 440 CURVE SMOOTH",
"200 440 OFFCURVE",
"158 395 OFFCURVE",
"158 330 CURVE SMOOTH",
"158 303 OFFCURVE",
"163 280 OFFCURVE",
"177 263 CURVE",
"177 353 LINE",
"165 361 OFFCURVE",
"161 373 OFFCURVE",
"161 387 CURVE SMOOTH",
"161 397 LINE SMOOTH",
"161 456 OFFCURVE",
"224 485 OFFCURVE",
"307 485 CURVE SMOOTH",
"382 485 OFFCURVE",
"437 457 OFFCURVE",
"437 401 CURVE SMOOTH",
"437 394 LINE SMOOTH",
"437 341 OFFCURVE",
"416 301 OFFCURVE",
"372 254 CURVE SMOOTH",
"300 177 OFFCURVE",
"262 143 OFFCURVE",
"262 86 CURVE SMOOTH",
"262 24 OFFCURVE",
"306 -10 OFFCURVE",
"392 -10 CURVE SMOOTH",
"403 -10 OFFCURVE",
"419 -9 OFFCURVE",
"428 -7 CURVE",
"428 131 LINE"
);
},
{
closed = 1;
nodes = (
"220 288 OFFCURVE",
"202 305 OFFCURVE",
"202 330 CURVE SMOOTH",
"202 354 OFFCURVE",
"220 374 OFFCURVE",
"264 374 CURVE SMOOTH",
"308 374 OFFCURVE",
"326 354 OFFCURVE",
"326 330 CURVE SMOOTH",
"326 305 OFFCURVE",
"308 288 OFFCURVE",
"264 288 CURVE SMOOTH"
);
},
{
closed = 1;
nodes = (
"572 691 OFFCURVE",
"592 728 OFFCURVE",
"592 788 CURVE SMOOTH",
"592 921 OFFCURVE",
"491 998 OFFCURVE",
"321 998 CURVE SMOOTH",
"316 998 LINE SMOOTH",
"146 998 OFFCURVE",
"39 916 OFFCURVE",
"39 785 CURVE SMOOTH",
"39 696 OFFCURVE",
"89 641 OFFCURVE",
"173 641 CURVE SMOOTH",
"250 641 OFFCURVE",
"294 688 OFFCURVE",
"294 754 CURVE SMOOTH",
"294 819 OFFCURVE",
"250 862 OFFCURVE",
"175 862 CURVE SMOOTH",
"114 862 OFFCURVE",
"68 828 OFFCURVE",
"68 760 CURVE SMOOTH",
"68 737 OFFCURVE",
"74 713 OFFCURVE",
"88 697 CURVE",
"88 774 LINE",
"118 808 LINE",
"123 827 OFFCURVE",
"178 849 OFFCURVE",
"303 849 CURVE SMOOTH",
"413 849 OFFCURVE",
"491 828 OFFCURVE",
"491 755 CURVE SMOOTH",
"491 723 OFFCURVE",
"482 701 OFFCURVE",
"462 678 CURVE",
"542 678 LINE"
);
},
{
closed = 1;
nodes = (
"126 712 OFFCURVE",
"107 730 OFFCURVE",
"107 754 CURVE SMOOTH",
"107 780 OFFCURVE",
"126 799 OFFCURVE",
"171 799 CURVE SMOOTH",
"216 799 OFFCURVE",
"235 780 OFFCURVE",
"235 754 CURVE SMOOTH",
"235 730 OFFCURVE",
"216 712 OFFCURVE",
"171 712 CURVE SMOOTH"
);
}
);
width = 634;
},
{
color = -1;
layerId = "75CF80E9-B2FC-4BD6-93D9-27AF395083D0";
paths = (
{
closed = 1;
nodes = (
"288 20 LINE SMOOTH",
"244 20 OFFCURVE",
"228 46 OFFCURVE",
"228 78 CURVE SMOOTH",
"228 119 OFFCURVE",
"254 157 OFFCURVE",
"283 200 CURVE SMOOTH",
"322 257 OFFCURVE",
"367 323 OFFCURVE",
"367 418 CURVE SMOOTH",
"367 517 OFFCURVE",
"322 585 OFFCURVE",
"228 585 CURVE SMOOTH",
"225 585 LINE SMOOTH",
"128 585 OFFCURVE",
"81 510 OFFCURVE",
"81 409 CURVE SMOOTH",
"81 308 OFFCURVE",
"117 246 OFFCURVE",
"183 246 CURVE SMOOTH",
"231 246 OFFCURVE",
"255 284 OFFCURVE",
"255 335 CURVE SMOOTH",
"255 386 OFFCURVE",
"231 424 OFFCURVE",
"186 424 CURVE SMOOTH",
"141 424 OFFCURVE",
"117 388 OFFCURVE",
"117 335 CURVE SMOOTH",
"117 310 OFFCURVE",
"122 297 OFFCURVE",
"132 283 CURVE",
"132 287 LINE",
"110 322 OFFCURVE",
"101 356 OFFCURVE",
"101 403 CURVE SMOOTH",
"101 406 LINE SMOOTH",
"101 510 OFFCURVE",
"151 557 OFFCURVE",
"226 557 CURVE SMOOTH",
"299 557 OFFCURVE",
"347 512 OFFCURVE",
"347 419 CURVE SMOOTH",
"347 417 LINE SMOOTH",
"347 333 OFFCURVE",
"306 272 OFFCURVE",
"269 217 CURVE SMOOTH",
"237 170 OFFCURVE",
"208 127 OFFCURVE",
"208 77 CURVE SMOOTH",
"208 23 OFFCURVE",
"236 -8 OFFCURVE",
"285 -8 CURVE SMOOTH",
"290 -8 OFFCURVE",
"300 -8 OFFCURVE",
"310 -6 CURVE",
"310 20 LINE"
);
},
{
closed = 1;
nodes = (
"150 272 OFFCURVE",
"134 299 OFFCURVE",
"134 335 CURVE SMOOTH",
"134 371 OFFCURVE",
"150 398 OFFCURVE",
"186 398 CURVE SMOOTH",
"222 398 OFFCURVE",
"238 371 OFFCURVE",
"238 335 CURVE SMOOTH",
"238 299 OFFCURVE",
"222 272 OFFCURVE",
"186 272 CURVE SMOOTH"
);
},
{
closed = 1;
nodes = (
"379 678 OFFCURVE",
"390 713 OFFCURVE",
"390 767 CURVE SMOOTH",
"390 870 OFFCURVE",
"333 949 OFFCURVE",
"224 949 CURVE SMOOTH",
"223 949 LINE SMOOTH",
"111 949 OFFCURVE",
"56 863 OFFCURVE",
"56 768 CURVE SMOOTH",
"56 696 OFFCURVE",
"85 647 OFFCURVE",
"135 647 CURVE SMOOTH",
"182 647 OFFCURVE",
"204 682 OFFCURVE",
"204 733 CURVE SMOOTH",
"204 784 OFFCURVE",
"182 819 OFFCURVE",
"135 819 CURVE SMOOTH",
"92 819 OFFCURVE",
"68 784 OFFCURVE",
"68 733 CURVE SMOOTH",
"68 711 OFFCURVE",
"72 693 OFFCURVE",
"81 677 CURVE",
"73 716 LINE",
"76 766 LINE",
"76 844 OFFCURVE",
"119 921 OFFCURVE",
"223 921 CURVE SMOOTH",
"321 921 OFFCURVE",
"370 855 OFFCURVE",
"370 767 CURVE SMOOTH",
"370 714 OFFCURVE",
"359 678 OFFCURVE",
"348 658 CURVE",
"368 658 LINE"
);
},
{
closed = 1;
nodes = (
"99 672 OFFCURVE",
"83 698 OFFCURVE",
"83 733 CURVE SMOOTH",
"83 768 OFFCURVE",
"99 794 OFFCURVE",
"135 794 CURVE SMOOTH",
"171 794 OFFCURVE",
"187 768 OFFCURVE",
"187 733 CURVE SMOOTH",
"187 698 OFFCURVE",
"171 672 OFFCURVE",
"135 672 CURVE SMOOTH"
);
}
);
width = 451;
},
{
color = -1;
layerId = "949D5271-AFC5-4116-8DE3-A7795FBFC928";
paths = (
{
closed = 1;
nodes = (
"316 119 LINE SMOOTH",
"292 119 OFFCURVE",
"283 128 OFFCURVE",
"283 140 CURVE SMOOTH",
"283 157 OFFCURVE",
"300 175 OFFCURVE",
"323 199 CURVE SMOOTH",
"365 244 OFFCURVE",
"426 309 OFFCURVE",
"426 421 CURVE SMOOTH",
"426 538 OFFCURVE",
"359 606 OFFCURVE",
"253 606 CURVE SMOOTH",
"249 606 LINE SMOOTH",
"141 606 OFFCURVE",
"71 532 OFFCURVE",
"71 398 CURVE SMOOTH",
"71 282 OFFCURVE",
"124 224 OFFCURVE",
"194 224 CURVE SMOOTH",
"252 224 OFFCURVE",
"284 266 OFFCURVE",
"284 325 CURVE SMOOTH",
"284 383 OFFCURVE",
"252 426 OFFCURVE",
"197 426 CURVE SMOOTH",
"146 426 OFFCURVE",
"109 392 OFFCURVE",
"109 332 CURVE SMOOTH",
"109 300 OFFCURVE",
"120 278 OFFCURVE",
"141 262 CURVE",
"140 316 LINE",
"128 332 OFFCURVE",
"128 356 OFFCURVE",
"128 385 CURVE SMOOTH",
"128 395 LINE SMOOTH",
"128 461 OFFCURVE",
"170 495 OFFCURVE",
"237 495 CURVE SMOOTH",
"304 495 OFFCURVE",
"347 461 OFFCURVE",
"347 389 CURVE SMOOTH",
"347 382 LINE SMOOTH",
"347 321 OFFCURVE",
"311 277 OFFCURVE",
"275 233 CURVE SMOOTH",
"240 190 OFFCURVE",
"204 146 OFFCURVE",
"204 86 CURVE SMOOTH",
"204 25 OFFCURVE",
"237 -9 OFFCURVE",
"304 -9 CURVE SMOOTH",
"313 -9 OFFCURVE",
"332 -8 OFFCURVE",
"342 -5 CURVE",
"342 119 LINE"
);
},
{
closed = 1;
nodes = (
"162 283 OFFCURVE",
"148 299 OFFCURVE",
"148 324 CURVE SMOOTH",
"148 348 OFFCURVE",
"162 367 OFFCURVE",
"192 367 CURVE SMOOTH",
"223 367 OFFCURVE",
"237 347 OFFCURVE",
"237 324 CURVE SMOOTH",
"237 300 OFFCURVE",
"223 283 OFFCURVE",
"192 283 CURVE SMOOTH"
);
},
{
closed = 1;
nodes = (
"429 681 OFFCURVE",
"444 718 OFFCURVE",
"444 775 CURVE SMOOTH",
"444 900 OFFCURVE",
"371 977 OFFCURVE",
"248 977 CURVE SMOOTH",
"244 977 LINE SMOOTH",
"121 977 OFFCURVE",
"43 898 OFFCURVE",
"43 775 CURVE SMOOTH",
"43 689 OFFCURVE",
"81 639 OFFCURVE",
"144 639 CURVE SMOOTH",
"201 639 OFFCURVE",
"233 681 OFFCURVE",
"233 740 CURVE SMOOTH",
"233 798 OFFCURVE",
"201 841 OFFCURVE",
"145 841 CURVE SMOOTH",
"95 841 OFFCURVE",
"58 808 OFFCURVE",
"58 743 CURVE SMOOTH",
"58 721 OFFCURVE",
"62 699 OFFCURVE",
"73 683 CURVE",
"73 757 LINE",
"95 791 LINE",
"99 820 OFFCURVE",
"143 854 OFFCURVE",
"236 854 CURVE SMOOTH",
"326 854 OFFCURVE",
"375 822 OFFCURVE",
"375 750 CURVE SMOOTH",
"375 723 OFFCURVE",
"368 691 OFFCURVE",
"354 664 CURVE",
"413 664 LINE"
);
},
{
closed = 1;
nodes = (
"111 698 OFFCURVE",
"97 714 OFFCURVE",
"97 739 CURVE SMOOTH",
"97 763 OFFCURVE",
"111 782 OFFCURVE",
"141 782 CURVE SMOOTH",
"172 782 OFFCURVE",
"186 762 OFFCURVE",
"186 739 CURVE SMOOTH",
"186 715 OFFCURVE",
"172 698 OFFCURVE",
"141 698 CURVE SMOOTH"
);
}
);
width = 489;
},
{
color = -1;
layerId = "89CE42BF-A6C4-4DEE-B312-858F60FB84E5";
paths = (
{
closed = 1;
nodes = (
"321 133 LINE SMOOTH",
"306 133 OFFCURVE",
"299 137 OFFCURVE",
"299 146 CURVE SMOOTH",
"299 157 OFFCURVE",
"312 171 OFFCURVE",
"330 192 CURVE SMOOTH",
"370 238 OFFCURVE",
"434 311 OFFCURVE",
"434 427 CURVE SMOOTH",
"434 558 OFFCURVE",
"360 624 OFFCURVE",
"258 624 CURVE SMOOTH",
"253 624 LINE SMOOTH",
"144 624 OFFCURVE",
"69 550 OFFCURVE",
"69 413 CURVE SMOOTH",
"69 292 OFFCURVE",
"124 230 OFFCURVE",
"207 230 CURVE SMOOTH",
"265 230 OFFCURVE",
"303 270 OFFCURVE",
"303 333 CURVE SMOOTH",
"303 396 OFFCURVE",
"269 436 OFFCURVE",
"215 436 CURVE SMOOTH",
"162 436 OFFCURVE",
"130 396 OFFCURVE",
"130 331 CURVE SMOOTH",
"130 304 OFFCURVE",
"134 281 OFFCURVE",
"145 264 CURVE",
"145 354 LINE",
"136 362 OFFCURVE",
"133 374 OFFCURVE",
"133 379 CURVE SMOOTH",
"133 389 LINE SMOOTH",
"133 456 OFFCURVE",
"175 485 OFFCURVE",
"241 485 CURVE SMOOTH",
"300 485 OFFCURVE",
"343 451 OFFCURVE",
"343 385 CURVE SMOOTH",
"343 380 LINE SMOOTH",
"343 316 OFFCURVE",
"307 265 OFFCURVE",
"272 217 CURVE SMOOTH",
"240 173 OFFCURVE",
"210 131 OFFCURVE",
"210 82 CURVE SMOOTH",
"210 23 OFFCURVE",
"243 -7 OFFCURVE",
"310 -7 CURVE SMOOTH",
"321 -7 OFFCURVE",
"339 -6 OFFCURVE",
"349 -4 CURVE",
"349 133 LINE"
);
},
{
closed = 1;
nodes = (
"180 290 OFFCURVE",
"165 307 OFFCURVE",
"165 332 CURVE SMOOTH",
"165 356 OFFCURVE",
"180 376 OFFCURVE",
"212 376 CURVE SMOOTH",
"241 376 OFFCURVE",
"256 356 OFFCURVE",
"256 332 CURVE SMOOTH",
"256 307 OFFCURVE",
"241 290 OFFCURVE",
"212 290 CURVE SMOOTH"
);
},
{
closed = 1;
nodes = (
"445 690 OFFCURVE",
"460 727 OFFCURVE",
"460 786 CURVE SMOOTH",
"460 918 OFFCURVE",
"384 995 OFFCURVE",
"255 995 CURVE SMOOTH",
"251 995 LINE SMOOTH",
"121 995 OFFCURVE",
"40 915 OFFCURVE",
"40 785 CURVE SMOOTH",
"40 697 OFFCURVE",
"76 645 OFFCURVE",
"140 645 CURVE SMOOTH",
"199 645 OFFCURVE",
"233 685 OFFCURVE",
"233 748 CURVE SMOOTH",
"233 811 OFFCURVE",
"199 851 OFFCURVE",
"140 851 CURVE SMOOTH",
"93 851 OFFCURVE",
"62 820 OFFCURVE",
"62 752 CURVE SMOOTH",
"62 730 OFFCURVE",
"67 706 OFFCURVE",
"77 690 CURVE",
"77 772 LINE",
"100 806 LINE",
"104 825 OFFCURVE",
"150 852 OFFCURVE",
"245 852 CURVE SMOOTH",
"336 852 OFFCURVE",
"384 820 OFFCURVE",
"384 749 CURVE SMOOTH",
"384 721 OFFCURVE",
"378 700 OFFCURVE",
"368 677 CURVE",
"435 677 LINE"
);
},
{
closed = 1;
nodes = (
"110 705 OFFCURVE",
"95 723 OFFCURVE",
"95 746 CURVE SMOOTH",
"95 772 OFFCURVE",
"110 791 OFFCURVE",
"140 791 CURVE SMOOTH",
"170 791 OFFCURVE",
"186 772 OFFCURVE",
"186 746 CURVE SMOOTH",
"186 723 OFFCURVE",
"170 705 OFFCURVE",
"140 705 CURVE SMOOTH"
);
}
);
width = 501;
},
{
associatedMasterId = "BE49CA0D-7169-41D2-A70B-CE6F74D40E44";
background = {
paths = (
{
closed = 1;
nodes = (
"224 281 OFFCURVE",
"205 298 OFFCURVE",
"205 322 CURVE SMOOTH",
"205 347 OFFCURVE",
"224 366 OFFCURVE",
"268 366 CURVE SMOOTH",
"312 366 OFFCURVE",
"331 347 OFFCURVE",
"331 322 CURVE SMOOTH",
"331 298 OFFCURVE",
"312 281 OFFCURVE",
"268 281 CURVE SMOOTH"
);
},
{
closed = 1;
nodes = (
"404 118 LINE SMOOTH",
"373 118 OFFCURVE",
"355 125 OFFCURVE",
"355 140 CURVE SMOOTH",
"355 149 OFFCURVE",
"363 158 OFFCURVE",
"395 181 CURVE SMOOTH",
"470 235 OFFCURVE",
"548 296 OFFCURVE",
"548 415 CURVE SMOOTH",
"548 470 OFFCURVE",
"533 515 OFFCURVE",
"503 549 CURVE SMOOTH",
"465 592 OFFCURVE",
"404 616 OFFCURVE",
"320 616 CURVE SMOOTH",
"242 616 OFFCURVE",
"180 592 OFFCURVE",
"140 548 CURVE SMOOTH",
"107 512 OFFCURVE",
"89 463 OFFCURVE",
"89 403 CURVE SMOOTH",
"89 284 OFFCURVE",
"159 218 OFFCURVE",
"263 218 CURVE SMOOTH",
"331 218 OFFCURVE",
"375 261 OFFCURVE",
"375 322 CURVE SMOOTH",
"375 386 OFFCURVE",
"335 428 OFFCURVE",
"268 428 CURVE SMOOTH",
"201 428 OFFCURVE",
"161 386 OFFCURVE",
"161 322 CURVE SMOOTH",
"161 296 OFFCURVE",
"168 273 OFFCURVE",
"182 256 CURVE",
"180 314 LINE",
"164 333 OFFCURVE",
"160 359 OFFCURVE",
"160 387 CURVE SMOOTH",
"160 396 LINE SMOOTH",
"160 473 OFFCURVE",
"227 504 OFFCURVE",
"312 504 CURVE SMOOTH",
"398 504 OFFCURVE",
"462 472 OFFCURVE",
"462 398 CURVE SMOOTH",
"462 396 LINE SMOOTH",
"462 340 OFFCURVE",
"425 297 OFFCURVE",
"375 248 CURVE SMOOTH",
"285 161 OFFCURVE",
"262 131 OFFCURVE",
"262 81 CURVE SMOOTH",
"262 22 OFFCURVE",
"306 -10 OFFCURVE",
"391 -10 CURVE SMOOTH",
"402 -10 OFFCURVE",
"418 -9 OFFCURVE",
"427 -7 CURVE",
"427 118 LINE"
);
},
{
closed = 1;
nodes = (
"565 679 OFFCURVE",
"568 689 OFFCURVE",
"570 700 CURVE SMOOTH",
"571 708 OFFCURVE",
"572 717 OFFCURVE",
"572 726 CURVE SMOOTH",
"572 799 OFFCURVE",
"555 860 OFFCURVE",
"509 904 CURVE SMOOTH",
"466 944 OFFCURVE",
"397 968 OFFCURVE",
"294 968 CURVE SMOOTH",
"293 968 LINE SMOOTH",
"210 968 OFFCURVE",
"153 943 OFFCURVE",
"116 908 CURVE SMOOTH",
"65 861 OFFCURVE",
"49 796 OFFCURVE",
"49 750 CURVE SMOOTH",
"49 683 OFFCURVE",
"89 634 OFFCURVE",
"160 634 CURVE SMOOTH",
"227 634 OFFCURVE",
"267 677 OFFCURVE",
"267 738 CURVE SMOOTH",
"267 802 OFFCURVE",
"227 844 OFFCURVE",
"160 844 CURVE SMOOTH",
"101 844 OFFCURVE",
"56 812 OFFCURVE",
"56 746 CURVE SMOOTH",
"56 724 OFFCURVE",
"61 701 OFFCURVE",
"75 685 CURVE",
"75 763 LINE",
"80 771 OFFCURVE",
"103 778 OFFCURVE",
"117 780 CURVE",
"117 786 LINE",
"124 804 OFFCURVE",
"166 840 OFFCURVE",
"290 840 CURVE SMOOTH",
"410 840 OFFCURVE",
"501 812 OFFCURVE",
"501 713 CURVE SMOOTH",
"501 712 LINE SMOOTH",
"501 698 OFFCURVE",
"499 684 OFFCURVE",
"496 670 CURVE",
"562 670 LINE"
);
},
{
closed = 1;
nodes = (
"116 697 OFFCURVE",
"97 714 OFFCURVE",
"97 738 CURVE SMOOTH",
"97 763 OFFCURVE",
"116 782 OFFCURVE",
"160 782 CURVE SMOOTH",
"204 782 OFFCURVE",
"223 763 OFFCURVE",
"223 738 CURVE SMOOTH",
"223 714 OFFCURVE",
"204 697 OFFCURVE",
"160 697 CURVE SMOOTH"
);
}
);
};
guideLines = (
{
position = "{0, 484}";
},
{
angle = 221.944;
position = "{473, 356}";
}
);
layerId = "614BA0F1-1E45-4A94-A401-3A3951CDF08E";
name = "Regular Oct 13 15, 19:02";
paths = (
{
closed = 1;
nodes = (
"203 286 OFFCURVE",
"186 302 OFFCURVE",
"186 324 CURVE SMOOTH",
"186 347 OFFCURVE",
"203 365 OFFCURVE",
"242 365 CURVE SMOOTH",
"282 365 OFFCURVE",
"298 347 OFFCURVE",
"298 324 CURVE SMOOTH",
"298 302 OFFCURVE",
"282 286 OFFCURVE",
"242 286 CURVE SMOOTH"
);
},
{
closed = 1;
nodes = (
"383 118 LINE SMOOTH",
"355 118 OFFCURVE",
"340 125 OFFCURVE",
"340 143 CURVE SMOOTH",
"340 160 OFFCURVE",
"361 178 OFFCURVE",
"422 222 CURVE SMOOTH",
"524 296 OFFCURVE",
"549 327 OFFCURVE",
"549 405 CURVE SMOOTH",
"549 454 OFFCURVE",
"536 497 OFFCURVE",
"498 529 CURVE SMOOTH",
"463 559 OFFCURVE",
"406 581 OFFCURVE",
"324 581 CURVE SMOOTH",
"306 581 LINE SMOOTH",
"224 581 OFFCURVE",
"167 559 OFFCURVE",
"132 529 CURVE SMOOTH",
"94 497 OFFCURVE",
"82 454 OFFCURVE",
"82 396 CURVE SMOOTH",
"82 285 OFFCURVE",
"146 226 OFFCURVE",
"236 226 CURVE SMOOTH",
"307 226 OFFCURVE",
"342 267 OFFCURVE",
"342 324 CURVE SMOOTH",
"342 384 OFFCURVE",
"305 424 OFFCURVE",
"242 424 CURVE SMOOTH",
"182 424 OFFCURVE",
"146 384 OFFCURVE",
"146 324 CURVE SMOOTH",
"146 299 OFFCURVE",
"153 278 OFFCURVE",
"166 262 CURVE",
"166 320 LINE",
"155 328 OFFCURVE",
"143 350 OFFCURVE",
"143 380 CURVE SMOOTH",
"143 393 LINE SMOOTH",
"143 455 OFFCURVE",
"207 472 OFFCURVE",
"298 472 CURVE SMOOTH",
"390 472 OFFCURVE",
"455 455 OFFCURVE",
"455 390 CURVE SMOOTH",
"455 372 LINE SMOOTH",
"455 317 OFFCURVE",
"433 299 OFFCURVE",
"358 245 CURVE SMOOTH",
"300 203 OFFCURVE",
"250 162 OFFCURVE",
"250 92 CURVE SMOOTH",
"250 24 OFFCURVE",
"290 -10 OFFCURVE",
"374 -10 CURVE SMOOTH",
"385 -10 OFFCURVE",
"401 -9 OFFCURVE",
"410 -7 CURVE",
"410 118 LINE"
);
},
{
closed = 1;
nodes = (
"439 589 OFFCURVE",
"486 610 OFFCURVE",
"519 640 CURVE SMOOTH",
"560 678 OFFCURVE",
"575 724 OFFCURVE",
"575 778 CURVE SMOOTH",
"575 831 OFFCURVE",
"561 877 OFFCURVE",
"519 912 CURVE SMOOTH",
"480 945 OFFCURVE",
"417 968 OFFCURVE",
"325 968 CURVE SMOOTH",
"305 968 LINE SMOOTH",
"213 968 OFFCURVE",
"150 945 OFFCURVE",
"111 912 CURVE SMOOTH",
"69 877 OFFCURVE",
"55 831 OFFCURVE",
"55 768 CURVE SMOOTH",
"55 649 OFFCURVE",
"127 586 OFFCURVE",
"227 586 CURVE SMOOTH",
"303 586 OFFCURVE",
"341 629 OFFCURVE",
"341 690 CURVE SMOOTH",
"341 754 OFFCURVE",
"301 796 OFFCURVE",
"234 796 CURVE SMOOTH",
"167 796 OFFCURVE",
"127 754 OFFCURVE",
"127 690 CURVE SMOOTH",
"127 663 OFFCURVE",
"135 640 OFFCURVE",
"149 623 CURVE",
"149 686 LINE",
"136 694 OFFCURVE",
"121 718 OFFCURVE",
"121 751 CURVE SMOOTH",
"121 765 LINE SMOOTH",
"121 832 OFFCURVE",
"201 850 OFFCURVE",
"315 850 CURVE SMOOTH",
"429 850 OFFCURVE",
"509 832 OFFCURVE",
"509 780 CURVE SMOOTH",
"509 775 LINE SMOOTH",
"509 725 OFFCURVE",
"453 708 OFFCURVE",
"372 706 CURVE",
"372 591 LINE"
);
},
{
closed = 1;
nodes = (
"190 649 OFFCURVE",
"171 666 OFFCURVE",
"171 690 CURVE SMOOTH",
"171 715 OFFCURVE",
"190 734 OFFCURVE",
"234 734 CURVE SMOOTH",
"278 734 OFFCURVE",
"297 715 OFFCURVE",
"297 690 CURVE SMOOTH",
"297 666 OFFCURVE",
"278 649 OFFCURVE",
"234 649 CURVE SMOOTH"
);
}
);
width = 600;
}
);
unicode = A9F1;
script = myanmar;
category = Number;
subCategory = "Decimal Digit";
},
{
glyphname = two_tlg;
lastChange = "2017-02-22 17:31:34 +0000";
layers = (
{
color = -1;
layerId = "6DF5D8D3-1700-4463-A28F-E0E9C2C73C46";
paths = (
{
closed = 1;
nodes = (
"556 163 LINE",
"532 71 OFFCURVE",
"451 17 OFFCURVE",
"329 17 CURVE SMOOTH",
"173 17 OFFCURVE",
"91 106 OFFCURVE",
"91 247 CURVE SMOOTH",
"91 263 LINE SMOOTH",
"91 403 OFFCURVE",
"173 493 OFFCURVE",
"329 493 CURVE SMOOTH",
"385 493 OFFCURVE",
"433 481 OFFCURVE",
"470 459 CURVE",
"516 612 OFFCURVE",
"552 791 OFFCURVE",
"566 941 CURVE",
"546 941 LINE",
"527 795 OFFCURVE",
"496 619 OFFCURVE",
"453 483 CURVE",
"466 493 LINE",
"430 509 OFFCURVE",
"380 520 OFFCURVE",
"324 520 CURVE SMOOTH",
"236 520 OFFCURVE",
"169 494 OFFCURVE",
"124 436 CURVE SMOOTH",
"86 387 OFFCURVE",
"71 325 OFFCURVE",
"71 255 CURVE SMOOTH",
"71 181 OFFCURVE",
"88 121 OFFCURVE",
"124 74 CURVE SMOOTH",
"166 20 OFFCURVE",
"232 -10 OFFCURVE",
"319 -10 CURVE SMOOTH",
"339 -10 LINE SMOOTH",
"459 -10 OFFCURVE",
"552 51 OFFCURVE",
"578 163 CURVE"
);
},
{
closed = 1;
nodes = (
"74 941 LINE",
"97 792 OFFCURVE",
"150 695 OFFCURVE",
"319 695 CURVE SMOOTH",
"488 695 OFFCURVE",
"541 792 OFFCURVE",
"564 941 CURVE",
"542 941 LINE",
"520 797 OFFCURVE",
"461 723 OFFCURVE",
"319 723 CURVE SMOOTH",
"177 723 OFFCURVE",
"118 797 OFFCURVE",
"96 941 CURVE"
);
}
);
width = 658;
},
{
color = -1;
layerId = "BE49CA0D-7169-41D2-A70B-CE6F74D40E44";
paths = (
{
closed = 1;
nodes = (
"506 213 LINE",
"498 156 OFFCURVE",
"429 118 OFFCURVE",
"313 118 CURVE SMOOTH",
"201 118 OFFCURVE",
"121 154 OFFCURVE",
"121 258 CURVE SMOOTH",
"121 268 LINE SMOOTH",
"121 372 OFFCURVE",
"201 408 OFFCURVE",
"316 408 CURVE SMOOTH",
"380 408 OFFCURVE",
"429 397 OFFCURVE",
"466 382 CURVE",
"519 554 OFFCURVE",
"575 818 OFFCURVE",
"591 968 CURVE",
"510 968 LINE",
"499 782 OFFCURVE",
"455 594 OFFCURVE",
"404 427 CURVE",
"463 513 LINE",
"432 528 OFFCURVE",
"383 536 OFFCURVE",
"325 536 CURVE SMOOTH",
"230 536 OFFCURVE",
"160 515 OFFCURVE",
"111 452 CURVE SMOOTH",
"74 404 OFFCURVE",
"55 341 OFFCURVE",
"55 261 CURVE SMOOTH",
"55 186 OFFCURVE",
"72 121 OFFCURVE",
"111 72 CURVE SMOOTH",
"156 15 OFFCURVE",
"223 -10 OFFCURVE",
"308 -10 CURVE SMOOTH",
"328 -10 LINE SMOOTH",
"470 -10 OFFCURVE",
"567 79 OFFCURVE",
"572 213 CURVE"
);
},
{
closed = 1;
nodes = (
"58 968 LINE",
"72 786 OFFCURVE",
"116 656 OFFCURVE",
"315 656 CURVE SMOOTH",
"514 656 OFFCURVE",
"558 786 OFFCURVE",
"572 968 CURVE",
"507 968 LINE",
"480 842 OFFCURVE",
"437 784 OFFCURVE",
"315 784 CURVE SMOOTH",
"193 784 OFFCURVE",
"150 842 OFFCURVE",
"123 968 CURVE"
);
}
);
width = 630;
},
{
color = -1;
layerId = "719AC85C-8AED-41E6-95C2-58F38387964A";
paths = (
{
closed = 1;
nodes = (
"497 239 LINE",
"481 197 OFFCURVE",
"418 178 OFFCURVE",
"314 178 CURVE SMOOTH",
"218 178 OFFCURVE",
"126 194 OFFCURVE",
"126 265 CURVE SMOOTH",
"126 271 LINE SMOOTH",
"126 343 OFFCURVE",
"218 359 OFFCURVE",
"315 359 CURVE SMOOTH",
"392 359 OFFCURVE",
"444 349 OFFCURVE",
"477 336 CURVE",
"546 538 OFFCURVE",
"590 767 OFFCURVE",
"603 988 CURVE",
"501 988 LINE",
"497 828 OFFCURVE",
"466 601 OFFCURVE",
"419 470 CURVE",
"472 509 LINE",
"428 535 OFFCURVE",
"379 546 OFFCURVE",
"314 546 CURVE SMOOTH",
"215 546 OFFCURVE",
"148 521 OFFCURVE",
"103 465 CURVE SMOOTH",
"68 422 OFFCURVE",
"45 356 OFFCURVE",
"45 269 CURVE SMOOTH",
"45 187 OFFCURVE",
"65 119 OFFCURVE",
"103 72 CURVE SMOOTH",
"147 18 OFFCURVE",
"217 -10 OFFCURVE",
"303 -10 CURVE SMOOTH",
"325 -10 LINE SMOOTH",
"478 -10 OFFCURVE",
"578 82 OFFCURVE",
"581 239 CURVE"
);
},
{
closed = 1;
nodes = (
"48 988 LINE",
"62 804 OFFCURVE",
"105 673 OFFCURVE",
"312 673 CURVE SMOOTH",
"519 673 OFFCURVE",
"562 804 OFFCURVE",
"576 988 CURVE",
"501 988 LINE",
"478 890 OFFCURVE",
"431 841 OFFCURVE",
"312 841 CURVE SMOOTH",
"193 841 OFFCURVE",
"145 890 OFFCURVE",
"123 988 CURVE"
);
}
);
width = 628;
},
{
color = -1;
layerId = "75CF80E9-B2FC-4BD6-93D9-27AF395083D0";
paths = (
{
closed = 1;
nodes = (
"402 163 LINE",
"388 69 OFFCURVE",
"334 20 OFFCURVE",
"249 20 CURVE SMOOTH",
"143 20 OFFCURVE",
"89 95 OFFCURVE",
"89 244 CURVE SMOOTH",
"89 268 LINE SMOOTH",
"89 418 OFFCURVE",
"143 492 OFFCURVE",
"249 492 CURVE SMOOTH",
"288 492 OFFCURVE",
"321 481 OFFCURVE",
"347 460 CURVE",
"380 613 OFFCURVE",
"406 791 OFFCURVE",
"416 941 CURVE",
"398 941 LINE",
"385 795 OFFCURVE",
"363 620 OFFCURVE",
"333 484 CURVE",
"344 494 LINE",
"320 509 OFFCURVE",
"285 520 OFFCURVE",
"242 520 CURVE SMOOTH",
"183 520 OFFCURVE",
"134 489 OFFCURVE",
"107 444 CURVE SMOOTH",
"80 400 OFFCURVE",
"69 334 OFFCURVE",
"69 256 CURVE SMOOTH",
"69 178 OFFCURVE",
"80 112 OFFCURVE",
"107 68 CURVE SMOOTH",
"134 24 OFFCURVE",
"183 -8 OFFCURVE",
"242 -8 CURVE SMOOTH",
"256 -8 LINE SMOOTH",
"340 -8 OFFCURVE",
"406 51 OFFCURVE",
"423 163 CURVE"
);
},
{
closed = 1;
nodes = (
"71 941 LINE",
"87 792 OFFCURVE",
"123 696 OFFCURVE",
"243 696 CURVE SMOOTH",
"361 696 OFFCURVE",
"398 792 OFFCURVE",
"413 941 CURVE",
"396 941 LINE",
"380 797 OFFCURVE",
"340 724 OFFCURVE",
"243 724 CURVE SMOOTH",
"146 724 OFFCURVE",
"106 797 OFFCURVE",
"91 941 CURVE"
);
}
);
width = 498;
},
{
color = -1;
layerId = "949D5271-AFC5-4116-8DE3-A7795FBFC928";
paths = (
{
closed = 1;
nodes = (
"370 209 LINE",
"365 152 OFFCURVE",
"319 113 OFFCURVE",
"244 113 CURVE SMOOTH",
"168 113 OFFCURVE",
"114 164 OFFCURVE",
"114 255 CURVE SMOOTH",
"114 272 LINE SMOOTH",
"114 363 OFFCURVE",
"168 414 OFFCURVE",
"244 414 CURVE SMOOTH",
"299 414 OFFCURVE",
"336 402 OFFCURVE",
"362 386 CURVE",
"407 565 OFFCURVE",
"439 813 OFFCURVE",
"449 968 CURVE",
"378 968 LINE",
"375 782 OFFCURVE",
"350 595 OFFCURVE",
"311 428 CURVE",
"356 514 LINE",
"325 529 OFFCURVE",
"289 536 OFFCURVE",
"242 536 CURVE SMOOTH",
"172 536 OFFCURVE",
"121 506 OFFCURVE",
"90 454 CURVE SMOOTH",
"63 409 OFFCURVE",
"52 348 OFFCURVE",
"52 264 CURVE SMOOTH",
"52 179 OFFCURVE",
"63 118 OFFCURVE",
"90 73 CURVE SMOOTH",
"121 22 OFFCURVE",
"172 -9 OFFCURVE",
"236 -9 CURVE SMOOTH",
"252 -9 LINE SMOOTH",
"358 -9 OFFCURVE",
"429 76 OFFCURVE",
"433 209 CURVE"
);
},
{
closed = 1;
nodes = (
"54 968 LINE",
"65 784 OFFCURVE",
"95 656 OFFCURVE",
"242 656 CURVE SMOOTH",
"390 656 OFFCURVE",
"421 786 OFFCURVE",
"430 968 CURVE",
"378 968 LINE",
"361 840 OFFCURVE",
"328 784 OFFCURVE",
"242 784 CURVE SMOOTH",
"158 784 OFFCURVE",
"123 840 OFFCURVE",
"107 968 CURVE"
);
}
);
width = 488;
},
{
color = -1;
layerId = "89CE42BF-A6C4-4DEE-B312-858F60FB84E5";
paths = (
{
closed = 1;
nodes = (
"360 240 LINE",
"351 196 OFFCURVE",
"310 171 OFFCURVE",
"243 171 CURVE SMOOTH",
"178 171 OFFCURVE",
"121 199 OFFCURVE",
"121 266 CURVE SMOOTH",
"121 274 LINE SMOOTH",
"121 340 OFFCURVE",
"177 368 OFFCURVE",
"242 368 CURVE SMOOTH",
"302 368 OFFCURVE",
"342 355 OFFCURVE",
"365 337 CURVE",
"419 539 OFFCURVE",
"452 768 OFFCURVE",
"462 988 CURVE",
"373 988 LINE",
"372 828 OFFCURVE",
"350 602 OFFCURVE",
"315 471 CURVE",
"361 510 LINE",
"326 535 OFFCURVE",
"294 546 OFFCURVE",
"238 546 CURVE SMOOTH",
"167 546 OFFCURVE",
"113 516 OFFCURVE",
"80 459 CURVE SMOOTH",
"57 418 OFFCURVE",
"43 357 OFFCURVE",
"43 270 CURVE SMOOTH",
"43 182 OFFCURVE",
"57 121 OFFCURVE",
"80 80 CURVE SMOOTH",
"112 23 OFFCURVE",
"168 -7 OFFCURVE",
"234 -7 CURVE SMOOTH",
"252 -7 LINE SMOOTH",
"366 -7 OFFCURVE",
"439 81 OFFCURVE",
"442 240 CURVE"
);
},
{
closed = 1;
nodes = (
"45 988 LINE",
"54 805 OFFCURVE",
"83 674 OFFCURVE",
"241 674 CURVE SMOOTH",
"400 674 OFFCURVE",
"429 805 OFFCURVE",
"437 988 CURVE",
"373 988 LINE",
"356 890 OFFCURVE",
"324 841 OFFCURVE",
"241 841 CURVE SMOOTH",
"159 841 OFFCURVE",
"126 890 OFFCURVE",
"110 988 CURVE"
);
}
);
width = 486;
}
);
leftMetricsKey = wa;
widthMetricsKey = nga;
unicode = A9F2;
script = myanmar;
category = Number;
subCategory = "Decimal Digit";
},
{
glyphname = four_tlg;
lastChange = "2017-02-22 17:31:34 +0000";
layers = (
{
color = -1;
layerId = "6DF5D8D3-1700-4463-A28F-E0E9C2C73C46";
paths = (
{
closed = 1;
nodes = (
"560 221 LINE",
"560 208 LINE SMOOTH",
"560 87 OFFCURVE",
"479 18 OFFCURVE",
"334 18 CURVE SMOOTH",
"172 18 OFFCURVE",
"93 94 OFFCURVE",
"93 210 CURVE SMOOTH",
"93 306 OFFCURVE",
"124 375 OFFCURVE",
"256 416 CURVE SMOOTH",
"347 444 OFFCURVE",
"374 430 OFFCURVE",
"374 471 CURVE SMOOTH",
"374 510 OFFCURVE",
"349 498 OFFCURVE",
"256 525 CURVE SMOOTH",
"111 568 OFFCURVE",
"93 652 OFFCURVE",
"93 727 CURVE SMOOTH",
"93 846 OFFCURVE",
"172 922 OFFCURVE",
"334 922 CURVE SMOOTH",
"479 922 OFFCURVE",
"560 853 OFFCURVE",
"560 732 CURVE SMOOTH",
"560 719 LINE",
"580 719 LINE",
"581 724 OFFCURVE",
"581 729 OFFCURVE",
"581 733 CURVE SMOOTH",
"581 788 OFFCURVE",
"565 835 OFFCURVE",
"535 871 CURVE SMOOTH",
"494 921 OFFCURVE",
"424 950 OFFCURVE",
"335 950 CURVE SMOOTH",
"333 950 LINE SMOOTH",
"169 950 OFFCURVE",
"71 868 OFFCURVE",
"71 727 CURVE SMOOTH",
"71 575 OFFCURVE",
"164 524 OFFCURVE",
"268 498 CURVE SMOOTH",
"334 481 OFFCURVE",
"347 486 OFFCURVE",
"347 470 CURVE SMOOTH",
"347 454 OFFCURVE",
"333 460 OFFCURVE",
"269 443 CURVE SMOOTH",
"156 413 OFFCURVE",
"71 358 OFFCURVE",
"71 213 CURVE SMOOTH",
"71 74 OFFCURVE",
"166 -10 OFFCURVE",
"333 -10 CURVE SMOOTH",
"335 -10 LINE SMOOTH",
"424 -10 OFFCURVE",
"494 19 OFFCURVE",
"535 69 CURVE SMOOTH",
"565 105 OFFCURVE",
"581 152 OFFCURVE",
"581 207 CURVE SMOOTH",
"581 211 OFFCURVE",
"581 216 OFFCURVE",
"580 221 CURVE"
);
}
);
width = 652;
},
{
color = -1;
layerId = "BE49CA0D-7169-41D2-A70B-CE6F74D40E44";
paths = (
{
closed = 1;
nodes = (
"513 281 LINE",
"513 276 LINE SMOOTH",
"513 156 OFFCURVE",
"430 118 OFFCURVE",
"324 118 CURVE SMOOTH",
"216 118 OFFCURVE",
"147 157 OFFCURVE",
"147 246 CURVE SMOOTH",
"147 313 OFFCURVE",
"188 353 OFFCURVE",
"307 388 CURVE SMOOTH",
"434 425 OFFCURVE",
"466 407 OFFCURVE",
"466 484 CURVE SMOOTH",
"466 562 OFFCURVE",
"434 544 OFFCURVE",
"307 581 CURVE SMOOTH",
"188 616 OFFCURVE",
"147 655 OFFCURVE",
"147 723 CURVE SMOOTH",
"147 811 OFFCURVE",
"216 850 OFFCURVE",
"324 850 CURVE SMOOTH",
"430 850 OFFCURVE",
"513 812 OFFCURVE",
"513 692 CURVE SMOOTH",
"513 687 LINE",
"577 687 LINE",
"579 694 OFFCURVE",
"579 701 OFFCURVE",
"579 705 CURVE SMOOTH",
"579 783 OFFCURVE",
"564 844 OFFCURVE",
"527 891 CURVE SMOOTH",
"486 944 OFFCURVE",
"420 978 OFFCURVE",
"331 978 CURVE SMOOTH",
"309 978 LINE SMOOTH",
"160 978 OFFCURVE",
"55 882 OFFCURVE",
"55 734 CURVE SMOOTH",
"55 594 OFFCURVE",
"148 545 OFFCURVE",
"247 512 CURVE SMOOTH",
"280 501 OFFCURVE",
"285 498 OFFCURVE",
"285 484 CURVE SMOOTH",
"285 471 OFFCURVE",
"281 469 OFFCURVE",
"248 458 CURVE SMOOTH",
"148 425 OFFCURVE",
"55 373 OFFCURVE",
"55 234 CURVE SMOOTH",
"55 87 OFFCURVE",
"159 -10 OFFCURVE",
"309 -10 CURVE SMOOTH",
"331 -10 LINE SMOOTH",
"420 -10 OFFCURVE",
"486 24 OFFCURVE",
"527 77 CURVE SMOOTH",
"564 124 OFFCURVE",
"579 185 OFFCURVE",
"579 263 CURVE SMOOTH",
"579 267 OFFCURVE",
"579 274 OFFCURVE",
"577 281 CURVE"
);
}
);
width = 634;
},
{
color = -1;
layerId = "719AC85C-8AED-41E6-95C2-58F38387964A";
paths = (
{
closed = 1;
nodes = (
"502 319 LINE",
"502 316 LINE SMOOTH",
"502 197 OFFCURVE",
"415 181 OFFCURVE",
"323 181 CURVE SMOOTH",
"237 181 OFFCURVE",
"156 197 OFFCURVE",
"156 279 CURVE SMOOTH",
"156 337 OFFCURVE",
"195 370 OFFCURVE",
"298 396 CURVE SMOOTH",
"427 428 OFFCURVE",
"456 422 OFFCURVE",
"456 494 CURVE SMOOTH",
"456 566 OFFCURVE",
"427 560 OFFCURVE",
"298 592 CURVE SMOOTH",
"195 618 OFFCURVE",
"156 651 OFFCURVE",
"156 709 CURVE SMOOTH",
"156 791 OFFCURVE",
"237 807 OFFCURVE",
"323 807 CURVE SMOOTH",
"415 807 OFFCURVE",
"502 791 OFFCURVE",
"502 672 CURVE SMOOTH",
"502 669 LINE",
"580 669 LINE",
"582 680 OFFCURVE",
"583 697 OFFCURVE",
"583 716 CURVE SMOOTH",
"583 800 OFFCURVE",
"564 864 OFFCURVE",
"529 909 CURVE SMOOTH",
"485 965 OFFCURVE",
"413 998 OFFCURVE",
"327 998 CURVE SMOOTH",
"305 998 LINE SMOOTH",
"135 998 OFFCURVE",
"45 908 OFFCURVE",
"45 752 CURVE SMOOTH",
"45 601 OFFCURVE",
"130 552 OFFCURVE",
"236 518 CURVE SMOOTH",
"268 508 OFFCURVE",
"273 507 OFFCURVE",
"273 494 CURVE SMOOTH",
"273 481 OFFCURVE",
"268 480 OFFCURVE",
"236 470 CURVE SMOOTH",
"131 437 OFFCURVE",
"45 388 OFFCURVE",
"45 236 CURVE SMOOTH",
"45 82 OFFCURVE",
"133 -10 OFFCURVE",
"305 -10 CURVE SMOOTH",
"327 -10 LINE SMOOTH",
"413 -10 OFFCURVE",
"485 23 OFFCURVE",
"529 79 CURVE SMOOTH",
"564 124 OFFCURVE",
"583 188 OFFCURVE",
"583 272 CURVE SMOOTH",
"583 291 OFFCURVE",
"582 308 OFFCURVE",
"580 319 CURVE"
);
}
);
width = 628;
},
{
color = -1;
layerId = "75CF80E9-B2FC-4BD6-93D9-27AF395083D0";
paths = (
{
closed = 1;
nodes = (
"403 222 LINE",
"403 209 LINE SMOOTH",
"403 89 OFFCURVE",
"348 20 OFFCURVE",
"251 20 CURVE SMOOTH",
"145 20 OFFCURVE",
"91 96 OFFCURVE",
"91 211 CURVE SMOOTH",
"91 307 OFFCURVE",
"113 376 OFFCURVE",
"203 416 CURVE SMOOTH",
"267 445 OFFCURVE",
"287 431 OFFCURVE",
"287 471 CURVE SMOOTH",
"287 510 OFFCURVE",
"269 498 OFFCURVE",
"203 526 CURVE SMOOTH",
"104 567 OFFCURVE",
"91 652 OFFCURVE",
"91 727 CURVE SMOOTH",
"91 845 OFFCURVE",
"145 921 OFFCURVE",
"251 921 CURVE SMOOTH",
"348 921 OFFCURVE",
"403 852 OFFCURVE",
"403 732 CURVE SMOOTH",
"403 719 LINE",
"423 719 LINE",
"423 724 OFFCURVE",
"423 729 OFFCURVE",
"423 733 CURVE SMOOTH",
"423 788 OFFCURVE",
"412 834 OFFCURVE",
"391 870 CURVE SMOOTH",
"363 920 OFFCURVE",
"314 949 OFFCURVE",
"252 949 CURVE SMOOTH",
"249 949 LINE SMOOTH",
"138 949 OFFCURVE",
"69 867 OFFCURVE",
"69 727 CURVE SMOOTH",
"69 575 OFFCURVE",
"133 524 OFFCURVE",
"205 498 CURVE SMOOTH",
"248 482 OFFCURVE",
"256 486 OFFCURVE",
"256 471 CURVE SMOOTH",
"256 455 OFFCURVE",
"248 461 OFFCURVE",
"206 444 CURVE SMOOTH",
"129 413 OFFCURVE",
"69 359 OFFCURVE",
"69 214 CURVE SMOOTH",
"69 76 OFFCURVE",
"136 -8 OFFCURVE",
"249 -8 CURVE SMOOTH",
"252 -8 LINE SMOOTH",
"314 -8 OFFCURVE",
"363 21 OFFCURVE",
"391 71 CURVE SMOOTH",
"412 107 OFFCURVE",
"423 153 OFFCURVE",
"423 208 CURVE SMOOTH",
"423 212 OFFCURVE",
"423 217 OFFCURVE",
"423 222 CURVE"
);
}
);
width = 492;
},
{
color = -1;
layerId = "949D5271-AFC5-4116-8DE3-A7795FBFC928";
paths = (
{
closed = 1;
nodes = (
"369 277 LINE",
"369 272 LINE SMOOTH",
"369 152 OFFCURVE",
"309 114 OFFCURVE",
"244 114 CURVE SMOOTH",
"182 114 OFFCURVE",
"127 149 OFFCURVE",
"127 238 CURVE SMOOTH",
"127 307 OFFCURVE",
"151 352 OFFCURVE",
"228 386 CURVE SMOOTH",
"317 426 OFFCURVE",
"337 406 OFFCURVE",
"337 484 CURVE SMOOTH",
"337 562 OFFCURVE",
"317 542 OFFCURVE",
"228 582 CURVE SMOOTH",
"151 616 OFFCURVE",
"127 661 OFFCURVE",
"127 731 CURVE SMOOTH",
"127 819 OFFCURVE",
"182 854 OFFCURVE",
"244 854 CURVE SMOOTH",
"309 854 OFFCURVE",
"369 816 OFFCURVE",
"369 697 CURVE SMOOTH",
"369 692 LINE",
"422 692 LINE",
"423 699 OFFCURVE",
"423 706 OFFCURVE",
"423 710 CURVE SMOOTH",
"423 785 OFFCURVE",
"411 846 OFFCURVE",
"385 890 CURVE SMOOTH",
"357 943 OFFCURVE",
"307 977 OFFCURVE",
"248 977 CURVE SMOOTH",
"232 977 LINE SMOOTH",
"116 977 OFFCURVE",
"52 889 OFFCURVE",
"52 742 CURVE SMOOTH",
"52 606 OFFCURVE",
"113 545 OFFCURVE",
"185 511 CURVE SMOOTH",
"207 500 OFFCURVE",
"211 498 OFFCURVE",
"211 484 CURVE SMOOTH",
"211 470 OFFCURVE",
"207 468 OFFCURVE",
"185 457 CURVE SMOOTH",
"113 423 OFFCURVE",
"52 362 OFFCURVE",
"52 227 CURVE SMOOTH",
"52 79 OFFCURVE",
"116 -9 OFFCURVE",
"232 -9 CURVE SMOOTH",
"248 -9 LINE SMOOTH",
"307 -9 OFFCURVE",
"357 25 OFFCURVE",
"385 78 CURVE SMOOTH",
"411 123 OFFCURVE",
"423 183 OFFCURVE",
"423 259 CURVE SMOOTH",
"423 263 OFFCURVE",
"423 270 OFFCURVE",
"422 277 CURVE"
);
}
);
width = 475;
},
{
color = -1;
layerId = "89CE42BF-A6C4-4DEE-B312-858F60FB84E5";
paths = (
{
closed = 1;
nodes = (
"366 310 LINE",
"366 307 LINE SMOOTH",
"366 189 OFFCURVE",
"302 173 OFFCURVE",
"244 173 CURVE SMOOTH",
"193 173 OFFCURVE",
"135 191 OFFCURVE",
"135 278 CURVE SMOOTH",
"135 336 OFFCURVE",
"165 371 OFFCURVE",
"236 395 CURVE SMOOTH",
"331 428 OFFCURVE",
"352 422 OFFCURVE",
"352 494 CURVE SMOOTH",
"352 566 OFFCURVE",
"331 560 OFFCURVE",
"236 593 CURVE SMOOTH",
"165 617 OFFCURVE",
"135 652 OFFCURVE",
"135 710 CURVE SMOOTH",
"135 797 OFFCURVE",
"193 815 OFFCURVE",
"244 815 CURVE SMOOTH",
"302 815 OFFCURVE",
"366 799 OFFCURVE",
"366 681 CURVE SMOOTH",
"366 678 LINE",
"430 678 LINE",
"432 689 OFFCURVE",
"432 706 OFFCURVE",
"432 725 CURVE SMOOTH",
"432 804 OFFCURVE",
"418 864 OFFCURVE",
"392 908 CURVE SMOOTH",
"360 962 OFFCURVE",
"310 995 OFFCURVE",
"250 995 CURVE SMOOTH",
"232 995 LINE SMOOTH",
"111 995 OFFCURVE",
"43 911 OFFCURVE",
"43 756 CURVE SMOOTH",
"43 606 OFFCURVE",
"105 554 OFFCURVE",
"178 517 CURVE SMOOTH",
"197 509 OFFCURVE",
"199 507 OFFCURVE",
"199 494 CURVE SMOOTH",
"199 481 OFFCURVE",
"197 479 OFFCURVE",
"178 471 CURVE SMOOTH",
"105 434 OFFCURVE",
"43 382 OFFCURVE",
"43 232 CURVE SMOOTH",
"43 77 OFFCURVE",
"111 -7 OFFCURVE",
"232 -7 CURVE SMOOTH",
"250 -7 LINE SMOOTH",
"310 -7 OFFCURVE",
"360 26 OFFCURVE",
"392 81 CURVE SMOOTH",
"418 124 OFFCURVE",
"432 184 OFFCURVE",
"432 263 CURVE SMOOTH",
"432 282 OFFCURVE",
"432 299 OFFCURVE",
"430 310 CURVE"
);
}
);
width = 475;
}
);
leftMetricsKey = wa;
rightMetricsKey = wa;
unicode = A9F4;
script = myanmar;
category = Number;
subCategory = "Decimal Digit";
},
{
glyphname = five_tlg;
lastChange = "2017-02-22 17:31:34 +0000";
layers = (
{
color = -1;
components = (
{
name = ga;
transform = "{1, 0, 0, 1, 5, 0}";
}
);
layerId = "6DF5D8D3-1700-4463-A28F-E0E9C2C73C46";
paths = (
{
closed = 1;
nodes = (
"98 343 LINE",
"98 689 LINE SMOOTH",
"98 838 OFFCURVE",
"178 922 OFFCURVE",
"341 922 CURVE SMOOTH",
"490 922 OFFCURVE",
"571 852 OFFCURVE",
"571 729 CURVE SMOOTH",
"571 716 LINE",
"591 716 LINE",
"592 721 OFFCURVE",
"592 726 OFFCURVE",
"592 730 CURVE SMOOTH",
"592 786 OFFCURVE",
"576 834 OFFCURVE",
"546 870 CURVE SMOOTH",
"504 921 OFFCURVE",
"433 950 OFFCURVE",
"343 950 CURVE SMOOTH",
"341 950 LINE SMOOTH",
"239 950 OFFCURVE",
"170 917 OFFCURVE",
"128 864 CURVE SMOOTH",
"94 821 OFFCURVE",
"76 762 OFFCURVE",
"76 691 CURVE SMOOTH",
"76 260 LINE"
);
}
);
width = 663;
},
{
color = -1;
components = (
{
name = ga;
transform = "{1, 0, 0, 1, 5, 0}";
}
);
guideLines = (
{
angle = 180;
position = "{96, 968}";
}
);
layerId = "BE49CA0D-7169-41D2-A70B-CE6F74D40E44";
paths = (
{
closed = 1;
nodes = (
"134 410 LINE",
"134 676 LINE SMOOTH",
"134 812 OFFCURVE",
"212 850 OFFCURVE",
"324 850 CURVE SMOOTH",
"436 850 OFFCURVE",
"514 812 OFFCURVE",
"514 692 CURVE SMOOTH",
"514 687 LINE",
"578 687 LINE",
"580 694 OFFCURVE",
"580 701 OFFCURVE",
"580 705 CURVE SMOOTH",
"580 783 OFFCURVE",
"565 844 OFFCURVE",
"528 891 CURVE SMOOTH",
"487 944 OFFCURVE",
"419 978 OFFCURVE",
"330 978 CURVE SMOOTH",
"310 978 LINE SMOOTH",
"221 978 OFFCURVE",
"153 944 OFFCURVE",
"112 891 CURVE SMOOTH",
"75 844 OFFCURVE",
"60 783 OFFCURVE",
"60 700 CURVE SMOOTH",
"60 269 LINE"
);
}
);
width = 635;
},
{
color = -1;
components = (
{
name = ga;
transform = "{1, 0, 0, 1, 5, 0}";
}
);
layerId = "719AC85C-8AED-41E6-95C2-58F38387964A";
paths = (
{
closed = 1;
nodes = (
"140 332 LINE",
"140 675 LINE SMOOTH",
"140 791 OFFCURVE",
"230 807 OFFCURVE",
"323 807 CURVE SMOOTH",
"417 807 OFFCURVE",
"507 791 OFFCURVE",
"507 672 CURVE SMOOTH",
"507 669 LINE",
"585 669 LINE",
"587 680 OFFCURVE",
"588 697 OFFCURVE",
"588 715 CURVE SMOOTH",
"588 800 OFFCURVE",
"568 867 OFFCURVE",
"534 910 CURVE SMOOTH",
"491 963 OFFCURVE",
"421 998 OFFCURVE",
"330 998 CURVE SMOOTH",
"308 998 LINE SMOOTH",
"217 998 OFFCURVE",
"146 964 OFFCURVE",
"104 911 CURVE SMOOTH",
"65 862 OFFCURVE",
"50 800 OFFCURVE",
"50 715 CURVE SMOOTH",
"50 273 LINE"
);
}
);
width = 633;
},
{
color = -1;
components = (
{
name = ga;
transform = "{1, 0, 0, 1, 5, 0}";
}
);
layerId = "75CF80E9-B2FC-4BD6-93D9-27AF395083D0";
paths = (
{
closed = 1;
nodes = (
"96 382 LINE",
"96 688 LINE SMOOTH",
"96 837 OFFCURVE",
"151 921 OFFCURVE",
"258 921 CURVE SMOOTH",
"358 921 OFFCURVE",
"414 851 OFFCURVE",
"414 728 CURVE SMOOTH",
"414 715 LINE",
"432 715 LINE",
"433 720 OFFCURVE",
"433 725 OFFCURVE",
"433 729 CURVE SMOOTH",
"433 785 OFFCURVE",
"422 833 OFFCURVE",
"401 869 CURVE SMOOTH",
"371 920 OFFCURVE",
"322 949 OFFCURVE",
"260 949 CURVE SMOOTH",
"257 949 LINE SMOOTH",
"187 949 OFFCURVE",
"140 916 OFFCURVE",
"110 863 CURVE SMOOTH",
"86 820 OFFCURVE",
"74 761 OFFCURVE",
"74 690 CURVE SMOOTH",
"74 260 LINE"
);
}
);
width = 503;
},
{
color = -1;
components = (
{
name = ga;
transform = "{1, 0, 0, 1, 6, 0}";
}
);
layerId = "949D5271-AFC5-4116-8DE3-A7795FBFC928";
paths = (
{
closed = 1;
nodes = (
"130 370 LINE",
"130 698 LINE SMOOTH",
"130 797 OFFCURVE",
"178 853 OFFCURVE",
"256 853 CURVE SMOOTH",
"332 853 OFFCURVE",
"380 797 OFFCURVE",
"380 698 CURVE SMOOTH",
"380 686 LINE",
"440 686 LINE",
"441 689 OFFCURVE",
"442 696 OFFCURVE",
"442 700 CURVE SMOOTH",
"442 786 OFFCURVE",
"431 848 OFFCURVE",
"404 894 CURVE SMOOTH",
"373 946 OFFCURVE",
"322 977 OFFCURVE",
"258 977 CURVE SMOOTH",
"242 977 LINE SMOOTH",
"178 977 OFFCURVE",
"127 946 OFFCURVE",
"96 894 CURVE SMOOTH",
"69 848 OFFCURVE",
"58 786 OFFCURVE",
"58 700 CURVE SMOOTH",
"58 268 LINE"
);
}
);
width = 494;
},
{
color = -1;
components = (
{
name = ga;
transform = "{1, 0, 0, 1, 5, 0}";
}
);
layerId = "89CE42BF-A6C4-4DEE-B312-858F60FB84E5";
paths = (
{
closed = 1;
nodes = (
"132 395 LINE",
"132 693 LINE SMOOTH",
"132 778 OFFCURVE",
"184 815 OFFCURVE",
"258 815 CURVE SMOOTH",
"318 815 OFFCURVE",
"370 778 OFFCURVE",
"370 693 CURVE SMOOTH",
"370 669 LINE",
"443 668 LINE",
"446 680 OFFCURVE",
"448 701 OFFCURVE",
"448 715 CURVE SMOOTH",
"448 804 OFFCURVE",
"434 865 OFFCURVE",
"411 907 CURVE SMOOTH",
"379 965 OFFCURVE",
"323 995 OFFCURVE",
"257 995 CURVE SMOOTH",
"239 995 LINE SMOOTH",
"173 995 OFFCURVE",
"117 965 OFFCURVE",
"85 907 CURVE SMOOTH",
"62 865 OFFCURVE",
"48 804 OFFCURVE",
"48 715 CURVE SMOOTH",
"48 273 LINE"
);
}
);
width = 491;
}
);
leftMetricsKey = six_m;
rightMetricsKey = wa;
unicode = A9F5;
script = myanmar;
category = Number;
subCategory = "Decimal Digit";
},
{
glyphname = seven_tlg;
lastChange = "2017-02-22 17:31:34 +0000";
layers = (
{
color = -1;
layerId = "6DF5D8D3-1700-4463-A28F-E0E9C2C73C46";
paths = (
{
closed = 1;
nodes = (
"587 762 OFFCURVE",
"570 819 OFFCURVE",
"535 864 CURVE SMOOTH",
"494 917 OFFCURVE",
"427 950 OFFCURVE",
"336 950 CURVE SMOOTH",
"322 950 LINE SMOOTH",
"231 950 OFFCURVE",
"165 916 OFFCURVE",
"124 865 CURVE SMOOTH",
"87 819 OFFCURVE",
"71 761 OFFCURVE",
"71 680 CURVE SMOOTH",
"71 599 OFFCURVE",
"87 539 OFFCURVE",
"126 490 CURVE SMOOTH",
"162 445 OFFCURVE",
"220 410 OFFCURVE",
"303 410 CURVE",
"377 410 OFFCURVE",
"415 457 OFFCURVE",
"415 519 CURVE",
"415 457 OFFCURVE",
"366 434 OFFCURVE",
"299 434 CURVE SMOOTH",
"172 434 OFFCURVE",
"91 531 OFFCURVE",
"91 672 CURVE SMOOTH",
"91 688 LINE SMOOTH",
"91 831 OFFCURVE",
"173 922 OFFCURVE",
"329 922 CURVE SMOOTH",
"485 922 OFFCURVE",
"565 832 OFFCURVE",
"565 689 CURVE SMOOTH",
"565 171 LINE SMOOTH",
"565 24 OFFCURVE",
"611 -10 OFFCURVE",
"668 -10 CURVE SMOOTH",
"673 -10 OFFCURVE",
"683 -10 OFFCURVE",
"693 -9 CURVE",
"693 18 LINE",
"673 18 LINE SMOOTH",
"622 18 OFFCURVE",
"587 35 OFFCURVE",
"587 177 CURVE SMOOTH",
"587 683 LINE SMOOTH"
);
},
{
closed = 1;
nodes = (
"377 410 OFFCURVE",
"415 457 OFFCURVE",
"415 519 CURVE SMOOTH",
"415 581 OFFCURVE",
"377 628 OFFCURVE",
"303 628 CURVE SMOOTH",
"229 628 OFFCURVE",
"191 581 OFFCURVE",
"191 519 CURVE SMOOTH",
"191 457 OFFCURVE",
"229 410 OFFCURVE",
"303 410 CURVE SMOOTH"
);
},
{
closed = 1;
nodes = (
"240 436 OFFCURVE",
"211 472 OFFCURVE",
"211 519 CURVE SMOOTH",
"211 566 OFFCURVE",
"240 602 OFFCURVE",
"303 602 CURVE SMOOTH",
"366 602 OFFCURVE",
"395 566 OFFCURVE",
"395 519 CURVE SMOOTH",
"395 472 OFFCURVE",
"366 436 OFFCURVE",
"303 436 CURVE SMOOTH"
);
}
);
width = 735;
},
{
color = -1;
layerId = "BE49CA0D-7169-41D2-A70B-CE6F74D40E44";
paths = (
{
closed = 1;
nodes = (
"575 783 OFFCURVE",
"560 844 OFFCURVE",
"523 891 CURVE SMOOTH",
"482 944 OFFCURVE",
"414 978 OFFCURVE",
"325 978 CURVE SMOOTH",
"305 978 LINE SMOOTH",
"216 978 OFFCURVE",
"148 944 OFFCURVE",
"107 892 CURVE SMOOTH",
"70 844 OFFCURVE",
"55 781 OFFCURVE",
"55 702 CURVE SMOOTH",
"55 618 OFFCURVE",
"72 557 OFFCURVE",
"107 508 CURVE SMOOTH",
"146 454 OFFCURVE",
"203 422 OFFCURVE",
"281 422 CURVE SMOOTH",
"373 422 OFFCURVE",
"415 480 OFFCURVE",
"415 584 CURVE",
"351 514 OFFCURVE",
"308 517 OFFCURVE",
"254 517 CURVE",
"147 517 OFFCURVE",
"121 574 OFFCURVE",
"121 665 CURVE SMOOTH",
"121 685 LINE SMOOTH",
"121 809 OFFCURVE",
"202 850 OFFCURVE",
"309 850 CURVE SMOOTH",
"424 850 OFFCURVE",
"501 802 OFFCURVE",
"501 680 CURVE SMOOTH",
"501 202 LINE SMOOTH",
"501 49 OFFCURVE",
"564 -9 OFFCURVE",
"669 -9 CURVE SMOOTH",
"678 -9 OFFCURVE",
"687 -9 OFFCURVE",
"696 -8 CURVE",
"696 120 LINE",
"681 120 LINE SMOOTH",
"599 120 OFFCURVE",
"575 152 OFFCURVE",
"575 234 CURVE SMOOTH",
"575 700 LINE SMOOTH"
);
},
{
closed = 1;
nodes = (
"365 454 OFFCURVE",
"415 507 OFFCURVE",
"415 584 CURVE SMOOTH",
"415 663 OFFCURVE",
"365 716 OFFCURVE",
"281 716 CURVE SMOOTH",
"197 716 OFFCURVE",
"147 663 OFFCURVE",
"147 584 CURVE SMOOTH",
"147 507 OFFCURVE",
"197 454 OFFCURVE",
"281 454 CURVE SMOOTH"
);
},
{
closed = 1;
nodes = (
"226 532 OFFCURVE",
"202 554 OFFCURVE",
"202 584 CURVE SMOOTH",
"202 615 OFFCURVE",
"226 638 OFFCURVE",
"281 638 CURVE SMOOTH",
"336 638 OFFCURVE",
"360 615 OFFCURVE",
"360 584 CURVE SMOOTH",
"360 554 OFFCURVE",
"336 532 OFFCURVE",
"281 532 CURVE SMOOTH"
);
}
);
width = 720;
},
{
color = -1;
layerId = "719AC85C-8AED-41E6-95C2-58F38387964A";
paths = (
{
closed = 1;
nodes = (
"583 800 OFFCURVE",
"567 862 OFFCURVE",
"529 910 CURVE SMOOTH",
"487 963 OFFCURVE",
"416 998 OFFCURVE",
"325 998 CURVE SMOOTH",
"303 998 LINE SMOOTH",
"212 998 OFFCURVE",
"142 963 OFFCURVE",
"99 910 CURVE SMOOTH",
"61 862 OFFCURVE",
"45 800 OFFCURVE",
"45 715 CURVE SMOOTH",
"45 630 OFFCURVE",
"61 568 OFFCURVE",
"102 515 CURVE SMOOTH",
"139 467 OFFCURVE",
"190 432 OFFCURVE",
"267 432 CURVE SMOOTH",
"369 432 OFFCURVE",
"404 506 OFFCURVE",
"404 615 CURVE",
"379 575 OFFCURVE",
"352 556 OFFCURVE",
"271 556 CURVE SMOOTH",
"163 556 OFFCURVE",
"126 657 OFFCURVE",
"126 702 CURVE SMOOTH",
"126 706 LINE SMOOTH",
"126 795 OFFCURVE",
"215 807 OFFCURVE",
"310 807 CURVE SMOOTH",
"402 807 OFFCURVE",
"493 791 OFFCURVE",
"493 656 CURVE SMOOTH",
"493 196 LINE SMOOTH",
"493 56 OFFCURVE",
"551 -10 OFFCURVE",
"697 -10 CURVE SMOOTH",
"705 -10 OFFCURVE",
"713 -10 OFFCURVE",
"721 -9 CURVE",
"721 182 LINE",
"692 182 LINE SMOOTH",
"617 182 OFFCURVE",
"583 204 OFFCURVE",
"583 268 CURVE SMOOTH",
"583 715 LINE SMOOTH"
);
},
{
closed = 1;
nodes = (
"352 494 OFFCURVE",
"404 541 OFFCURVE",
"404 615 CURVE SMOOTH",
"404 702 OFFCURVE",
"352 756 OFFCURVE",
"270 756 CURVE SMOOTH",
"188 756 OFFCURVE",
"136 705 OFFCURVE",
"136 624 CURVE SMOOTH",
"136 545 OFFCURVE",
"188 494 OFFCURVE",
"270 494 CURVE SMOOTH"
);
},
{
closed = 1;
nodes = (
"218 580 OFFCURVE",
"196 598 OFFCURVE",
"196 624 CURVE SMOOTH",
"196 651 OFFCURVE",
"218 670 OFFCURVE",
"270 670 CURVE SMOOTH",
"322 670 OFFCURVE",
"344 651 OFFCURVE",
"344 624 CURVE SMOOTH",
"344 598 OFFCURVE",
"322 580 OFFCURVE",
"270 580 CURVE SMOOTH"
);
}
);
width = 738;
},
{
color = -1;
layerId = "75CF80E9-B2FC-4BD6-93D9-27AF395083D0";
paths = (
{
closed = 1;
nodes = (
"430 760 OFFCURVE",
"418 827 OFFCURVE",
"391 872 CURVE SMOOTH",
"364 917 OFFCURVE",
"315 949 OFFCURVE",
"256 949 CURVE SMOOTH",
"242 949 LINE SMOOTH",
"183 949 OFFCURVE",
"134 917 OFFCURVE",
"107 872 CURVE SMOOTH",
"80 827 OFFCURVE",
"69 760 OFFCURVE",
"69 681 CURVE SMOOTH",
"69 604 OFFCURVE",
"80 542 OFFCURVE",
"107 493 CURVE SMOOTH",
"132 448 OFFCURVE",
"172 413 OFFCURVE",
"230 413 CURVE",
"283 413 OFFCURVE",
"310 459 OFFCURVE",
"310 521 CURVE",
"303 459 OFFCURVE",
"269 437 OFFCURVE",
"224 437 CURVE SMOOTH",
"139 437 OFFCURVE",
"89 536 OFFCURVE",
"89 673 CURVE SMOOTH",
"89 693 LINE SMOOTH",
"89 845 OFFCURVE",
"143 921 OFFCURVE",
"249 921 CURVE SMOOTH",
"354 921 OFFCURVE",
"408 845 OFFCURVE",
"408 693 CURVE SMOOTH",
"408 140 LINE SMOOTH",
"408 17 OFFCURVE",
"437 -8 OFFCURVE",
"489 -8 CURVE SMOOTH",
"494 -8 OFFCURVE",
"502 -8 OFFCURVE",
"508 -7 CURVE",
"508 20 LINE",
"495 20 LINE SMOOTH",
"445 20 OFFCURVE",
"430 34 OFFCURVE",
"430 146 CURVE SMOOTH",
"430 682 LINE SMOOTH"
);
},
{
closed = 1;
nodes = (
"282 413 OFFCURVE",
"310 459 OFFCURVE",
"310 521 CURVE SMOOTH",
"310 582 OFFCURVE",
"282 629 OFFCURVE",
"230 629 CURVE SMOOTH",
"177 629 OFFCURVE",
"149 582 OFFCURVE",
"149 521 CURVE SMOOTH",
"149 459 OFFCURVE",
"177 413 OFFCURVE",
"230 413 CURVE SMOOTH"
);
},
{
closed = 1;
nodes = (
"187 438 OFFCURVE",
"167 474 OFFCURVE",
"167 521 CURVE SMOOTH",
"167 568 OFFCURVE",
"187 604 OFFCURVE",
"230 604 CURVE SMOOTH",
"273 604 OFFCURVE",
"292 568 OFFCURVE",
"292 521 CURVE SMOOTH",
"292 474 OFFCURVE",
"273 438 OFFCURVE",
"230 438 CURVE SMOOTH"
);
}
);
width = 550;
},
{
color = -1;
layerId = "949D5271-AFC5-4116-8DE3-A7795FBFC928";
paths = (
{
closed = 1;
nodes = (
"436 786 OFFCURVE",
"425 848 OFFCURVE",
"398 894 CURVE SMOOTH",
"367 946 OFFCURVE",
"316 977 OFFCURVE",
"252 977 CURVE SMOOTH",
"236 977 LINE SMOOTH",
"172 977 OFFCURVE",
"121 946 OFFCURVE",
"90 894 CURVE SMOOTH",
"63 848 OFFCURVE",
"52 786 OFFCURVE",
"52 700 CURVE SMOOTH",
"52 614 OFFCURVE",
"59 552 OFFCURVE",
"90 502 CURVE SMOOTH",
"121 451 OFFCURVE",
"160 423 OFFCURVE",
"207 423 CURVE SMOOTH",
"274 423 OFFCURVE",
"301 481 OFFCURVE",
"301 584 CURVE",
"280 553 OFFCURVE",
"256 517 OFFCURVE",
"208 517 CURVE SMOOTH",
"152 517 OFFCURVE",
"114 574 OFFCURVE",
"114 665 CURVE SMOOTH",
"114 709 LINE SMOOTH",
"114 801 OFFCURVE",
"166 853 OFFCURVE",
"238 853 CURVE SMOOTH",
"312 853 OFFCURVE",
"364 797 OFFCURVE",
"364 698 CURVE SMOOTH",
"364 197 LINE SMOOTH",
"364 49 OFFCURVE",
"403 -9 OFFCURVE",
"518 -9 CURVE SMOOTH",
"525 -9 OFFCURVE",
"533 -9 OFFCURVE",
"542 -8 CURVE",
"542 120 LINE",
"510 120 LINE SMOOTH",
"463 120 OFFCURVE",
"436 148 OFFCURVE",
"436 229 CURVE SMOOTH",
"436 700 LINE SMOOTH"
);
},
{
closed = 1;
nodes = (
"276 456 OFFCURVE",
"301 508 OFFCURVE",
"301 584 CURVE SMOOTH",
"301 662 OFFCURVE",
"276 714 OFFCURVE",
"211 714 CURVE SMOOTH",
"146 714 OFFCURVE",
"121 662 OFFCURVE",
"121 584 CURVE SMOOTH",
"121 508 OFFCURVE",
"146 456 OFFCURVE",
"211 456 CURVE SMOOTH"
);
},
{
closed = 1;
nodes = (
"177 532 OFFCURVE",
"163 554 OFFCURVE",
"163 584 CURVE SMOOTH",
"163 615 OFFCURVE",
"177 638 OFFCURVE",
"211 638 CURVE SMOOTH",
"245 638 OFFCURVE",
"259 615 OFFCURVE",
"259 584 CURVE SMOOTH",
"259 554 OFFCURVE",
"245 532 OFFCURVE",
"211 532 CURVE SMOOTH"
);
}
);
width = 561;
},
{
color = -1;
layerId = "89CE42BF-A6C4-4DEE-B312-858F60FB84E5";
paths = (
{
closed = 1;
nodes = (
"443 804 OFFCURVE",
"429 865 OFFCURVE",
"406 907 CURVE SMOOTH",
"374 965 OFFCURVE",
"318 995 OFFCURVE",
"252 995 CURVE SMOOTH",
"234 995 LINE SMOOTH",
"168 995 OFFCURVE",
"112 965 OFFCURVE",
"80 907 CURVE SMOOTH",
"57 865 OFFCURVE",
"43 804 OFFCURVE",
"43 715 CURVE SMOOTH",
"43 630 OFFCURVE",
"55 568 OFFCURVE",
"85 515 CURVE SMOOTH",
"112 467 OFFCURVE",
"149 435 OFFCURVE",
"201 435 CURVE SMOOTH",
"281 435 OFFCURVE",
"306 506 OFFCURVE",
"306 621 CURVE",
"278 567 OFFCURVE",
"243 553 OFFCURVE",
"202 553 CURVE SMOOTH",
"140 553 OFFCURVE",
"117 636 OFFCURVE",
"117 701 CURVE SMOOTH",
"117 715 LINE SMOOTH",
"117 786 OFFCURVE",
"169 815 OFFCURVE",
"233 815 CURVE SMOOTH",
"304 815 OFFCURVE",
"359 779 OFFCURVE",
"359 693 CURVE SMOOTH",
"359 197 LINE SMOOTH",
"359 56 OFFCURVE",
"403 -7 OFFCURVE",
"533 -7 CURVE SMOOTH",
"539 -7 OFFCURVE",
"546 -7 OFFCURVE",
"554 -6 CURVE",
"554 185 LINE",
"523 185 LINE SMOOTH",
"471 185 OFFCURVE",
"443 205 OFFCURVE",
"443 269 CURVE SMOOTH",
"443 715 LINE SMOOTH"
);
},
{
closed = 1;
nodes = (
"265 491 OFFCURVE",
"306 542 OFFCURVE",
"306 621 CURVE SMOOTH",
"306 702 OFFCURVE",
"265 753 OFFCURVE",
"204 753 CURVE SMOOTH",
"143 753 OFFCURVE",
"102 702 OFFCURVE",
"102 621 CURVE SMOOTH",
"102 542 OFFCURVE",
"143 491 OFFCURVE",
"204 491 CURVE SMOOTH"
);
},
{
closed = 1;
nodes = (
"171 576 OFFCURVE",
"156 594 OFFCURVE",
"156 621 CURVE SMOOTH",
"156 649 OFFCURVE",
"171 668 OFFCURVE",
"204 668 CURVE SMOOTH",
"237 668 OFFCURVE",
"252 649 OFFCURVE",
"252 621 CURVE SMOOTH",
"252 594 OFFCURVE",
"237 576 OFFCURVE",
"204 576 CURVE SMOOTH"
);
}
);
width = 563;
}
);
leftMetricsKey = wa;
unicode = A9F7;
script = myanmar;
category = Number;
subCategory = "Decimal Digit";
},
{
glyphname = eight_tlg;
lastChange = "2017-02-22 17:31:34 +0000";
layers = (
{
color = -1;
guideLines = (
{
angle = 168.033;
position = "{325, 527}";
}
);
layerId = "6DF5D8D3-1700-4463-A28F-E0E9C2C73C46";
paths = (
{
closed = 1;
nodes = (
"575 711 OFFCURVE",
"575 715 OFFCURVE",
"575 717 CURVE SMOOTH",
"575 863 OFFCURVE",
"488 950 OFFCURVE",
"341 950 CURVE SMOOTH",
"321 950 LINE SMOOTH",
"185 950 OFFCURVE",
"84 880 OFFCURVE",
"84 748 CURVE SMOOTH",
"84 602 OFFCURVE",
"177 557 OFFCURVE",
"298 529 CURVE SMOOTH",
"441 496 OFFCURVE",
"567 465 OFFCURVE",
"567 266 CURVE SMOOTH",
"567 106 OFFCURVE",
"485 18 OFFCURVE",
"330 18 CURVE SMOOTH",
"173 18 OFFCURVE",
"91 108 OFFCURVE",
"91 252 CURVE SMOOTH",
"91 268 LINE SMOOTH",
"91 411 OFFCURVE",
"173 502 OFFCURVE",
"329 502 CURVE SMOOTH",
"449 502 LINE",
"364 527 LINE",
"329 527 LINE",
"228 527 OFFCURVE",
"165 496 OFFCURVE",
"124 445 CURVE SMOOTH",
"87 399 OFFCURVE",
"71 341 OFFCURVE",
"71 260 CURVE SMOOTH",
"71 175 OFFCURVE",
"88 121 OFFCURVE",
"124 76 CURVE SMOOTH",
"168 21 OFFCURVE",
"234 -10 OFFCURVE",
"319 -10 CURVE SMOOTH",
"339 -10 LINE SMOOTH",
"427 -10 OFFCURVE",
"493 24 OFFCURVE",
"534 76 CURVE SMOOTH",
"570 121 OFFCURVE",
"587 179 OFFCURVE",
"587 262 CURVE SMOOTH",
"587 337 OFFCURVE",
"573 397 OFFCURVE",
"534 444 CURVE SMOOTH",
"403 603 OFFCURVE",
"104 508 OFFCURVE",
"104 748 CURVE SMOOTH",
"104 857 OFFCURVE",
"183 922 OFFCURVE",
"331 922 CURVE SMOOTH",
"484 922 OFFCURVE",
"555 845 OFFCURVE",
"555 714 CURVE SMOOTH",
"555 706 LINE",
"574 706 LINE"
);
}
);
width = 658;
},
{
color = -1;
layerId = "BE49CA0D-7169-41D2-A70B-CE6F74D40E44";
paths = (
{
closed = 1;
nodes = (
"576 694 OFFCURVE",
"576 701 OFFCURVE",
"576 705 CURVE SMOOTH",
"576 874 OFFCURVE",
"491 978 OFFCURVE",
"330 978 CURVE SMOOTH",
"310 978 LINE SMOOTH",
"148 978 OFFCURVE",
"65 877 OFFCURVE",
"65 700 CURVE SMOOTH",
"65 519 OFFCURVE",
"158 462 OFFCURVE",
"343 423 CURVE SMOOTH",
"460 398 OFFCURVE",
"509 360 OFFCURVE",
"509 263 CURVE SMOOTH",
"509 156 OFFCURVE",
"429 118 OFFCURVE",
"315 118 CURVE SMOOTH",
"201 118 OFFCURVE",
"121 156 OFFCURVE",
"121 263 CURVE SMOOTH",
"121 273 LINE SMOOTH",
"121 380 OFFCURVE",
"201 418 OFFCURVE",
"315 418 CURVE SMOOTH",
"459 418 LINE",
"329 546 LINE",
"305 546 LINE",
"216 546 OFFCURVE",
"148 512 OFFCURVE",
"107 459 CURVE SMOOTH",
"70 412 OFFCURVE",
"55 351 OFFCURVE",
"55 268 CURVE SMOOTH",
"55 185 OFFCURVE",
"70 124 OFFCURVE",
"107 77 CURVE SMOOTH",
"148 24 OFFCURVE",
"216 -10 OFFCURVE",
"305 -10 CURVE SMOOTH",
"325 -10 LINE SMOOTH",
"414 -10 OFFCURVE",
"482 24 OFFCURVE",
"523 77 CURVE SMOOTH",
"560 124 OFFCURVE",
"575 185 OFFCURVE",
"575 268 CURVE SMOOTH",
"575 351 OFFCURVE",
"560 412 OFFCURVE",
"523 459 CURVE SMOOTH",
"393 624 OFFCURVE",
"130 498 OFFCURVE",
"130 709 CURVE SMOOTH",
"130 813 OFFCURVE",
"210 850 OFFCURVE",
"324 850 CURVE SMOOTH",
"434 850 OFFCURVE",
"511 812 OFFCURVE",
"511 692 CURVE SMOOTH",
"511 687 LINE",
"574 687 LINE"
);
}
);
width = 631;
},
{
color = -1;
layerId = "719AC85C-8AED-41E6-95C2-58F38387964A";
paths = (
{
closed = 1;
nodes = (
"583 694 OFFCURVE",
"583 703 OFFCURVE",
"583 714 CURVE SMOOTH",
"583 894 OFFCURVE",
"494 998 OFFCURVE",
"330 998 CURVE SMOOTH",
"310 998 LINE SMOOTH",
"142 998 OFFCURVE",
"55 884 OFFCURVE",
"55 687 CURVE SMOOTH",
"55 491 OFFCURVE",
"145 416 OFFCURVE",
"343 382 CURVE SMOOTH",
"453 363 OFFCURVE",
"502 334 OFFCURVE",
"502 275 CURVE SMOOTH",
"502 197 OFFCURVE",
"416 181 OFFCURVE",
"317 181 CURVE SMOOTH",
"217 181 OFFCURVE",
"126 197 OFFCURVE",
"126 270 CURVE SMOOTH",
"126 276 LINE SMOOTH",
"126 349 OFFCURVE",
"218 365 OFFCURVE",
"314 365 CURVE SMOOTH",
"489 365 LINE",
"318 556 LINE",
"303 556 LINE",
"216 556 OFFCURVE",
"143 523 OFFCURVE",
"99 469 CURVE SMOOTH",
"61 422 OFFCURVE",
"45 359 OFFCURVE",
"45 274 CURVE SMOOTH",
"45 188 OFFCURVE",
"61 126 OFFCURVE",
"99 78 CURVE SMOOTH",
"144 22 OFFCURVE",
"217 -10 OFFCURVE",
"303 -10 CURVE SMOOTH",
"325 -10 LINE SMOOTH",
"412 -10 OFFCURVE",
"485 23 OFFCURVE",
"529 77 CURVE SMOOTH",
"568 125 OFFCURVE",
"583 190 OFFCURVE",
"583 272 CURVE SMOOTH",
"583 357 OFFCURVE",
"567 420 OFFCURVE",
"529 468 CURVE SMOOTH",
"407 622 OFFCURVE",
"135 521 OFFCURVE",
"135 687 CURVE SMOOTH",
"135 776 OFFCURVE",
"210 807 OFFCURVE",
"325 807 CURVE SMOOTH",
"431 807 OFFCURVE",
"502 778 OFFCURVE",
"502 692 CURVE SMOOTH",
"502 687 LINE",
"581 687 LINE"
);
}
);
width = 628;
},
{
color = -1;
layerId = "75CF80E9-B2FC-4BD6-93D9-27AF395083D0";
paths = (
{
closed = 1;
nodes = (
"420 711 OFFCURVE",
"420 715 OFFCURVE",
"420 717 CURVE SMOOTH",
"420 862 OFFCURVE",
"360 949 OFFCURVE",
"256 949 CURVE SMOOTH",
"242 949 LINE SMOOTH",
"146 949 OFFCURVE",
"78 879 OFFCURVE",
"78 748 CURVE SMOOTH",
"78 602 OFFCURVE",
"151 559 OFFCURVE",
"236 532 CURVE SMOOTH",
"364 491 OFFCURVE",
"409 429 OFFCURVE",
"409 260 CURVE SMOOTH",
"409 96 OFFCURVE",
"355 20 OFFCURVE",
"249 20 CURVE SMOOTH",
"143 20 OFFCURVE",
"89 96 OFFCURVE",
"89 248 CURVE SMOOTH",
"89 272 LINE SMOOTH",
"89 424 OFFCURVE",
"143 500 OFFCURVE",
"249 500 CURVE SMOOTH",
"336 500 LINE",
"275 525 LINE",
"242 525 LINE SMOOTH",
"183 525 OFFCURVE",
"134 496 OFFCURVE",
"107 451 CURVE SMOOTH",
"80 406 OFFCURVE",
"69 339 OFFCURVE",
"69 260 CURVE SMOOTH",
"69 181 OFFCURVE",
"80 114 OFFCURVE",
"107 69 CURVE SMOOTH",
"134 24 OFFCURVE",
"183 -8 OFFCURVE",
"242 -8 CURVE SMOOTH",
"256 -8 LINE SMOOTH",
"315 -8 OFFCURVE",
"364 24 OFFCURVE",
"391 69 CURVE SMOOTH",
"418 114 OFFCURVE",
"429 181 OFFCURVE",
"429 260 CURVE SMOOTH",
"429 339 OFFCURVE",
"418 406 OFFCURVE",
"391 451 CURVE",
"300 606 OFFCURVE",
"98 515 OFFCURVE",
"98 749 CURVE SMOOTH",
"98 858 OFFCURVE",
"152 921 OFFCURVE",
"250 921 CURVE SMOOTH",
"351 921 OFFCURVE",
"400 844 OFFCURVE",
"400 714 CURVE SMOOTH",
"400 706 LINE",
"419 706 LINE"
);
}
);
width = 498;
},
{
color = -1;
layerId = "949D5271-AFC5-4116-8DE3-A7795FBFC928";
paths = (
{
closed = 1;
nodes = (
"427 694 OFFCURVE",
"427 701 OFFCURVE",
"427 705 CURVE SMOOTH",
"427 873 OFFCURVE",
"365 977 OFFCURVE",
"251 977 CURVE SMOOTH",
"237 977 LINE SMOOTH",
"120 977 OFFCURVE",
"59 881 OFFCURVE",
"59 705 CURVE SMOOTH",
"59 524 OFFCURVE",
"124 459 OFFCURVE",
"260 424 CURVE SMOOTH",
"338 404 OFFCURVE",
"374 358 OFFCURVE",
"374 259 CURVE SMOOTH",
"374 167 OFFCURVE",
"320 115 OFFCURVE",
"244 115 CURVE SMOOTH",
"168 115 OFFCURVE",
"114 167 OFFCURVE",
"114 259 CURVE SMOOTH",
"114 277 LINE SMOOTH",
"114 369 OFFCURVE",
"168 421 OFFCURVE",
"244 421 CURVE SMOOTH",
"367 421 LINE",
"252 545 LINE",
"236 545 LINE SMOOTH",
"172 545 OFFCURVE",
"121 514 OFFCURVE",
"90 462 CURVE SMOOTH",
"63 416 OFFCURVE",
"52 354 OFFCURVE",
"52 268 CURVE SMOOTH",
"52 182 OFFCURVE",
"63 120 OFFCURVE",
"90 74 CURVE SMOOTH",
"121 22 OFFCURVE",
"172 -9 OFFCURVE",
"236 -9 CURVE SMOOTH",
"252 -9 LINE SMOOTH",
"316 -9 OFFCURVE",
"367 22 OFFCURVE",
"398 74 CURVE SMOOTH",
"425 120 OFFCURVE",
"436 182 OFFCURVE",
"436 268 CURVE SMOOTH",
"436 354 OFFCURVE",
"425 416 OFFCURVE",
"399 462 CURVE SMOOTH",
"307 623 OFFCURVE",
"119 507 OFFCURVE",
"119 715 CURVE SMOOTH",
"119 818 OFFCURVE",
"171 849 OFFCURVE",
"243 849 CURVE SMOOTH",
"320 849 OFFCURVE",
"369 811 OFFCURVE",
"369 692 CURVE SMOOTH",
"369 687 LINE",
"426 687 LINE"
);
}
);
width = 488;
},
{
color = -1;
layerId = "89CE42BF-A6C4-4DEE-B312-858F60FB84E5";
paths = (
{
closed = 1;
nodes = (
"435 693 OFFCURVE",
"435 702 OFFCURVE",
"435 713 CURVE SMOOTH",
"435 892 OFFCURVE",
"371 995 OFFCURVE",
"251 995 CURVE SMOOTH",
"236 995 LINE SMOOTH",
"109 995 OFFCURVE",
"49 883 OFFCURVE",
"49 689 CURVE SMOOTH",
"49 492 OFFCURVE",
"114 416 OFFCURVE",
"272 381 CURVE SMOOTH",
"347 364 OFFCURVE",
"365 332 OFFCURVE",
"365 269 CURVE SMOOTH",
"364 202 OFFCURVE",
"308 173 OFFCURVE",
"243 173 CURVE SMOOTH",
"178 173 OFFCURVE",
"121 202 OFFCURVE",
"121 269 CURVE SMOOTH",
"121 277 LINE SMOOTH",
"121 344 OFFCURVE",
"178 373 OFFCURVE",
"243 373 CURVE SMOOTH",
"380 373 LINE",
"252 553 LINE",
"234 553 LINE SMOOTH",
"168 553 OFFCURVE",
"112 523 OFFCURVE",
"80 465 CURVE SMOOTH",
"57 423 OFFCURVE",
"43 362 OFFCURVE",
"43 273 CURVE SMOOTH",
"43 184 OFFCURVE",
"57 123 OFFCURVE",
"80 81 CURVE SMOOTH",
"112 23 OFFCURVE",
"168 -7 OFFCURVE",
"234 -7 CURVE SMOOTH",
"252 -7 LINE SMOOTH",
"318 -7 OFFCURVE",
"374 23 OFFCURVE",
"406 81 CURVE SMOOTH",
"429 123 OFFCURVE",
"443 184 OFFCURVE",
"443 273 CURVE SMOOTH",
"443 362 OFFCURVE",
"430 423 OFFCURVE",
"406 465 CURVE SMOOTH",
"318 621 OFFCURVE",
"125 524 OFFCURVE",
"125 694 CURVE SMOOTH",
"125 779 OFFCURVE",
"176 805 OFFCURVE",
"248 805 CURVE SMOOTH",
"313 805 OFFCURVE",
"364 776 OFFCURVE",
"364 691 CURVE SMOOTH",
"364 686 LINE",
"434 686 LINE"
);
}
);
width = 486;
}
);
leftMetricsKey = wa;
rightMetricsKey = wa;
unicode = A9F8;
script = myanmar;
category = Number;
subCategory = "Decimal Digit";
},
{
glyphname = nine_tlg;
lastChange = "2017-02-22 17:31:34 +0000";
layers = (
{
color = -1;
layerId = "6DF5D8D3-1700-4463-A28F-E0E9C2C73C46";
paths = (
{
closed = 1;
nodes = (
"71 320 LINE",
"92 113 OFFCURVE",
"152 -10 OFFCURVE",
"308 -10 CURVE SMOOTH",
"386 -10 OFFCURVE",
"444 16 OFFCURVE",
"483 65 CURVE SMOOTH",
"527 121 OFFCURVE",
"538 192 OFFCURVE",
"548 257 CURVE SMOOTH",
"571 409 OFFCURVE",
"608 502 OFFCURVE",
"762 502 CURVE SMOOTH",
"915 502 OFFCURVE",
"982 411 OFFCURVE",
"982 268 CURVE SMOOTH",
"982 252 LINE SMOOTH",
"982 108 OFFCURVE",
"900 18 OFFCURVE",
"744 18 CURVE SMOOTH",
"622 18 OFFCURVE",
"545 73 OFFCURVE",
"518 166 CURVE",
"505 134 LINE",
"514 113 OFFCURVE",
"525 93 OFFCURVE",
"539 76 CURVE SMOOTH",
"582 23 OFFCURVE",
"646 -10 OFFCURVE",
"734 -10 CURVE SMOOTH",
"754 -10 LINE SMOOTH",
"842 -10 OFFCURVE",
"908 24 OFFCURVE",
"949 76 CURVE SMOOTH",
"985 121 OFFCURVE",
"1002 180 OFFCURVE",
"1002 258 CURVE SMOOTH",
"1002 425 OFFCURVE",
"923 530 OFFCURVE",
"765 530 CURVE SMOOTH",
"685 530 OFFCURVE",
"628 503 OFFCURVE",
"590 455 CURVE SMOOTH",
"546 399 OFFCURVE",
"535 329 OFFCURVE",
"525 263 CURVE SMOOTH",
"501 102 OFFCURVE",
"459 18 OFFCURVE",
"312 18 CURVE SMOOTH",
"158 18 OFFCURVE",
"111 133 OFFCURVE",
"91 320 CURVE"
);
}
);
width = 1073;
},
{
color = -1;
layerId = "BE49CA0D-7169-41D2-A70B-CE6F74D40E44";
paths = (
{
closed = 1;
nodes = (
"55 334 LINE",
"69 133 OFFCURVE",
"113 -10 OFFCURVE",
"314 -10 CURVE SMOOTH",
"393 -10 OFFCURVE",
"455 23 OFFCURVE",
"495 74 CURVE SMOOTH",
"535 126 OFFCURVE",
"525 187 OFFCURVE",
"544 260 CURVE SMOOTH",
"566 346 OFFCURVE",
"590 418 OFFCURVE",
"741 418 CURVE SMOOTH",
"845 418 OFFCURVE",
"922 381 OFFCURVE",
"922 273 CURVE SMOOTH",
"922 263 LINE SMOOTH",
"922 156 OFFCURVE",
"842 118 OFFCURVE",
"728 118 CURVE SMOOTH",
"614 118 OFFCURVE",
"534 156 OFFCURVE",
"534 263 CURVE",
"479 164 LINE",
"487 131 OFFCURVE",
"500 102 OFFCURVE",
"520 77 CURVE SMOOTH",
"562 25 OFFCURVE",
"629 -10 OFFCURVE",
"718 -10 CURVE SMOOTH",
"738 -10 LINE SMOOTH",
"830 -10 OFFCURVE",
"893 24 OFFCURVE",
"932 72 CURVE SMOOTH",
"971 120 OFFCURVE",
"988 185 OFFCURVE",
"988 268 CURVE SMOOTH",
"988 441 OFFCURVE",
"900 546 OFFCURVE",
"737 546 CURVE SMOOTH",
"647 546 OFFCURVE",
"591 515 OFFCURVE",
"551 464 CURVE SMOOTH",
"506 407 OFFCURVE",
"498 341 OFFCURVE",
"484 277 CURVE SMOOTH",
"463 180 OFFCURVE",
"424 118 OFFCURVE",
"312 118 CURVE SMOOTH",
"190 118 OFFCURVE",
"147 186 OFFCURVE",
"120 334 CURVE"
);
}
);
width = 1043;
},
{
color = -1;
layerId = "719AC85C-8AED-41E6-95C2-58F38387964A";
paths = (
{
closed = 1;
nodes = (
"45 366 LINE",
"65 99 OFFCURVE",
"133 -10 OFFCURVE",
"301 -10 CURVE SMOOTH",
"389 -10 OFFCURVE",
"450 20 OFFCURVE",
"492 73 CURVE SMOOTH",
"532 124 OFFCURVE",
"542 175 OFFCURVE",
"556 252 CURVE SMOOTH",
"570 327 OFFCURVE",
"615 365 OFFCURVE",
"748 365 CURVE SMOOTH",
"835 365 OFFCURVE",
"922 349 OFFCURVE",
"922 276 CURVE SMOOTH",
"922 270 LINE SMOOTH",
"922 197 OFFCURVE",
"830 181 OFFCURVE",
"734 181 CURVE SMOOTH",
"638 181 OFFCURVE",
"546 197 OFFCURVE",
"546 270 CURVE",
"478 161 LINE",
"487 129 OFFCURVE",
"500 102 OFFCURVE",
"519 78 CURVE SMOOTH",
"563 23 OFFCURVE",
"636 -10 OFFCURVE",
"723 -10 CURVE SMOOTH",
"745 -10 LINE SMOOTH",
"832 -10 OFFCURVE",
"905 23 OFFCURVE",
"949 77 CURVE SMOOTH",
"987 124 OFFCURVE",
"1003 189 OFFCURVE",
"1003 268 CURVE SMOOTH",
"1003 456 OFFCURVE",
"914 556 OFFCURVE",
"749 556 CURVE SMOOTH",
"654 556 OFFCURVE",
"594 523 OFFCURVE",
"555 473 CURVE SMOOTH",
"517 424 OFFCURVE",
"507 375 OFFCURVE",
"492 294 CURVE SMOOTH",
"479 222 OFFCURVE",
"432 181 OFFCURVE",
"319 181 CURVE SMOOTH",
"218 181 OFFCURVE",
"151 206 OFFCURVE",
"126 366 CURVE"
);
}
);
width = 1048;
},
{
color = -1;
layerId = "75CF80E9-B2FC-4BD6-93D9-27AF395083D0";
paths = (
{
closed = 1;
nodes = (
"69 320 LINE",
"84 107 OFFCURVE",
"121 -8 OFFCURVE",
"235 -8 CURVE SMOOTH",
"288 -8 OFFCURVE",
"327 17 OFFCURVE",
"355 66 CURVE SMOOTH",
"383 116 OFFCURVE",
"392 171 OFFCURVE",
"402 257 CURVE SMOOTH",
"417 388 OFFCURVE",
"432 500 OFFCURVE",
"549 500 CURVE SMOOTH",
"653 500 OFFCURVE",
"699 411 OFFCURVE",
"699 268 CURVE SMOOTH",
"699 248 LINE SMOOTH",
"699 96 OFFCURVE",
"645 20 OFFCURVE",
"539 20 CURVE SMOOTH",
"450 20 OFFCURVE",
"398 73 OFFCURVE",
"383 179 CURVE",
"369 145 LINE",
"375 115 OFFCURVE",
"384 90 OFFCURVE",
"397 69 CURVE SMOOTH",
"426 22 OFFCURVE",
"474 -8 OFFCURVE",
"532 -8 CURVE SMOOTH",
"546 -8 LINE SMOOTH",
"605 -8 OFFCURVE",
"654 24 OFFCURVE",
"681 69 CURVE SMOOTH",
"708 114 OFFCURVE",
"719 182 OFFCURVE",
"719 259 CURVE SMOOTH",
"719 420 OFFCURVE",
"670 528 OFFCURVE",
"553 528 CURVE SMOOTH",
"500 528 OFFCURVE",
"456 506 OFFCURVE",
"426 454 CURVE SMOOTH",
"398 406 OFFCURVE",
"388 341 OFFCURVE",
"379 263 CURVE SMOOTH",
"365 138 OFFCURVE",
"350 20 OFFCURVE",
"239 20 CURVE SMOOTH",
"132 20 OFFCURVE",
"104 128 OFFCURVE",
"89 320 CURVE"
);
}
);
width = 788;
},
{
color = -1;
layerId = "949D5271-AFC5-4116-8DE3-A7795FBFC928";
paths = (
{
closed = 1;
nodes = (
"52 334 LINE",
"69 137 OFFCURVE",
"112 -9 OFFCURVE",
"251 -9 CURVE SMOOTH",
"309 -9 OFFCURVE",
"349 16 OFFCURVE",
"382 73 CURVE SMOOTH",
"416 131 OFFCURVE",
"418 184 OFFCURVE",
"433 259 CURVE SMOOTH",
"450 346 OFFCURVE",
"467 421 OFFCURVE",
"570 421 CURVE SMOOTH",
"644 421 OFFCURVE",
"695 383 OFFCURVE",
"695 273 CURVE SMOOTH",
"695 259 LINE SMOOTH",
"695 167 OFFCURVE",
"641 115 OFFCURVE",
"565 115 CURVE SMOOTH",
"489 115 OFFCURVE",
"435 168 OFFCURVE",
"432 269 CURVE",
"378 177 LINE",
"384 134 OFFCURVE",
"397 98 OFFCURVE",
"411 74 CURVE SMOOTH",
"440 24 OFFCURVE",
"492 -9 OFFCURVE",
"557 -9 CURVE SMOOTH",
"573 -9 LINE SMOOTH",
"635 -9 OFFCURVE",
"688 21 OFFCURVE",
"719 74 CURVE SMOOTH",
"746 120 OFFCURVE",
"757 186 OFFCURVE",
"757 261 CURVE SMOOTH",
"757 434 OFFCURVE",
"699 545 OFFCURVE",
"569 545 CURVE SMOOTH",
"502 545 OFFCURVE",
"458 515 OFFCURVE",
"427 463 CURVE SMOOTH",
"395 409 OFFCURVE",
"392 361 OFFCURVE",
"376 277 CURVE SMOOTH",
"359 186 OFFCURVE",
"343 115 OFFCURVE",
"253 115 CURVE SMOOTH",
"165 115 OFFCURVE",
"133 184 OFFCURVE",
"117 334 CURVE"
);
}
);
width = 809;
},
{
color = -1;
layerId = "89CE42BF-A6C4-4DEE-B312-858F60FB84E5";
paths = (
{
closed = 1;
nodes = (
"43 365 LINE",
"57 101 OFFCURVE",
"114 -7 OFFCURVE",
"244 -7 CURVE SMOOTH",
"319 -7 OFFCURVE",
"358 29 OFFCURVE",
"386 75 CURVE SMOOTH",
"424 137 OFFCURVE",
"422 190 OFFCURVE",
"432 252 CURVE SMOOTH",
"445 330 OFFCURVE",
"472 373 OFFCURVE",
"562 373 CURVE SMOOTH",
"620 373 OFFCURVE",
"680 355 OFFCURVE",
"680 276 CURVE SMOOTH",
"680 269 LINE SMOOTH",
"679 202 OFFCURVE",
"623 173 OFFCURVE",
"558 173 CURVE SMOOTH",
"493 173 OFFCURVE",
"434 201 OFFCURVE",
"434 278 CURVE",
"365 175 LINE",
"371 136 OFFCURVE",
"382 105 OFFCURVE",
"395 81 CURVE SMOOTH",
"427 23 OFFCURVE",
"483 -7 OFFCURVE",
"549 -7 CURVE SMOOTH",
"567 -7 LINE SMOOTH",
"633 -7 OFFCURVE",
"689 23 OFFCURVE",
"721 81 CURVE SMOOTH",
"744 123 OFFCURVE",
"758 185 OFFCURVE",
"758 270 CURVE SMOOTH",
"758 440 OFFCURVE",
"702 553 OFFCURVE",
"562 553 CURVE SMOOTH",
"487 553 OFFCURVE",
"443 520 OFFCURVE",
"414 471 CURVE SMOOTH",
"386 424 OFFCURVE",
"379 376 OFFCURVE",
"368 294 CURVE SMOOTH",
"358 223 OFFCURVE",
"333 173 OFFCURVE",
"242 173 CURVE SMOOTH",
"182 173 OFFCURVE",
"129 195 OFFCURVE",
"111 365 CURVE"
);
}
);
width = 801;
}
);
leftMetricsKey = wa;
rightKerningGroup = wa;
rightMetricsKey = wa;
unicode = A9F9;
script = myanmar;
category = Number;
subCategory = "Decimal Digit";
},
{
glyphname = little_section;
lastChange = "2017-02-22 17:31:34 +0000";
layers = (
{
color = -1;
layerId = "6DF5D8D3-1700-4463-A28F-E0E9C2C73C46";
paths = (
{
closed = 1;
nodes = (
"104 520 LINE",
"104 0 LINE",
"126 0 LINE",
"126 520 LINE"
);
}
);
width = 230;
},
{
color = -1;
layerId = "BE49CA0D-7169-41D2-A70B-CE6F74D40E44";
paths = (
{
closed = 1;
nodes = (
"94 536 LINE",
"94 0 LINE",
"170 0 LINE",
"170 536 LINE"
);
}
);
width = 264;
},
{
color = -1;
layerId = "719AC85C-8AED-41E6-95C2-58F38387964A";
paths = (
{
closed = 1;
nodes = (
"95 546 LINE",
"95 0 LINE",
"189 0 LINE",
"189 546 LINE"
);
}
);
width = 284;
},
{
color = -1;
layerId = "949D5271-AFC5-4116-8DE3-A7795FBFC928";
paths = (
{
closed = 1;
nodes = (
"94 536 LINE",
"94 0 LINE",
"168 0 LINE",
"168 536 LINE"
);
}
);
width = 262;
},
{
color = -1;
layerId = "89CE42BF-A6C4-4DEE-B312-858F60FB84E5";
paths = (
{
closed = 1;
nodes = (
"95 546 LINE",
"95 0 LINE",
"187 0 LINE",
"187 546 LINE"
);
}
);
width = 282;
},
{
color = -1;
layerId = "75CF80E9-B2FC-4BD6-93D9-27AF395083D0";
paths = (
{
closed = 1;
nodes = (
"104 520 LINE",
"104 0 LINE",
"126 0 LINE",
"126 520 LINE"
);
}
);
width = 230;
}
);
note = little_section;
unicode = 104A;
},
{
glyphname = ka;
lastChange = "2017-02-22 17:31:34 +0000";
layers = (
{
color = -1;
layerId = "6DF5D8D3-1700-4463-A28F-E0E9C2C73C46";
paths = (
{
closed = 1;
nodes = (
"450 -1 OFFCURVE",
"499 31 OFFCURVE",
"529 70 CURVE SMOOTH",
"569 121 OFFCURVE",
"587 178 OFFCURVE",
"587 260 CURVE SMOOTH",
"587 341 OFFCURVE",
"570 399 OFFCURVE",
"530 449 CURVE SMOOTH",
"493 496 OFFCURVE",
"427 530 OFFCURVE",
"339 530 CURVE SMOOTH",
"319 530 LINE SMOOTH",
"231 530 OFFCURVE",
"165 496 OFFCURVE",
"128 449 CURVE SMOOTH",
"87 399 OFFCURVE",
"71 341 OFFCURVE",
"71 260 CURVE SMOOTH",
"71 178 OFFCURVE",
"88 121 OFFCURVE",
"129 70 CURVE SMOOTH",
"159 31 OFFCURVE",
"208 -1 OFFCURVE",
"273 -10 CURVE",
"273 19 LINE",
"153 37 OFFCURVE",
"91 129 OFFCURVE",
"91 252 CURVE SMOOTH",
"91 268 LINE SMOOTH",
"91 412 OFFCURVE",
"173 502 OFFCURVE",
"329 502 CURVE SMOOTH",
"485 502 OFFCURVE",
"567 412 OFFCURVE",
"567 268 CURVE SMOOTH",
"567 252 LINE SMOOTH",
"567 129 OFFCURVE",
"505 37 OFFCURVE",
"385 19 CURVE",
"385 -10 LINE"
);
},
{
closed = 1;
nodes = (
"538 420 LINE",
"577 472 OFFCURVE",
"642 502 OFFCURVE",
"731 502 CURVE SMOOTH",
"887 502 OFFCURVE",
"969 411 OFFCURVE",
"969 268 CURVE SMOOTH",
"969 252 LINE SMOOTH",
"969 108 OFFCURVE",
"887 18 OFFCURVE",
"730 18 CURVE SMOOTH",
"675 18 LINE",
"675 -6 LINE",
"695 -9 OFFCURVE",
"714 -10 OFFCURVE",
"734 -10 CURVE SMOOTH",
"829 -10 OFFCURVE",
"895 24 OFFCURVE",
"936 76 CURVE SMOOTH",
"972 121 OFFCURVE",
"989 179 OFFCURVE",
"989 260 CURVE SMOOTH",
"989 341 OFFCURVE",
"972 399 OFFCURVE",
"936 444 CURVE SMOOTH",
"895 496 OFFCURVE",
"829 530 OFFCURVE",
"741 530 CURVE SMOOTH",
"721 530 LINE SMOOTH",
"645 530 OFFCURVE",
"566 503 OFFCURVE",
"523 439 CURVE"
);
}
);
width = 1060;
},
{
color = -1;
layerId = "BE49CA0D-7169-41D2-A70B-CE6F74D40E44";
paths = (
{
closed = 1;
nodes = (
"431 -6 OFFCURVE",
"482 22 OFFCURVE",
"519 70 CURVE SMOOTH",
"561 124 OFFCURVE",
"575 190 OFFCURVE",
"575 269 CURVE SMOOTH",
"575 347 OFFCURVE",
"561 413 OFFCURVE",
"519 464 CURVE SMOOTH",
"480 512 OFFCURVE",
"417 546 OFFCURVE",
"325 546 CURVE SMOOTH",
"305 546 LINE SMOOTH",
"213 546 OFFCURVE",
"150 512 OFFCURVE",
"111 464 CURVE SMOOTH",
"69 413 OFFCURVE",
"55 347 OFFCURVE",
"55 269 CURVE SMOOTH",
"55 190 OFFCURVE",
"69 124 OFFCURVE",
"111 70 CURVE SMOOTH",
"148 22 OFFCURVE",
"199 -6 OFFCURVE",
"272 -10 CURVE",
"272 118 LINE",
"185 126 OFFCURVE",
"121 160 OFFCURVE",
"121 263 CURVE SMOOTH",
"121 273 LINE SMOOTH",
"121 380 OFFCURVE",
"201 418 OFFCURVE",
"315 418 CURVE SMOOTH",
"429 418 OFFCURVE",
"509 380 OFFCURVE",
"509 273 CURVE SMOOTH",
"509 263 LINE SMOOTH",
"509 160 OFFCURVE",
"445 126 OFFCURVE",
"358 118 CURVE",
"358 -10 LINE"
);
},
{
closed = 1;
nodes = (
"554 372 LINE",
"588 405 OFFCURVE",
"643 418 OFFCURVE",
"710 418 CURVE SMOOTH",
"824 418 OFFCURVE",
"904 380 OFFCURVE",
"904 273 CURVE SMOOTH",
"904 263 LINE SMOOTH",
"904 156 OFFCURVE",
"824 118 OFFCURVE",
"710 118 CURVE SMOOTH",
"657 118 LINE",
"657 -7 LINE",
"673 -9 OFFCURVE",
"693 -10 OFFCURVE",
"714 -10 CURVE SMOOTH",
"809 -10 OFFCURVE",
"877 24 OFFCURVE",
"918 77 CURVE SMOOTH",
"955 124 OFFCURVE",
"970 185 OFFCURVE",
"970 268 CURVE SMOOTH",
"970 351 OFFCURVE",
"955 412 OFFCURVE",
"918 459 CURVE SMOOTH",
"877 512 OFFCURVE",
"809 546 OFFCURVE",
"720 546 CURVE SMOOTH",
"700 546 LINE SMOOTH",
"611 546 OFFCURVE",
"543 512 OFFCURVE",
"506 464 CURVE"
);
}
);
width = 1025;
},
{
color = -1;
guideLines = (
{
angle = 90;
position = "{515, 49}";
}
);
layerId = "719AC85C-8AED-41E6-95C2-58F38387964A";
paths = (
{
closed = 1;
nodes = (
"422 -6 OFFCURVE",
"483 24 OFFCURVE",
"524 73 CURVE SMOOTH",
"569 127 OFFCURVE",
"583 199 OFFCURVE",
"583 274 CURVE SMOOTH",
"583 343 OFFCURVE",
"571 418 OFFCURVE",
"525 473 CURVE SMOOTH",
"483 523 OFFCURVE",
"415 556 OFFCURVE",
"325 556 CURVE SMOOTH",
"303 556 LINE SMOOTH",
"213 556 OFFCURVE",
"145 523 OFFCURVE",
"103 473 CURVE SMOOTH",
"57 418 OFFCURVE",
"45 343 OFFCURVE",
"45 274 CURVE SMOOTH",
"45 199 OFFCURVE",
"59 127 OFFCURVE",
"104 73 CURVE SMOOTH",
"147 21 OFFCURVE",
"212 -7 OFFCURVE",
"277 -10 CURVE",
"277 182 LINE",
"199 185 OFFCURVE",
"126 206 OFFCURVE",
"126 270 CURVE SMOOTH",
"126 276 LINE SMOOTH",
"126 349 OFFCURVE",
"218 365 OFFCURVE",
"314 365 CURVE SMOOTH",
"410 365 OFFCURVE",
"502 349 OFFCURVE",
"502 276 CURVE SMOOTH",
"502 270 LINE SMOOTH",
"502 206 OFFCURVE",
"429 185 OFFCURVE",
"351 182 CURVE",
"351 -10 LINE"
);
},
{
closed = 1;
nodes = (
"567 340 LINE",
"603 359 OFFCURVE",
"658 365 OFFCURVE",
"715 365 CURVE SMOOTH",
"811 365 OFFCURVE",
"903 349 OFFCURVE",
"903 276 CURVE SMOOTH",
"903 270 LINE SMOOTH",
"903 197 OFFCURVE",
"811 181 OFFCURVE",
"715 181 CURVE SMOOTH",
"673 181 LINE",
"673 -6 LINE",
"691 -10 OFFCURVE",
"709 -10 OFFCURVE",
"726 -10 CURVE SMOOTH",
"817 -10 OFFCURVE",
"887 25 OFFCURVE",
"930 78 CURVE SMOOTH",
"968 126 OFFCURVE",
"984 188 OFFCURVE",
"984 273 CURVE SMOOTH",
"984 358 OFFCURVE",
"968 420 OFFCURVE",
"930 468 CURVE SMOOTH",
"887 521 OFFCURVE",
"817 556 OFFCURVE",
"726 556 CURVE SMOOTH",
"704 556 LINE SMOOTH",
"613 556 OFFCURVE",
"543 521 OFFCURVE",
"504 473 CURVE"
);
}
);
width = 1029;
},
{
color = -1;
layerId = "75CF80E9-B2FC-4BD6-93D9-27AF395083D0";
paths = (
{
closed = 1;
nodes = (
"333 -1 OFFCURVE",
"367 29 OFFCURVE",
"391 69 CURVE SMOOTH",
"418 114 OFFCURVE",
"429 181 OFFCURVE",
"429 260 CURVE SMOOTH",
"429 339 OFFCURVE",
"418 406 OFFCURVE",
"391 451 CURVE SMOOTH",
"364 496 OFFCURVE",
"315 528 OFFCURVE",
"256 528 CURVE SMOOTH",
"242 528 LINE SMOOTH",
"183 528 OFFCURVE",
"134 496 OFFCURVE",
"107 451 CURVE SMOOTH",
"80 406 OFFCURVE",
"69 339 OFFCURVE",
"69 260 CURVE SMOOTH",
"69 181 OFFCURVE",
"80 114 OFFCURVE",
"107 69 CURVE SMOOTH",
"131 29 OFFCURVE",
"165 -1 OFFCURVE",
"209 -8 CURVE",
"209 20 LINE",
"129 37 OFFCURVE",
"89 115 OFFCURVE",
"89 248 CURVE SMOOTH",
"89 272 LINE SMOOTH",
"89 424 OFFCURVE",
"143 500 OFFCURVE",
"249 500 CURVE SMOOTH",
"355 500 OFFCURVE",
"409 424 OFFCURVE",
"409 272 CURVE SMOOTH",
"409 248 LINE SMOOTH",
"409 115 OFFCURVE",
"369 37 OFFCURVE",
"289 20 CURVE",
"289 -8 LINE"
);
},
{
closed = 1;
nodes = (
"404 407 LINE",
"429 469 OFFCURVE",
"475 500 OFFCURVE",
"543 500 CURVE SMOOTH",
"649 500 OFFCURVE",
"703 424 OFFCURVE",
"703 272 CURVE SMOOTH",
"703 248 LINE SMOOTH",
"703 96 OFFCURVE",
"649 20 OFFCURVE",
"543 20 CURVE SMOOTH",
"501 20 LINE",
"501 -4 LINE",
"514 -7 OFFCURVE",
"531 -8 OFFCURVE",
"546 -8 CURVE SMOOTH",
"609 -8 OFFCURVE",
"658 24 OFFCURVE",
"685 69 CURVE SMOOTH",
"712 114 OFFCURVE",
"723 181 OFFCURVE",
"723 260 CURVE SMOOTH",
"723 339 OFFCURVE",
"712 406 OFFCURVE",
"685 451 CURVE SMOOTH",
"658 496 OFFCURVE",
"609 528 OFFCURVE",
"550 528 CURVE SMOOTH",
"536 528 LINE SMOOTH",
"473 528 OFFCURVE",
"416 490 OFFCURVE",
"391 432 CURVE"
);
}
);
width = 792;
},
{
color = -1;
layerId = "89CE42BF-A6C4-4DEE-B312-858F60FB84E5";
paths = (
{
closed = 1;
nodes = (
"323 -4 OFFCURVE",
"373 20 OFFCURVE",
"406 81 CURVE SMOOTH",
"429 123 OFFCURVE",
"443 184 OFFCURVE",
"443 273 CURVE SMOOTH",
"443 362 OFFCURVE",
"429 423 OFFCURVE",
"406 465 CURVE SMOOTH",
"374 523 OFFCURVE",
"318 553 OFFCURVE",
"252 553 CURVE SMOOTH",
"234 553 LINE SMOOTH",
"168 553 OFFCURVE",
"112 523 OFFCURVE",
"80 465 CURVE SMOOTH",
"57 423 OFFCURVE",
"43 362 OFFCURVE",
"43 273 CURVE SMOOTH",
"43 184 OFFCURVE",
"57 123 OFFCURVE",
"80 81 CURVE SMOOTH",
"113 20 OFFCURVE",
"163 -4 OFFCURVE",
"209 -7 CURVE",
"209 177 LINE",
"167 182 OFFCURVE",
"121 209 OFFCURVE",
"121 269 CURVE SMOOTH",
"121 277 LINE SMOOTH",
"121 344 OFFCURVE",
"178 373 OFFCURVE",
"243 373 CURVE SMOOTH",
"308 373 OFFCURVE",
"364 344 OFFCURVE",
"365 277 CURVE SMOOTH",
"365 269 LINE SMOOTH",
"365 209 OFFCURVE",
"319 182 OFFCURVE",
"277 177 CURVE",
"277 -7 LINE"
);
},
{
closed = 1;
nodes = (
"430 327 LINE",
"451 359 OFFCURVE",
"492 373 OFFCURVE",
"538 373 CURVE SMOOTH",
"603 373 OFFCURVE",
"659 344 OFFCURVE",
"660 277 CURVE SMOOTH",
"660 269 LINE SMOOTH",
"659 202 OFFCURVE",
"603 173 OFFCURVE",
"538 173 CURVE SMOOTH",
"505 173 LINE",
"505 -6 LINE",
"521 -7 OFFCURVE",
"533 -7 OFFCURVE",
"547 -7 CURVE SMOOTH",
"613 -7 OFFCURVE",
"669 23 OFFCURVE",
"701 81 CURVE SMOOTH",
"724 123 OFFCURVE",
"738 184 OFFCURVE",
"738 273 CURVE SMOOTH",
"738 362 OFFCURVE",
"724 423 OFFCURVE",
"701 465 CURVE SMOOTH",
"669 523 OFFCURVE",
"613 553 OFFCURVE",
"547 553 CURVE SMOOTH",
"529 553 LINE SMOOTH",
"463 553 OFFCURVE",
"407 523 OFFCURVE",
"375 465 CURVE"
);
}
);
width = 781;
},
{
color = -1;
layerId = "949D5271-AFC5-4116-8DE3-A7795FBFC928";
paths = (
{
closed = 1;
nodes = (
"332 -4 OFFCURVE",
"370 26 OFFCURVE",
"398 74 CURVE SMOOTH",
"425 120 OFFCURVE",
"436 182 OFFCURVE",
"436 268 CURVE SMOOTH",
"436 354 OFFCURVE",
"425 416 OFFCURVE",
"398 462 CURVE SMOOTH",
"367 514 OFFCURVE",
"316 545 OFFCURVE",
"252 545 CURVE SMOOTH",
"236 545 LINE SMOOTH",
"172 545 OFFCURVE",
"121 514 OFFCURVE",
"90 462 CURVE SMOOTH",
"63 416 OFFCURVE",
"52 354 OFFCURVE",
"52 268 CURVE SMOOTH",
"52 182 OFFCURVE",
"63 120 OFFCURVE",
"90 74 CURVE SMOOTH",
"119 25 OFFCURVE",
"156 -4 OFFCURVE",
"207 -9 CURVE",
"207 117 LINE",
"151 128 OFFCURVE",
"114 179 OFFCURVE",
"114 259 CURVE SMOOTH",
"114 277 LINE SMOOTH",
"114 369 OFFCURVE",
"168 421 OFFCURVE",
"244 421 CURVE SMOOTH",
"320 421 OFFCURVE",
"374 369 OFFCURVE",
"374 277 CURVE SMOOTH",
"374 259 LINE SMOOTH",
"374 179 OFFCURVE",
"337 128 OFFCURVE",
"281 117 CURVE",
"281 -9 LINE"
);
},
{
closed = 1;
nodes = (
"422 357 LINE",
"444 398 OFFCURVE",
"484 421 OFFCURVE",
"534 421 CURVE SMOOTH",
"610 421 OFFCURVE",
"664 369 OFFCURVE",
"664 277 CURVE SMOOTH",
"664 259 LINE SMOOTH",
"664 167 OFFCURVE",
"610 115 OFFCURVE",
"534 115 CURVE SMOOTH",
"494 115 LINE",
"494 -6 LINE",
"505 -8 OFFCURVE",
"520 -9 OFFCURVE",
"542 -9 CURVE SMOOTH",
"606 -9 OFFCURVE",
"657 22 OFFCURVE",
"688 74 CURVE SMOOTH",
"715 120 OFFCURVE",
"726 182 OFFCURVE",
"726 268 CURVE SMOOTH",
"726 354 OFFCURVE",
"715 416 OFFCURVE",
"688 462 CURVE SMOOTH",
"657 514 OFFCURVE",
"606 545 OFFCURVE",
"542 545 CURVE SMOOTH",
"526 545 LINE SMOOTH",
"462 545 OFFCURVE",
"411 514 OFFCURVE",
"380 462 CURVE"
);
}
);
width = 778;
}
);
leftKerningGroup = wa;
leftMetricsKey = wa;
rightKerningGroup = wa;
rightMetricsKey = wa;
unicode = 1000;
script = myanmar;
category = Letter;
subCategory = Spacing;
},
{
glyphname = nga;
lastChange = "2017-02-22 17:31:34 +0000";
layers = (
{
color = -1;
guideLines = (
{
angle = 90;
position = "{124, 261}";
}
);
layerId = "6DF5D8D3-1700-4463-A28F-E0E9C2C73C46";
paths = (
{
closed = 1;
nodes = (
"532 73 OFFCURVE",
"451.038 18 OFFCURVE",
"329 18 CURVE SMOOTH",
"173 18 OFFCURVE",
"91 108 OFFCURVE",
"91 252 CURVE SMOOTH",
"91 268 LINE SMOOTH",
"91 411 OFFCURVE",
"173 502 OFFCURVE",
"329 502 CURVE SMOOTH",
"450.862 502 OFFCURVE",
"532 446 OFFCURVE",
"556 354 CURVE",
"578 354 LINE",
"553 465 OFFCURVE",
"462 530 OFFCURVE",
"339 530 CURVE SMOOTH",
"319 530 LINE SMOOTH",
"233 530 OFFCURVE",
"166 500 OFFCURVE",
"124 444 CURVE SMOOTH",
"89 399 OFFCURVE",
"71 336 OFFCURVE",
"71 260 CURVE SMOOTH",
"71 184 OFFCURVE",
"89 121 OFFCURVE",
"124 76 CURVE SMOOTH",
"166 21 OFFCURVE",
"232 -10 OFFCURVE",
"319 -10 CURVE SMOOTH",
"339 -10 LINE SMOOTH",
"459 -10 OFFCURVE",
"552 52 OFFCURVE",
"578 166 CURVE",
"556 166 LINE"
);
}
);
width = 658;
},
{
color = -1;
guideLines = (
{
angle = 90;
position = "{111, 268}";
}
);
layerId = "BE49CA0D-7169-41D2-A70B-CE6F74D40E44";
paths = (
{
closed = 1;
nodes = (
"498 155 OFFCURVE",
"429 118 OFFCURVE",
"315 118 CURVE SMOOTH",
"201 118 OFFCURVE",
"121 156 OFFCURVE",
"121 263 CURVE SMOOTH",
"121 273 LINE SMOOTH",
"121 380 OFFCURVE",
"201 418 OFFCURVE",
"315 418 CURVE SMOOTH",
"429 418 OFFCURVE",
"498 381 OFFCURVE",
"506 323 CURVE",
"572 323 LINE",
"572 406 OFFCURVE",
"513 546 OFFCURVE",
"325 546 CURVE SMOOTH",
"305 546 LINE SMOOTH",
"216 546 OFFCURVE",
"148 512 OFFCURVE",
"107 459 CURVE SMOOTH",
"70 412 OFFCURVE",
"55 351 OFFCURVE",
"55 268 CURVE SMOOTH",
"55 185 OFFCURVE",
"70 124 OFFCURVE",
"107 77 CURVE SMOOTH",
"148 24 OFFCURVE",
"216 -10 OFFCURVE",
"305 -10 CURVE",
"328 -10 LINE SMOOTH",
"470 -10 OFFCURVE",
"567 79 OFFCURVE",
"572 213 CURVE",
"506 213 LINE"
);
}
);
width = 630;
},
{
color = -1;
layerId = "719AC85C-8AED-41E6-95C2-58F38387964A";
paths = (
{
closed = 1;
nodes = (
"481 201 OFFCURVE",
"418 181 OFFCURVE",
"314 181 CURVE SMOOTH",
"218 181 OFFCURVE",
"126 197 OFFCURVE",
"126 270 CURVE SMOOTH",
"126 276 LINE SMOOTH",
"126 349 OFFCURVE",
"218 365 OFFCURVE",
"314 365 CURVE SMOOTH",
"418 365 OFFCURVE",
"483 345 OFFCURVE",
"497 303 CURVE",
"581 303 LINE",
"578 461 OFFCURVE",
"480 556 OFFCURVE",
"325 556 CURVE SMOOTH",
"303 556 LINE SMOOTH",
"214 556 OFFCURVE",
"147 527 OFFCURVE",
"103 473 CURVE SMOOTH",
"65 425 OFFCURVE",
"45 358 OFFCURVE",
"45 273 CURVE SMOOTH",
"45 189 OFFCURVE",
"65 122 OFFCURVE",
"103 73 CURVE SMOOTH",
"147 19 OFFCURVE",
"214 -10 OFFCURVE",
"303 -10 CURVE SMOOTH",
"325 -10 LINE SMOOTH",
"478 -10 OFFCURVE",
"578 83 OFFCURVE",
"581 243 CURVE",
"497 243 LINE"
);
}
);
width = 628;
},
{
color = -1;
layerId = "949D5271-AFC5-4116-8DE3-A7795FBFC928";
paths = (
{
closed = 1;
nodes = (
"365 155 OFFCURVE",
"319 115 OFFCURVE",
"244 115 CURVE SMOOTH",
"168 115 OFFCURVE",
"114 167 OFFCURVE",
"114 259 CURVE SMOOTH",
"114 277 LINE SMOOTH",
"114 369 OFFCURVE",
"168 421 OFFCURVE",
"244 421 CURVE SMOOTH",
"319 421 OFFCURVE",
"365 381 OFFCURVE",
"370 323 CURVE",
"433 323 LINE",
"433 408 OFFCURVE",
"390 545 OFFCURVE",
"252 545 CURVE SMOOTH",
"236 545 LINE SMOOTH",
"172 545 OFFCURVE",
"121 514 OFFCURVE",
"90 462 CURVE SMOOTH",
"63 416 OFFCURVE",
"52 354 OFFCURVE",
"52 268 CURVE SMOOTH",
"52 182 OFFCURVE",
"63 120 OFFCURVE",
"90 74 CURVE SMOOTH",
"121 22 OFFCURVE",
"172 -9 OFFCURVE",
"236 -9 CURVE SMOOTH",
"252 -9 LINE SMOOTH",
"358 -9 OFFCURVE",
"429 77 OFFCURVE",
"433 213 CURVE",
"370 213 LINE"
);
}
);
width = 488;
},
{
color = -1;
layerId = "89CE42BF-A6C4-4DEE-B312-858F60FB84E5";
paths = (
{
closed = 1;
nodes = (
"351 198 OFFCURVE",
"310 173 OFFCURVE",
"243 173 CURVE SMOOTH",
"178 173 OFFCURVE",
"121 202 OFFCURVE",
"121 269 CURVE SMOOTH",
"121 277 LINE SMOOTH",
"121 344 OFFCURVE",
"178 373 OFFCURVE",
"243 373 CURVE SMOOTH",
"310 373 OFFCURVE",
"351 348 OFFCURVE",
"360 303 CURVE",
"442 303 LINE",
"439 464 OFFCURVE",
"366 553 OFFCURVE",
"252 553 CURVE SMOOTH",
"234 553 LINE SMOOTH",
"168 553 OFFCURVE",
"112 523 OFFCURVE",
"80 465 CURVE SMOOTH",
"57 423 OFFCURVE",
"43 362 OFFCURVE",
"43 273 CURVE SMOOTH",
"43 184 OFFCURVE",
"57 123 OFFCURVE",
"80 81 CURVE SMOOTH",
"112 23 OFFCURVE",
"168 -7 OFFCURVE",
"234 -7 CURVE SMOOTH",
"252 -7 LINE SMOOTH",
"366 -7 OFFCURVE",
"439 82 OFFCURVE",
"442 243 CURVE",
"360 243 LINE"
);
}
);
width = 486;
},
{
color = -1;
layerId = "75CF80E9-B2FC-4BD6-93D9-27AF395083D0";
paths = (
{
closed = 1;
nodes = (
"388 70 OFFCURVE",
"334 20 OFFCURVE",
"249 20 CURVE SMOOTH",
"143 20 OFFCURVE",
"89 96 OFFCURVE",
"89 248 CURVE SMOOTH",
"89 272 LINE SMOOTH",
"89 424 OFFCURVE",
"143 500 OFFCURVE",
"249 500 CURVE SMOOTH",
"334 500 OFFCURVE",
"388 449 OFFCURVE",
"402 354 CURVE",
"423 354 LINE",
"407 465 OFFCURVE",
"342 528 OFFCURVE",
"256 528 CURVE SMOOTH",
"242 528 LINE SMOOTH",
"183 528 OFFCURVE",
"134 496 OFFCURVE",
"107 451 CURVE SMOOTH",
"80 406 OFFCURVE",
"69 339 OFFCURVE",
"69 260 CURVE SMOOTH",
"69 181 OFFCURVE",
"80 114 OFFCURVE",
"107 69 CURVE SMOOTH",
"134 24 OFFCURVE",
"183 -8 OFFCURVE",
"242 -8 CURVE SMOOTH",
"256 -8 LINE SMOOTH",
"340 -8 OFFCURVE",
"406 52 OFFCURVE",
"423 166 CURVE",
"402 166 LINE"
);
}
);
width = 498;
}
);
leftKerningGroup = wa;
leftMetricsKey = wa;
widthMetricsKey = wa;
rightKerningGroup = nga;
unicode = 1004;
script = myanmar;
category = Letter;
subCategory = Spacing;
},
{
glyphname = ca;
lastChange = "2017-02-22 17:31:34 +0000";
layers = (
{
color = -1;
layerId = "6DF5D8D3-1700-4463-A28F-E0E9C2C73C46";
paths = (
{
closed = 1;
nodes = (
"310 151 OFFCURVE",
"358 178 OFFCURVE",
"358 260 CURVE SMOOTH",
"358 342 OFFCURVE",
"310 369 OFFCURVE",
"215 369 CURVE SMOOTH",
"129 369 OFFCURVE",
"72 342 OFFCURVE",
"72 259 CURVE SMOOTH",
"72 177 OFFCURVE",
"129 151 OFFCURVE",
"215 151 CURVE SMOOTH"
);
},
{
closed = 1;
nodes = (
"115 173 OFFCURVE",
"92 207 OFFCURVE",
"92 260 CURVE SMOOTH",
"92 313 OFFCURVE",
"115 347 OFFCURVE",
"213 347 CURVE SMOOTH",
"311 347 OFFCURVE",
"334 313 OFFCURVE",
"334 260 CURVE SMOOTH",
"334 207 OFFCURVE",
"311 173 OFFCURVE",
"213 173 CURVE SMOOTH"
);
},
{
closed = 1;
nodes = (
"231 530 OFFCURVE",
"165 496 OFFCURVE",
"128 449 CURVE SMOOTH",
"87 399 OFFCURVE",
"71 341 OFFCURVE",
"71 260 CURVE SMOOTH",
"71 179 OFFCURVE",
"87 121 OFFCURVE",
"128 71 CURVE SMOOTH",
"165 24 OFFCURVE",
"231 -10 OFFCURVE",
"319 -10 CURVE SMOOTH",
"339 -10 LINE SMOOTH",
"427 -10 OFFCURVE",
"493 24 OFFCURVE",
"530 71 CURVE SMOOTH",
"570 121 OFFCURVE",
"587 179 OFFCURVE",
"587 260 CURVE SMOOTH",
"587 341 OFFCURVE",
"570 399 OFFCURVE",
"530 449 CURVE SMOOTH",
"493 496 OFFCURVE",
"427 530 OFFCURVE",
"339 530 CURVE SMOOTH",
"319 530 LINE SMOOTH"
);
},
{
closed = 1;
nodes = (
"173 18 OFFCURVE",
"91 108 OFFCURVE",
"91 252 CURVE SMOOTH",
"91 268 LINE SMOOTH",
"91 411 OFFCURVE",
"173 502 OFFCURVE",
"329 502 CURVE SMOOTH",
"485 502 OFFCURVE",
"567 411 OFFCURVE",
"567 268 CURVE SMOOTH",
"567 252 LINE SMOOTH",
"567 108 OFFCURVE",
"485 18 OFFCURVE",
"329 18 CURVE SMOOTH"
);
}
);
width = 658;
},
{
color = -1;
layerId = "BE49CA0D-7169-41D2-A70B-CE6F74D40E44";
paths = (
{
closed = 1;
nodes = (
"333 163 OFFCURVE",
"377 192 OFFCURVE",
"377 268 CURVE SMOOTH",
"377 339 OFFCURVE",
"333 373 OFFCURVE",
"206 373 CURVE SMOOTH",
"97 373 OFFCURVE",
"60 343 OFFCURVE",
"60 268 CURVE SMOOTH",
"60 193 OFFCURVE",
"97 163 OFFCURVE",
"206 163 CURVE SMOOTH"
);
},
{
closed = 1;
nodes = (
"132 220 OFFCURVE",
"111 238 OFFCURVE",
"111 270 CURVE SMOOTH",
"111 299 OFFCURVE",
"132 316 OFFCURVE",
"197 316 CURVE SMOOTH",
"260 316 OFFCURVE",
"281 299 OFFCURVE",
"281 270 CURVE SMOOTH",
"281 238 OFFCURVE",
"260 220 OFFCURVE",
"197 220 CURVE SMOOTH"
);
},
{
closed = 1;
nodes = (
"216 546 OFFCURVE",
"148 512 OFFCURVE",
"107 459 CURVE SMOOTH",
"70 412 OFFCURVE",
"55 351 OFFCURVE",
"55 268 CURVE SMOOTH",
"55 185 OFFCURVE",
"70 124 OFFCURVE",
"107 77 CURVE SMOOTH",
"148 24 OFFCURVE",
"216 -10 OFFCURVE",
"305 -10 CURVE SMOOTH",
"325 -10 LINE SMOOTH",
"414 -10 OFFCURVE",
"482 24 OFFCURVE",
"523 77 CURVE SMOOTH",
"560 124 OFFCURVE",
"575 185 OFFCURVE",
"575 268 CURVE SMOOTH",
"575 351 OFFCURVE",
"560 412 OFFCURVE",
"523 459 CURVE SMOOTH",
"482 512 OFFCURVE",
"414 546 OFFCURVE",
"325 546 CURVE SMOOTH",
"305 546 LINE SMOOTH"
);
},
{
closed = 1;
nodes = (
"191 107 OFFCURVE",
"108 148 OFFCURVE",
"108 263 CURVE SMOOTH",
"108 273 LINE SMOOTH",
"108 388 OFFCURVE",
"191 429 OFFCURVE",
"309 429 CURVE SMOOTH",
"426 429 OFFCURVE",
"509 388 OFFCURVE",
"509 273 CURVE SMOOTH",
"509 263 LINE SMOOTH",
"509 148 OFFCURVE",
"426 107 OFFCURVE",
"309 107 CURVE SMOOTH"
);
}
);
width = 630;
},
{
color = -1;
layerId = "719AC85C-8AED-41E6-95C2-58F38387964A";
paths = (
{
closed = 1;
nodes = (
"349 183 OFFCURVE",
"378 216 OFFCURVE",
"378 273 CURVE SMOOTH",
"378 330 OFFCURVE",
"349 364 OFFCURVE",
"215 364 CURVE SMOOTH",
"116 364 OFFCURVE",
"69 323 OFFCURVE",
"69 273 CURVE SMOOTH",
"69 223 OFFCURVE",
"116 183 OFFCURVE",
"215 183 CURVE SMOOTH"
);
},
{
closed = 1;
nodes = (
"134 237 OFFCURVE",
"111 250 OFFCURVE",
"111 274 CURVE SMOOTH",
"111 297 OFFCURVE",
"134 309 OFFCURVE",
"188 309 CURVE SMOOTH",
"242 309 OFFCURVE",
"264 297 OFFCURVE",
"264 274 CURVE SMOOTH",
"264 250 OFFCURVE",
"242 237 OFFCURVE",
"188 237 CURVE SMOOTH"
);
},
{
closed = 1;
nodes = (
"212 556 OFFCURVE",
"142 521 OFFCURVE",
"99 469 CURVE SMOOTH",
"60 420 OFFCURVE",
"45 358 OFFCURVE",
"45 273 CURVE SMOOTH",
"45 188 OFFCURVE",
"61 126 OFFCURVE",
"99 78 CURVE SMOOTH",
"142 25 OFFCURVE",
"212 -10 OFFCURVE",
"303 -10 CURVE SMOOTH",
"325 -10 LINE SMOOTH",
"416 -10 OFFCURVE",
"486 25 OFFCURVE",
"529 77 CURVE SMOOTH",
"568 126 OFFCURVE",
"583 188 OFFCURVE",
"583 273 CURVE SMOOTH",
"583 358 OFFCURVE",
"567 420 OFFCURVE",
"529 468 CURVE SMOOTH",
"486 521 OFFCURVE",
"416 556 OFFCURVE",
"325 556 CURVE SMOOTH",
"303 556 LINE SMOOTH"
);
},
{
closed = 1;
nodes = (
"198 154 OFFCURVE",
"100 175 OFFCURVE",
"100 269 CURVE SMOOTH",
"100 277 LINE SMOOTH",
"100 371 OFFCURVE",
"198 392 OFFCURVE",
"301 392 CURVE SMOOTH",
"404 392 OFFCURVE",
"502 371 OFFCURVE",
"502 277 CURVE SMOOTH",
"502 269 LINE SMOOTH",
"502 175 OFFCURVE",
"404 154 OFFCURVE",
"301 154 CURVE SMOOTH"
);
}
);
width = 628;
},
{
color = -1;
layerId = "949D5271-AFC5-4116-8DE3-A7795FBFC928";
paths = (
{
closed = 1;
nodes = (
"258 167 OFFCURVE",
"290 196 OFFCURVE",
"290 268 CURVE SMOOTH",
"290 335 OFFCURVE",
"258 369 OFFCURVE",
"164 369 CURVE SMOOTH",
"84 369 OFFCURVE",
"57 340 OFFCURVE",
"57 268 CURVE SMOOTH",
"57 196 OFFCURVE",
"84 167 OFFCURVE",
"164 167 CURVE SMOOTH"
);
},
{
closed = 1;
nodes = (
"113 219 OFFCURVE",
"101 237 OFFCURVE",
"101 270 CURVE SMOOTH",
"101 300 OFFCURVE",
"113 317 OFFCURVE",
"153 317 CURVE SMOOTH",
"191 317 OFFCURVE",
"204 300 OFFCURVE",
"204 270 CURVE SMOOTH",
"204 237 OFFCURVE",
"191 219 OFFCURVE",
"153 219 CURVE SMOOTH"
);
},
{
closed = 1;
nodes = (
"172 545 OFFCURVE",
"121 514 OFFCURVE",
"90 462 CURVE SMOOTH",
"63 416 OFFCURVE",
"52 354 OFFCURVE",
"52 268 CURVE SMOOTH",
"52 182 OFFCURVE",
"63 120 OFFCURVE",
"90 74 CURVE SMOOTH",
"121 22 OFFCURVE",
"172 -9 OFFCURVE",
"236 -9 CURVE SMOOTH",
"252 -9 LINE SMOOTH",
"316 -9 OFFCURVE",
"367 22 OFFCURVE",
"398 74 CURVE SMOOTH",
"425 120 OFFCURVE",
"436 182 OFFCURVE",
"436 268 CURVE SMOOTH",
"436 354 OFFCURVE",
"425 416 OFFCURVE",
"398 462 CURVE SMOOTH",
"367 514 OFFCURVE",
"316 545 OFFCURVE",
"252 545 CURVE SMOOTH",
"236 545 LINE SMOOTH"
);
},
{
closed = 1;
nodes = (
"155 107 OFFCURVE",
"98 159 OFFCURVE",
"98 258 CURVE SMOOTH",
"98 278 LINE SMOOTH",
"98 377 OFFCURVE",
"155 429 OFFCURVE",
"236 429 CURVE SMOOTH",
"317 429 OFFCURVE",
"374 377 OFFCURVE",
"374 278 CURVE SMOOTH",
"374 258 LINE SMOOTH",
"374 159 OFFCURVE",
"317 107 OFFCURVE",
"236 107 CURVE SMOOTH"
);
}
);
width = 488;
},
{
color = -1;
layerId = "89CE42BF-A6C4-4DEE-B312-858F60FB84E5";
paths = (
{
closed = 1;
nodes = (
"270 189 OFFCURVE",
"291 221 OFFCURVE",
"291 272 CURVE SMOOTH",
"291 323 OFFCURVE",
"270 357 OFFCURVE",
"174 357 CURVE SMOOTH",
"103 357 OFFCURVE",
"69 318 OFFCURVE",
"69 272 CURVE SMOOTH",
"69 226 OFFCURVE",
"103 189 OFFCURVE",
"174 189 CURVE SMOOTH"
);
},
{
closed = 1;
nodes = (
"113 237 OFFCURVE",
"97 250 OFFCURVE",
"97 274 CURVE SMOOTH",
"97 297 OFFCURVE",
"113 309 OFFCURVE",
"149 309 CURVE SMOOTH",
"186 309 OFFCURVE",
"200 297 OFFCURVE",
"200 274 CURVE SMOOTH",
"200 250 OFFCURVE",
"186 237 OFFCURVE",
"149 237 CURVE SMOOTH"
);
},
{
closed = 1;
nodes = (
"168 553 OFFCURVE",
"112 523 OFFCURVE",
"80 465 CURVE SMOOTH",
"57 423 OFFCURVE",
"43 362 OFFCURVE",
"43 273 CURVE SMOOTH",
"43 184 OFFCURVE",
"57 123 OFFCURVE",
"80 81 CURVE SMOOTH",
"112 23 OFFCURVE",
"168 -7 OFFCURVE",
"234 -7 CURVE SMOOTH",
"252 -7 LINE SMOOTH",
"318 -7 OFFCURVE",
"374 23 OFFCURVE",
"406 81 CURVE SMOOTH",
"429 123 OFFCURVE",
"443 184 OFFCURVE",
"443 273 CURVE SMOOTH",
"443 362 OFFCURVE",
"429 423 OFFCURVE",
"406 465 CURVE SMOOTH",
"374 523 OFFCURVE",
"318 553 OFFCURVE",
"252 553 CURVE SMOOTH",
"234 553 LINE SMOOTH"
);
},
{
closed = 1;
nodes = (
"160 149 OFFCURVE",
"94 185 OFFCURVE",
"94 268 CURVE SMOOTH",
"94 278 LINE SMOOTH",
"94 361 OFFCURVE",
"160 397 OFFCURVE",
"229 397 CURVE SMOOTH",
"298 397 OFFCURVE",
"364 361 OFFCURVE",
"364 278 CURVE SMOOTH",
"364 268 LINE SMOOTH",
"364 185 OFFCURVE",
"298 149 OFFCURVE",
"229 149 CURVE SMOOTH"
);
}
);
width = 486;
},
{
color = -1;
layerId = "75CF80E9-B2FC-4BD6-93D9-27AF395083D0";
paths = (
{
closed = 1;
nodes = (
"234 152 OFFCURVE",
"268 179 OFFCURVE",
"268 260 CURVE SMOOTH",
"268 341 OFFCURVE",
"234 368 OFFCURVE",
"168 368 CURVE SMOOTH",
"109 368 OFFCURVE",
"70 341 OFFCURVE",
"70 259 CURVE SMOOTH",
"70 178 OFFCURVE",
"109 152 OFFCURVE",
"168 152 CURVE SMOOTH"
);
},
{
closed = 1;
nodes = (
"104 173 OFFCURVE",
"89 207 OFFCURVE",
"89 260 CURVE SMOOTH",
"89 313 OFFCURVE",
"104 347 OFFCURVE",
"168 347 CURVE SMOOTH",
"233 347 OFFCURVE",
"248 313 OFFCURVE",
"248 260 CURVE SMOOTH",
"248 207 OFFCURVE",
"233 173 OFFCURVE",
"168 173 CURVE SMOOTH"
);
},
{
closed = 1;
nodes = (
"183 528 OFFCURVE",
"134 496 OFFCURVE",
"107 451 CURVE SMOOTH",
"80 406 OFFCURVE",
"69 339 OFFCURVE",
"69 260 CURVE SMOOTH",
"69 181 OFFCURVE",
"80 114 OFFCURVE",
"107 69 CURVE SMOOTH",
"134 24 OFFCURVE",
"183 -8 OFFCURVE",
"242 -8 CURVE SMOOTH",
"256 -8 LINE SMOOTH",
"315 -8 OFFCURVE",
"364 24 OFFCURVE",
"391 69 CURVE SMOOTH",
"418 114 OFFCURVE",
"429 181 OFFCURVE",
"429 260 CURVE SMOOTH",
"429 339 OFFCURVE",
"418 406 OFFCURVE",
"391 451 CURVE SMOOTH",
"364 496 OFFCURVE",
"315 528 OFFCURVE",
"256 528 CURVE SMOOTH",
"242 528 LINE SMOOTH"
);
},
{
closed = 1;
nodes = (
"143 20 OFFCURVE",
"89 96 OFFCURVE",
"89 248 CURVE SMOOTH",
"89 272 LINE SMOOTH",
"89 424 OFFCURVE",
"143 500 OFFCURVE",
"249 500 CURVE SMOOTH",
"355 500 OFFCURVE",
"409 424 OFFCURVE",
"409 272 CURVE SMOOTH",
"409 248 LINE SMOOTH",
"409 96 OFFCURVE",
"355 20 OFFCURVE",
"249 20 CURVE SMOOTH"
);
}
);
width = 498;
}
);
leftKerningGroup = wa;
leftMetricsKey = wa;
note = ca;
rightKerningGroup = wa;
rightMetricsKey = wa;
unicode = 1005;
},
